<svg width="800" height="800" viewBox="0 0 800 800" fill="none" xmlns="http://www.w3.org/2000/svg">
<g clip-path="url(#clip0_399_251)">
<path d="M778.133 357.565L739.444 396.255C714.827 420.871 670.261 437.34 635.38 434.213L534.141 425.486L428.084 531.543L449.296 607.409C459.157 642.568 447.101 688.597 421.249 714.424L357.843 777.83C343.845 791.853 325.156 799.596 305.205 799.596C285.28 799.596 266.591 791.879 252.568 777.856L21.3629 546.625C-7.6418 517.595 -7.6418 470.381 21.3629 441.351L441.654 21.0851C470.709 -7.91957 517.949 -7.89435 546.953 21.0851L778.133 252.265C792.156 266.288 799.874 284.977 799.874 304.928C799.874 324.853 792.156 343.542 778.133 357.565ZM742.773 287.626L511.593 56.4456C502.059 46.9119 486.523 46.9624 476.989 56.4709L56.7234 476.686C47.2149 486.22 47.2149 501.756 56.7486 511.29L287.929 742.495C297.084 751.625 313.352 751.65 322.482 742.47L385.889 679.063C398.777 666.175 406.041 638.431 401.123 620.877L376.986 534.519C376.506 533.434 376.355 532.299 376.053 531.164L375.674 529.853C375.599 529.525 375.674 529.247 375.624 528.92C375.22 526.776 374.968 524.682 375.145 522.513C375.346 514.215 379.558 506.775 386.595 502.311L501.706 387.2C505.918 379.659 513.863 374.917 522.892 374.842C523.724 374.766 524.531 374.564 525.389 374.589C525.439 374.589 525.49 374.564 525.565 374.564L639.693 384.375C659.113 385.889 690.085 374.892 704.058 360.894L742.773 322.204C752.306 312.671 752.306 297.159 742.773 287.626ZM524.935 274.284H575.378V324.726H524.935V274.284ZM524.935 174.18H575.378V224.648H524.935V174.18ZM424.831 274.284H475.274V324.726H424.831V274.284ZM424.831 174.18H475.274V224.648H424.831V174.18ZM315.824 565.617C310.956 570.51 304.55 572.956 298.143 572.956C291.762 572.956 285.356 570.51 280.463 565.617L248.129 533.283L215.795 565.617C210.928 570.51 204.521 572.956 198.115 572.956C191.734 572.956 185.328 570.51 180.435 565.617C170.674 555.856 170.674 540.017 180.435 530.256L212.769 497.922L180.435 465.588C170.674 455.828 170.674 439.989 180.435 430.228C190.221 420.467 206.035 420.467 215.795 430.228L248.129 462.562L280.463 430.228C290.249 420.467 306.063 420.467 315.824 430.228C325.61 439.989 325.61 455.828 315.824 465.588L283.49 497.922L315.824 530.256C325.61 540.017 325.61 555.856 315.824 565.617Z" fill="#505477"/>
</g>
<defs>
<clipPath id="clip0_399_251">
<rect width="800" height="799.218" fill="white"/>
</clipPath>
</defs>
</svg>
