<svg width="800" height="800" viewBox="0 0 800 800" fill="none" xmlns="http://www.w3.org/2000/svg">
<path d="M66.6665 466.667V533.333C66.6665 627.613 66.6665 674.753 95.9558 704.043C125.245 733.333 172.386 733.333 266.666 733.333H533.333C627.613 733.333 674.753 733.333 704.043 704.043C733.333 674.753 733.333 627.613 733.333 533.333V400C733.333 305.719 733.333 258.579 704.043 229.289C674.753 200 627.613 200 533.333 200H266.666C172.386 200 125.245 200 95.9558 229.289C74.5792 250.666 68.8042 281.552 67.2438 333.333" stroke="#505477" stroke-width="50" stroke-linecap="round"/>
<path d="M300 66.6665L400 183.333L500 66.6665" stroke="#505477" stroke-width="50" stroke-linecap="round"/>
<path d="M533.333 200V333.333M533.333 733.333V466.667" stroke="#505477" stroke-width="50" stroke-linecap="round"/>
<path d="M666.667 533.333C666.667 514.923 651.743 500 633.333 500C614.923 500 600 514.923 600 533.333C600 551.743 614.923 566.667 633.333 566.667C651.743 566.667 666.667 551.743 666.667 533.333Z" fill="#505477"/>
<path d="M666.667 400C666.667 381.59 651.743 366.667 633.333 366.667C614.923 366.667 600 381.59 600 400C600 418.41 614.923 433.333 633.333 433.333C651.743 433.333 666.667 418.41 666.667 400Z" fill="#505477"/>
</svg>
