<svg width="800" height="800" viewBox="0 0 800 800" fill="none" xmlns="http://www.w3.org/2000/svg">
<path d="M657.927 346.436C657.024 364.747 643.132 387.355 620.744 409.083V695.411C620.719 702.784 617.814 709.034 612.907 713.917C607.975 718.703 601.578 721.534 594.058 721.583H127.435C119.964 721.534 113.542 718.702 108.611 713.917C103.703 709.034 100.824 702.784 100.799 695.411V237.842C100.824 230.494 103.703 224.219 108.611 219.336C113.542 214.55 119.964 211.719 127.435 211.67H375.261C395.305 185.352 418.669 158.398 445.135 133.692C445.256 133.545 445.355 133.398 445.477 133.253H127.435C98.1377 133.228 71.2096 145.02 52.044 163.869C32.7815 182.717 20.769 209.084 20.794 237.844V695.412C20.769 724.172 32.7815 750.589 52.044 769.387C71.2081 788.233 98.1377 800 127.435 800H594.061C623.407 800 650.336 788.233 669.5 769.384C688.714 750.586 700.75 724.169 700.725 695.409V317.92C700.725 317.92 700.53 317.677 700.213 317.431C688.078 327.833 673.942 337.744 657.927 346.436Z" fill="#505477"/>
<path d="M778.216 0C778.216 0 753.703 36.6219 593.597 90.7953C430.339 146.045 329.85 370.802 329.85 370.802C305.656 416.847 210.025 608.155 210.025 608.155C183.683 657.569 231.948 686.769 260.269 635.742C314.541 537.792 349.575 448.291 432.095 445.752C552.481 442.041 634.805 336.914 608.901 341.797C574.819 356.641 499.673 342.92 543.936 336.084C650.186 327.564 715.664 247.705 694.326 242.286C656.656 256.788 621.523 243.019 614.639 238.867C802.165 216.064 778.216 0 778.216 0Z" fill="#505477"/>
</svg>
