<svg width="800" height="800" viewBox="0 0 800 800" fill="none" xmlns="http://www.w3.org/2000/svg">
<g clip-path="url(#clip0_398_243)">
<path d="M2.99043 458.953V458.928L2.96387 458.839L2.99043 458.953Z" fill="#505477"/>
<path d="M15.6668 489.158L15.4793 488.931C15.4668 488.919 15.4668 488.919 15.4668 488.919L15.6668 489.158Z" fill="#505477"/>
<path d="M15.6668 349.591L15.4793 349.364C15.4668 349.364 15.4668 349.364 15.4668 349.364L15.6668 349.591Z" fill="#505477"/>
<path d="M2.99082 319.411C2.99082 319.411 2.99082 319.373 2.97832 319.348L2.96582 319.311L2.99082 319.411Z" fill="#505477"/>
<path d="M800 319.825C800.013 316.27 799.32 312.826 798.203 309.561C799.297 306.545 799.875 303.505 799.888 300.564C799.913 295.939 798.63 291.467 796.684 287.873L796.622 287.761C796.031 286.681 795.227 285.537 794.334 284.394V198.037C797.878 192.948 799.989 186.83 800.002 180.259C800.002 167.544 792.337 156.122 780.614 151.311L490.989 30.3015H490.147C484.066 28.1655 477.759 26.8843 471.362 26.8843C465.119 26.8843 458.861 28.103 452.844 30.1749H452.091L27.6047 201.228L26.5484 201.819L26.5734 201.856C21.1578 204.708 17.15 208.666 14.3859 212.497C9.55 219.219 7.075 226.306 5.27656 232.739L5.26406 232.826C2.56406 242.816 1.43281 252.955 0.742187 261.537L0.729688 261.612C0.0890625 270.231 0.0515625 277.519 0.0015625 280.511V280.586V282.183C0.0140625 292.648 0.592187 306.255 2.97969 319.348L3.01719 319.487C4.275 326.07 6.04531 332.755 9.0625 339.264L9.1125 339.364L9.12344 339.389C10.6578 342.594 12.6547 346.023 15.4188 349.291L15.4812 349.366C15.6812 349.605 15.9719 349.819 16.1984 350.045C15.6203 350.723 14.8656 351.376 14.3875 352.067C9.5375 358.776 7.07656 365.864 5.27813 372.283L5.26562 372.345V372.37C2.56562 382.359 1.43438 392.511 0.74375 401.092L0.73125 401.155C0.0875 409.787 0.05 417.062 0 420.066V420.128V421.736C0.0125 432.216 0.590625 445.823 2.99063 458.928L3.01562 459.028C4.27344 465.625 6.04375 472.322 9.06094 478.83L9.12187 478.942C10.6437 482.122 12.6406 485.551 15.4172 488.855L15.4797 488.931C15.9828 489.534 16.7234 490.075 17.3141 490.676C16.3203 491.77 15.1781 492.851 14.3859 493.944C9.53594 500.666 7.075 507.753 5.27656 514.159L5.23906 514.336L5.26406 514.259C2.56406 524.248 1.43281 534.401 0.742187 542.983L0.729688 543.058C0.0890625 551.676 0.0515625 558.964 0.0015625 561.98V562.055V563.612C0.0140625 574.103 0.592187 587.723 2.99219 600.83L3.01719 600.93C4.275 607.514 6.04531 614.211 9.0625 620.706L9.12344 620.831C10.6453 624.023 12.6422 627.441 15.4188 630.745L15.2187 630.519L15.4828 630.833C18.1328 633.911 21.7766 636.889 26.3266 639.112L26.2766 639.187L26.3641 639.237L27.0047 639.601L339.423 768.539L340.139 768.841C347.062 771.669 354.425 773.112 361.825 773.112C369.087 773.112 376.362 771.719 383.222 768.916L783.077 606.431V606.419C787.688 604.559 792.036 601.531 795.366 596.669L795.378 596.681C795.378 596.681 795.391 596.644 795.403 596.619C795.416 596.606 795.428 596.606 795.441 596.581H795.428C798.581 591.806 799.862 586.781 799.889 582.006C799.914 577.381 798.631 572.909 796.686 569.316L796.623 569.203V569.216C796.033 568.134 795.228 566.98 794.336 565.836V479.492C797.88 474.403 799.991 468.259 800.003 461.701C800.016 457.731 799.173 453.873 797.753 450.267C799.186 446.875 799.877 443.42 799.889 440.114C799.914 435.478 798.631 431.031 796.686 427.411L796.623 427.298C796.033 426.23 795.228 425.073 794.336 423.93V337.598C797.875 332.503 799.987 326.37 800 319.825ZM337.925 733.025L40.3937 610.217L39.275 608.911C38.3453 607.466 37.1531 604.714 36.1969 601.297C34.7156 596.183 33.6969 589.523 33.0813 582.789C32.4656 576.067 32.2516 569.295 32.2516 563.616V562.272C32.3016 557.887 32.4641 545.197 34.2734 533.259C35.1281 527.303 36.4484 521.561 38.0797 517.491L38.4203 516.75L337.922 638.25V733.025H337.925ZM337.925 591.131L67.1953 479.358L40.3953 468.326L39.2766 467.02C38.3469 465.562 37.1547 462.823 36.1984 459.417C34.7172 454.278 33.6984 447.631 33.0828 440.898C32.4672 434.176 32.2531 427.405 32.2531 421.736V420.38C32.3031 415.983 32.4656 403.305 34.275 391.355C35.1297 385.411 36.45 379.656 38.0812 375.598L38.4219 374.858L337.923 496.356V591.131H337.925ZM337.925 364.517V370.27V451.576L64.3188 338.608L40.3953 328.769L39.2766 327.45C38.3469 326.005 37.1547 323.253 36.1984 319.862C34.7172 314.734 33.6984 308.089 33.0828 301.341C32.4672 294.606 32.2531 287.847 32.2531 282.181V280.823C32.3031 276.439 32.4656 263.748 34.275 251.811C35.1297 245.855 36.45 240.114 38.0812 236.042L38.4219 235.314L337.923 356.801V364.517H337.925ZM762.08 580.176L372.125 738.603L371.094 739.067C368.091 740.248 364.962 740.864 361.822 740.864C360.703 740.864 359.561 740.7 358.455 740.525V644.569C359.925 644.733 361.445 644.82 362.916 644.82C368.784 644.82 374.664 643.664 380.155 641.403L380.531 641.241L762.081 485.516V580.176H762.08ZM762.08 437.744V438.272L372.125 596.711L371.094 597.164C368.091 598.358 364.962 598.961 361.822 598.961C360.703 598.961 359.561 598.798 358.455 598.647V502.678C359.925 502.841 361.445 502.93 362.916 502.93C368.784 502.93 374.664 501.773 380.155 499.523L380.531 499.348L648.144 390.136L762.08 343.62V437.744ZM762.08 295.851V298.728L372.125 457.156L371.094 457.608C368.091 458.801 364.962 459.417 361.822 459.417C360.703 459.417 359.561 459.253 358.455 459.092V371.366V363.111C359.925 363.287 361.445 363.361 362.916 363.361C368.784 363.361 374.664 362.219 380.155 359.97L380.531 359.806L762.081 204.069V295.851H762.08Z" fill="#505477"/>
<path d="M2.99043 600.858V600.833L2.96387 600.756L2.99043 600.858Z" fill="#505477"/>
</g>
<defs>
<clipPath id="clip0_398_243">
<rect width="800" height="800" fill="white"/>
</clipPath>
</defs>
</svg>
