<svg width="301" height="102" viewBox="0 0 301 102" fill="none" xmlns="http://www.w3.org/2000/svg">
<path d="M108.397 58.14V56.5733L113.228 55.8878H114.156L119.426 56.5733V58.14H108.397ZM111.765 58.14L123.915 21.7138H128.161L140.556 58.14H133.48L123.183 26.0222H124.208L124.062 26.7077L114.204 58.14H111.765ZM117.181 46.3406L117.523 44.725H132.992L133.333 46.3406H117.181ZM127.819 58.14V56.5243L134.407 55.8389H136.896L143.679 56.5243V58.14H127.819Z" fill="#505477"/>
<path d="M145.879 58.14V56.7202L151.149 56.1326H155.346L160.763 56.7202V58.14H145.879ZM149.344 58.14C149.441 55.692 149.49 50.0616 149.49 46.6834V42.9624C149.49 39.6821 149.441 37.8216 149.344 35.4715L145.538 35.1288V33.9048L155.102 31.212L155.736 31.6526L156.078 38.6539V46.6834C156.078 50.0616 156.127 55.692 156.224 58.14H149.344ZM156.078 42.4728L154.468 39.5352H155.785C157.152 34.1496 160.714 31.163 163.935 31.163C166.13 31.163 167.887 31.9954 168.375 34.4434C168.326 36.4997 167.35 38.0174 165.154 38.0174C163.495 38.0174 162.422 37.0382 161.202 35.4226L160.079 34.1496L161.885 34.3944C159.055 35.8632 157.347 38.1643 156.078 42.4728Z" fill="#505477"/>
<path d="M182.647 58.9723C175.279 58.9723 169.52 54.1253 169.52 45.4594C169.52 36.157 176.011 31.163 183.672 31.163C188.649 31.163 192.602 34.2475 193.334 38.4581C192.895 40.0248 191.968 40.7592 190.504 40.7592C188.698 40.7592 187.283 39.731 187.088 36.7934L186.209 32.1912L189.528 34.3454C187.673 33.2683 186.112 32.7787 184.404 32.7787C179.866 32.7787 176.45 37.1362 176.45 44.5781C176.45 51.7262 180.012 55.8389 185.429 55.8389C188.259 55.8389 190.65 54.5659 192.456 52.2158L193.334 52.8523C191.041 56.965 187.869 58.9723 182.647 58.9723Z" fill="#505477"/>
<path d="M204.048 58.9723C199.997 58.9723 197.069 56.5243 197.069 52.4117C197.069 48.1522 199.46 45.6552 206.927 43.5989C209.464 42.8155 213.026 41.9342 215.662 41.2978V42.5707C213.026 43.2562 210.196 43.9906 208.488 44.627C204.975 46.0469 203.169 48.2501 203.169 51.5304C203.169 54.468 204.78 55.9368 207.171 55.9368C208.732 55.9368 210.44 55.1045 213.758 51.5304L214.49 54.1253H212.782C209.952 57.2587 208 58.9723 204.048 58.9723ZM217.711 58.9234C214.344 58.9234 212.636 56.867 212.246 53.5867V39.4862C212.246 34.2965 210.928 32.7787 207.171 32.7787C205.463 32.7787 203.804 33.1704 201.461 34.1006L204.536 32.8766L203.999 36.6466C203.852 39.4862 202.437 40.5144 200.827 40.5144C199.265 40.5144 198.192 39.731 197.85 38.2622C198.436 33.9048 202.486 31.163 209.367 31.163C215.857 31.163 218.687 33.9538 218.687 40.7102V53.5378C218.687 55.7899 219.224 56.5243 220.297 56.5243C221.078 56.5243 221.615 56.1326 222.493 54.8597L223.323 55.5451C222.152 57.8952 220.444 58.9234 217.711 58.9234Z" fill="#505477"/>
<path d="M236.594 58.9723C230.25 58.9723 225.419 53.7826 225.419 45.2635C225.419 36.5486 230.836 31.163 237.277 31.163C240.547 31.163 243.133 32.6318 245.329 35.9611H245.817L244.987 36.7934C243.182 34.884 241.523 34.1496 239.668 34.1496C235.716 34.1496 232.446 36.8914 232.446 45.0677C232.446 52.8523 235.423 55.8878 239.424 55.8878C241.474 55.8878 243.133 55.1534 244.841 53.244L245.768 54.2232H245.28C243.084 57.2587 240.108 58.9723 236.594 58.9723ZM244.597 58.7275L244.109 54.1742V35.7653L244.353 35.2267V21.5669L240.205 21.2731V19.9512L250.111 18.0907L250.843 18.5314L250.697 26.2181V56.4754L254.308 56.7202V58.14L244.597 58.7275Z" fill="#505477"/>
<path d="M257.539 58.14V56.7202L262.711 56.1816H265.737L271.007 56.7202V58.14H257.539ZM260.954 58.14C261.052 55.692 261.101 50.0616 261.101 46.6834V43.0603C261.101 39.829 261.052 37.6747 260.954 35.3246L257.099 35.0309V33.8069L267.249 31.212L267.835 31.6526L267.689 39.1925V46.6834C267.689 50.0616 267.737 55.692 267.884 58.14H260.954ZM264.126 26.0712C262.077 26.0712 260.418 24.6024 260.418 22.4971C260.418 20.4408 262.077 18.923 264.126 18.923C266.225 18.923 267.884 20.4408 267.884 22.4971C267.884 24.6024 266.225 26.0712 264.126 26.0712Z" fill="#505477"/>
<path d="M281.725 58.9723C277.674 58.9723 274.746 56.5243 274.746 52.4117C274.746 48.1522 277.138 45.6552 284.604 43.5989C287.141 42.8155 290.704 41.9342 293.339 41.2978V42.5707C290.704 43.2562 287.873 43.9906 286.165 44.627C282.652 46.0469 280.846 48.2501 280.846 51.5304C280.846 54.468 282.457 55.9368 284.848 55.9368C286.409 55.9368 288.117 55.1045 291.436 51.5304L292.168 54.1253H290.46C287.629 57.2587 285.677 58.9723 281.725 58.9723ZM295.388 58.9234C292.021 58.9234 290.313 56.867 289.923 53.5867V39.4862C289.923 34.2965 288.605 32.7787 284.848 32.7787C283.14 32.7787 281.481 33.1704 279.138 34.1006L282.213 32.8766L281.676 36.6466C281.529 39.4862 280.114 40.5144 278.504 40.5144C276.942 40.5144 275.869 39.731 275.527 38.2622C276.113 33.9048 280.163 31.163 287.044 31.163C293.534 31.163 296.364 33.9538 296.364 40.7102V53.5378C296.364 55.7899 296.901 56.5243 297.974 56.5243C298.755 56.5243 299.292 56.1326 300.17 54.8597L301 55.5451C299.829 57.8952 298.121 58.9234 295.388 58.9234Z" fill="#505477"/>
<path d="M128.096 93.84L129.275 88.3728L126.916 79.2744H128.726L130.454 86.5776L135.212 79.2744H137.266L131.044 88.434L129.926 93.84H128.096Z" fill="#505477"/>
<path d="M139.421 94.0032C138.58 94.0032 137.855 93.8332 137.245 93.4932C136.635 93.1532 136.167 92.6704 135.842 92.0448C135.517 91.4056 135.354 90.6576 135.354 89.8008C135.354 89.1344 135.429 88.468 135.578 87.8016C135.727 87.1216 135.944 86.4824 136.228 85.884C136.527 85.2856 136.893 84.7552 137.326 84.2928C137.76 83.8168 138.268 83.4428 138.851 83.1708C139.434 82.8988 140.085 82.7628 140.803 82.7628C141.657 82.7628 142.382 82.9328 142.979 83.2728C143.589 83.6128 144.057 84.1024 144.382 84.7416C144.707 85.3672 144.87 86.1152 144.87 86.9856C144.87 87.652 144.795 88.3184 144.646 88.9848C144.497 89.6512 144.273 90.2904 143.975 90.9024C143.691 91.5008 143.331 92.0312 142.898 92.4936C142.464 92.956 141.955 93.3232 141.373 93.5952C140.79 93.8672 140.139 94.0032 139.421 94.0032ZM139.522 92.514C139.915 92.514 140.281 92.4324 140.62 92.2692C140.973 92.106 141.298 91.868 141.596 91.5552C141.894 91.2288 142.145 90.8344 142.349 90.372C142.565 89.896 142.735 89.3588 142.857 88.7604C142.979 88.162 143.04 87.5024 143.04 86.7816C143.04 86.3736 142.965 85.9792 142.816 85.5984C142.681 85.204 142.45 84.8844 142.125 84.6396C141.8 84.3812 141.366 84.252 140.824 84.252C140.376 84.252 139.963 84.3472 139.583 84.5376C139.204 84.728 138.865 85 138.567 85.3536C138.268 85.6936 138.011 86.1016 137.794 86.5776C137.591 87.04 137.435 87.55 137.326 88.1076C137.218 88.6652 137.164 89.25 137.164 89.862C137.164 90.7052 137.367 91.358 137.774 91.8204C138.194 92.2828 138.777 92.514 139.522 92.514Z" fill="#505477"/>
<path d="M149.678 94.044C149.136 94.044 148.655 93.942 148.234 93.738C147.828 93.534 147.509 93.228 147.279 92.82C147.062 92.412 146.953 91.9156 146.953 91.3308C146.953 91.018 146.974 90.7256 147.014 90.4536C147.069 90.168 147.123 89.8756 147.177 89.5764L148.6 82.9056H150.41L148.946 89.7804C148.892 90.0796 148.844 90.338 148.804 90.5556C148.777 90.7732 148.763 90.9704 148.763 91.1472C148.763 91.5824 148.871 91.9292 149.088 92.1876C149.319 92.4324 149.685 92.5548 150.186 92.5548C150.647 92.5548 151.142 92.3916 151.671 92.0652C152.213 91.7388 152.714 91.2152 153.175 90.4944C153.636 89.7736 153.995 88.8148 154.253 87.618L155.249 82.9056H157.018L154.7 93.84H153.236L153.46 91.8204H153.358C153.101 92.1468 152.796 92.4868 152.443 92.8404C152.104 93.1804 151.705 93.466 151.244 93.6972C150.796 93.9284 150.274 94.044 149.678 94.044Z" fill="#505477"/>
<path d="M158.179 93.84L160.497 82.9056H161.961L161.737 84.9252H161.839C162.124 84.5444 162.422 84.1908 162.734 83.8644C163.045 83.5244 163.398 83.2456 163.791 83.028C164.184 82.8104 164.638 82.7016 165.153 82.7016C165.343 82.7016 165.54 82.7152 165.743 82.7424C165.96 82.756 166.156 82.79 166.333 82.8444L165.946 84.456C165.77 84.4152 165.594 84.388 165.418 84.3744C165.255 84.3472 165.085 84.3336 164.909 84.3336C164.408 84.3336 163.94 84.4696 163.506 84.7416C163.086 85 162.707 85.3468 162.368 85.782C162.042 86.2172 161.764 86.7 161.534 87.2304C161.304 87.7608 161.134 88.298 161.026 88.842L159.968 93.84H158.179Z" fill="#505477"/>
<path d="M177.845 94.044C176.693 94.044 175.71 93.8196 174.897 93.3708C174.097 92.9084 173.487 92.2556 173.067 91.4124C172.66 90.5556 172.457 89.5492 172.457 88.3932C172.457 87.55 172.531 86.7408 172.68 85.9656C172.83 85.1768 173.046 84.4356 173.331 83.742C173.629 83.0484 173.989 82.416 174.409 81.8448C174.829 81.2736 175.31 80.7772 175.852 80.3556C176.408 79.934 177.011 79.6144 177.662 79.3968C178.326 79.1656 179.038 79.05 179.797 79.05C181.451 79.05 182.732 79.56 183.64 80.58C184.561 81.6 185.022 83.0008 185.022 84.7824C185.022 85.6256 184.955 86.4416 184.819 87.2304C184.684 88.0056 184.48 88.74 184.209 89.4336C183.938 90.1136 183.599 90.7392 183.192 91.3104C182.786 91.868 182.318 92.3508 181.789 92.7588C181.261 93.1668 180.664 93.4864 180 93.7176C179.35 93.9352 178.631 94.044 177.845 94.044ZM177.906 92.4324C178.448 92.4324 178.95 92.3372 179.411 92.1468C179.871 91.9564 180.292 91.6912 180.671 91.3512C181.064 91.0112 181.41 90.61 181.708 90.1476C182.006 89.6716 182.257 89.148 182.46 88.5768C182.664 87.992 182.82 87.38 182.928 86.7408C183.037 86.088 183.091 85.4216 183.091 84.7416C183.091 83.4496 182.786 82.45 182.176 81.7428C181.566 81.022 180.732 80.6616 179.675 80.6616C179.133 80.6616 178.624 80.7568 178.15 80.9472C177.675 81.124 177.242 81.3824 176.849 81.7224C176.469 82.0488 176.123 82.45 175.812 82.926C175.5 83.3884 175.236 83.9052 175.019 84.4764C174.815 85.0476 174.659 85.6596 174.551 86.3124C174.443 86.9652 174.388 87.6452 174.388 88.3524C174.388 89.2092 174.531 89.9436 174.815 90.5556C175.1 91.154 175.5 91.6164 176.015 91.9428C176.544 92.2692 177.174 92.4324 177.906 92.4324Z" fill="#505477"/>
<path d="M189.408 94.044C188.676 94.044 188.059 93.8672 187.558 93.5136C187.056 93.16 186.806 92.5412 186.806 91.6572C186.806 91.4532 186.819 91.2288 186.846 90.984C186.887 90.7256 186.934 90.4672 186.989 90.2088L188.229 84.2724H186.541L186.704 83.4564L188.534 82.6812L189.794 80.4168H190.852L190.303 82.9056H193.048L192.763 84.2724H190.038L188.778 90.2292C188.737 90.406 188.697 90.61 188.656 90.8412C188.615 91.0588 188.595 91.2628 188.595 91.4532C188.595 91.766 188.676 92.0312 188.839 92.2488C189.015 92.4664 189.293 92.5752 189.673 92.5752C189.916 92.5752 190.154 92.5548 190.384 92.514C190.615 92.4596 190.859 92.3916 191.116 92.31V93.6768C190.953 93.7584 190.703 93.84 190.364 93.9216C190.025 94.0032 189.706 94.044 189.408 94.044Z" fill="#505477"/>
<path d="M196.322 94.044C195.739 94.044 195.224 93.908 194.777 93.636C194.343 93.3504 193.997 92.9288 193.74 92.3712C193.496 91.8136 193.374 91.1268 193.374 90.3108C193.374 89.4948 193.455 88.7128 193.618 87.9648C193.794 87.2032 194.038 86.5028 194.35 85.8636C194.661 85.2244 195.034 84.6736 195.468 84.2112C195.915 83.7352 196.41 83.368 196.952 83.1096C197.508 82.8376 198.098 82.7016 198.721 82.7016C199.196 82.7016 199.609 82.79 199.961 82.9668C200.327 83.1436 200.632 83.3748 200.876 83.6604C201.12 83.946 201.317 84.2588 201.466 84.5988H201.568L202.218 82.9056H203.581L201.263 93.84H199.839L200.104 91.8204H200.022C199.711 92.2148 199.365 92.582 198.985 92.922C198.606 93.262 198.193 93.534 197.745 93.738C197.311 93.942 196.837 94.044 196.322 94.044ZM196.912 92.5548C197.413 92.5548 197.901 92.3712 198.376 92.004C198.864 91.6368 199.304 91.1404 199.697 90.5148C200.09 89.8892 200.388 89.1888 200.592 88.4136C200.7 88.0192 200.768 87.6588 200.795 87.3324C200.836 86.9924 200.856 86.6796 200.856 86.394C200.856 85.7548 200.68 85.2312 200.327 84.8232C199.975 84.4152 199.501 84.2112 198.904 84.2112C198.484 84.2112 198.084 84.32 197.705 84.5376C197.339 84.7552 197 85.0612 196.688 85.4556C196.376 85.8364 196.112 86.2852 195.895 86.802C195.678 87.3188 195.509 87.8832 195.387 88.4952C195.265 89.0936 195.204 89.7124 195.204 90.3516C195.204 91.086 195.353 91.6368 195.651 92.004C195.949 92.3712 196.369 92.5548 196.912 92.5548Z" fill="#505477"/>
<path d="M204.503 93.84L207.777 78.336H209.586L208.264 84.4968C208.034 85.5848 207.831 86.428 207.655 87.0264C207.492 87.6112 207.377 87.9988 207.309 88.1892H207.35L212.514 82.9056H214.629L209.952 87.5976L212.86 93.84H210.887L208.59 88.7196L207.126 89.8824L206.313 93.84H204.503Z" fill="#505477"/>
<path d="M217.864 94.044C217.322 94.044 216.84 93.942 216.42 93.738C216.014 93.534 215.695 93.228 215.465 92.82C215.248 92.412 215.139 91.9156 215.139 91.3308C215.139 91.018 215.16 90.7256 215.2 90.4536C215.255 90.168 215.309 89.8756 215.363 89.5764L216.786 82.9056H218.596L217.132 89.7804C217.078 90.0796 217.03 90.338 216.99 90.5556C216.962 90.7732 216.949 90.9704 216.949 91.1472C216.949 91.5824 217.057 91.9292 217.274 92.1876C217.505 92.4324 217.871 92.5548 218.372 92.5548C218.833 92.5548 219.328 92.3916 219.856 92.0652C220.399 91.7388 220.9 91.2152 221.361 90.4944C221.822 89.7736 222.181 88.8148 222.439 87.618L223.435 82.9056H225.204L222.886 93.84H221.422L221.646 91.8204H221.544C221.287 92.1468 220.982 92.4868 220.629 92.8404C220.29 93.1804 219.89 93.466 219.43 93.6972C218.982 93.9284 218.46 94.044 217.864 94.044Z" fill="#505477"/>
<path d="M234.839 94.044C234.134 94.044 233.511 93.9896 232.968 93.8808C232.44 93.772 231.938 93.6088 231.464 93.3912V91.596C231.735 91.732 232.04 91.868 232.379 92.004C232.718 92.14 233.09 92.2488 233.497 92.3304C233.917 92.412 234.371 92.4528 234.859 92.4528C235.32 92.4528 235.754 92.4052 236.161 92.31C236.567 92.2012 236.926 92.038 237.238 91.8204C237.55 91.5892 237.794 91.3036 237.97 90.9636C238.16 90.6236 238.255 90.2224 238.255 89.76C238.255 89.3928 238.174 89.0664 238.011 88.7808C237.862 88.4952 237.611 88.2164 237.259 87.9444C236.906 87.6588 236.438 87.3528 235.856 87.0264C235.34 86.7136 234.88 86.394 234.473 86.0676C234.08 85.7276 233.768 85.34 233.538 84.9048C233.321 84.456 233.212 83.9188 233.212 83.2932C233.212 82.6132 233.334 82.0148 233.578 81.498C233.836 80.9812 234.182 80.5392 234.615 80.172C235.063 79.8048 235.571 79.5328 236.14 79.356C236.723 79.1656 237.34 79.0704 237.991 79.0704C238.75 79.0704 239.414 79.1452 239.983 79.2948C240.566 79.4444 241.115 79.6552 241.63 79.9272L240.939 81.4776C240.586 81.2872 240.146 81.1104 239.617 80.9472C239.088 80.7704 238.546 80.682 237.991 80.682C237.57 80.682 237.184 80.7364 236.832 80.8452C236.493 80.954 236.194 81.1172 235.937 81.3348C235.693 81.5524 235.496 81.8176 235.347 82.1304C235.212 82.4296 235.144 82.7764 235.144 83.1708C235.144 83.5788 235.218 83.9256 235.368 84.2112C235.517 84.4832 235.747 84.7348 236.059 84.966C236.371 85.1836 236.757 85.4352 237.218 85.7208C237.801 86.0744 238.309 86.4212 238.743 86.7612C239.19 87.1012 239.536 87.4956 239.78 87.9444C240.037 88.3932 240.166 88.9508 240.166 89.6172C240.166 90.3516 240.037 90.9976 239.78 91.5552C239.536 92.0992 239.177 92.5548 238.702 92.922C238.241 93.2892 237.679 93.568 237.015 93.7584C236.364 93.9488 235.639 94.044 234.839 94.044Z" fill="#505477"/>
<path d="M240.896 98.736L244.23 82.9056H245.694L245.45 84.9456H245.532C245.857 84.5376 246.203 84.1704 246.568 83.844C246.934 83.504 247.334 83.232 247.768 83.028C248.202 82.824 248.67 82.722 249.171 82.722C249.754 82.722 250.262 82.8648 250.696 83.1504C251.143 83.4224 251.489 83.8372 251.733 84.3948C251.991 84.9388 252.119 85.6256 252.119 86.4552C252.119 87.2576 252.038 88.0328 251.875 88.7808C251.726 89.5288 251.496 90.2224 251.184 90.8616C250.886 91.4872 250.52 92.0448 250.086 92.5344C249.666 93.0104 249.178 93.3844 248.622 93.6564C248.066 93.9148 247.463 94.044 246.812 94.044C246.325 94.044 245.898 93.9556 245.532 93.7788C245.179 93.602 244.881 93.3708 244.637 93.0852C244.393 92.7996 244.19 92.4936 244.027 92.1672H243.925C243.912 92.3848 243.878 92.6908 243.824 93.0852C243.769 93.466 243.715 93.7788 243.661 94.0236L242.665 98.736H240.896ZM246.67 92.5548C247.104 92.5548 247.504 92.446 247.87 92.2284C248.249 91.9972 248.588 91.6844 248.886 91.29C249.185 90.882 249.435 90.4196 249.639 89.9028C249.856 89.3724 250.018 88.8148 250.127 88.23C250.235 87.6316 250.289 87.0264 250.289 86.4144C250.289 85.68 250.14 85.1292 249.842 84.762C249.557 84.3948 249.13 84.2112 248.561 84.2112C248.263 84.2112 247.958 84.286 247.646 84.4356C247.334 84.5852 247.029 84.8028 246.731 85.0884C246.433 85.3604 246.155 85.6868 245.898 86.0676C245.64 86.4484 245.41 86.87 245.206 87.3324C245.016 87.7812 244.867 88.264 244.759 88.7808C244.65 89.284 244.596 89.8076 244.596 90.3516C244.596 91.0044 244.766 91.5348 245.105 91.9428C245.443 92.3508 245.965 92.5548 246.67 92.5548Z" fill="#505477"/>
<path d="M257.042 94.044C256.459 94.044 255.944 93.908 255.497 93.636C255.063 93.3504 254.717 92.9288 254.46 92.3712C254.216 91.8136 254.094 91.1268 254.094 90.3108C254.094 89.4948 254.175 88.7128 254.338 87.9648C254.514 87.2032 254.758 86.5028 255.07 85.8636C255.381 85.2244 255.754 84.6736 256.188 84.2112C256.635 83.7352 257.13 83.368 257.672 83.1096C258.228 82.8376 258.818 82.7016 259.441 82.7016C259.916 82.7016 260.329 82.79 260.681 82.9668C261.047 83.1436 261.352 83.3748 261.596 83.6604C261.84 83.946 262.037 84.2588 262.186 84.5988H262.288L262.938 82.9056H264.301L261.983 93.84H260.559L260.824 91.8204H260.742C260.431 92.2148 260.085 92.582 259.705 92.922C259.326 93.262 258.912 93.534 258.465 93.738C258.031 93.942 257.557 94.044 257.042 94.044ZM257.632 92.5548C258.133 92.5548 258.621 92.3712 259.095 92.004C259.583 91.6368 260.024 91.1404 260.417 90.5148C260.81 89.8892 261.108 89.1888 261.312 88.4136C261.42 88.0192 261.488 87.6588 261.515 87.3324C261.556 86.9924 261.576 86.6796 261.576 86.394C261.576 85.7548 261.4 85.2312 261.047 84.8232C260.695 84.4152 260.221 84.2112 259.624 84.2112C259.204 84.2112 258.804 84.32 258.424 84.5376C258.059 84.7552 257.72 85.0612 257.408 85.4556C257.096 85.8364 256.832 86.2852 256.615 86.802C256.398 87.3188 256.229 87.8832 256.107 88.4952C255.985 89.0936 255.924 89.7124 255.924 90.3516C255.924 91.086 256.073 91.6368 256.371 92.004C256.669 92.3712 257.089 92.5548 257.632 92.5548Z" fill="#505477"/>
<path d="M269.696 94.044C268.896 94.044 268.191 93.8944 267.581 93.5952C266.971 93.296 266.497 92.8472 266.158 92.2488C265.819 91.6368 265.65 90.8752 265.65 89.964C265.65 89.1752 265.731 88.4272 265.894 87.72C266.07 86.9992 266.321 86.3328 266.646 85.7208C266.972 85.1088 267.365 84.5784 267.826 84.1296C268.286 83.6808 268.808 83.334 269.391 83.0892C269.988 82.8308 270.638 82.7016 271.343 82.7016C271.817 82.7016 272.292 82.7492 272.766 82.8444C273.241 82.9396 273.668 83.0688 274.047 83.232L273.539 84.7212C273.268 84.5988 272.943 84.4832 272.563 84.3744C272.197 84.2656 271.797 84.2112 271.363 84.2112C270.902 84.2112 270.469 84.3132 270.062 84.5172C269.669 84.7076 269.31 84.9796 268.984 85.3332C268.673 85.6868 268.402 86.1084 268.171 86.598C267.954 87.074 267.785 87.5976 267.663 88.1688C267.541 88.7264 267.48 89.318 267.48 89.9436C267.48 90.4876 267.575 90.9568 267.764 91.3512C267.954 91.7456 268.225 92.0448 268.578 92.2488C268.944 92.4528 269.378 92.5548 269.879 92.5548C270.354 92.5548 270.801 92.4868 271.221 92.3508C271.655 92.2148 272.082 92.0584 272.502 91.8816V93.3912C272.122 93.5816 271.695 93.738 271.221 93.8604C270.76 93.9828 270.252 94.044 269.696 94.044Z" fill="#505477"/>
<path d="M278.808 94.044C277.967 94.044 277.249 93.8808 276.652 93.5544C276.07 93.2144 275.622 92.7384 275.31 92.1264C275.012 91.5008 274.863 90.7664 274.863 89.9232C274.863 89.0528 274.985 88.196 275.229 87.3528C275.487 86.496 275.853 85.7208 276.327 85.0272C276.802 84.32 277.371 83.7556 278.035 83.334C278.713 82.9124 279.472 82.7016 280.312 82.7016C281.342 82.7016 282.115 82.926 282.63 83.3748C283.159 83.8236 283.423 84.4492 283.423 85.2516C283.423 85.782 283.301 86.2852 283.057 86.7612C282.813 87.2236 282.434 87.6316 281.919 87.9852C281.403 88.3388 280.746 88.6176 279.946 88.8216C279.147 89.012 278.184 89.1072 277.059 89.1072H276.713C276.7 89.2296 276.686 89.3588 276.673 89.4948C276.673 89.6308 276.673 89.7532 276.673 89.862C276.673 90.6916 276.876 91.3512 277.283 91.8408C277.689 92.3168 278.306 92.5548 279.133 92.5548C279.648 92.5548 280.136 92.48 280.597 92.3304C281.058 92.1808 281.559 91.9768 282.102 91.7184V93.2484C281.586 93.4796 281.078 93.67 280.577 93.8196C280.089 93.9692 279.499 94.044 278.808 94.044ZM277.12 87.6588C277.933 87.6588 278.686 87.5908 279.377 87.4548C280.068 87.3052 280.624 87.0672 281.044 86.7408C281.464 86.4008 281.675 85.952 281.675 85.3944C281.675 85.0408 281.553 84.7552 281.309 84.5376C281.078 84.3064 280.712 84.1908 280.211 84.1908C279.777 84.1908 279.35 84.3268 278.93 84.5988C278.509 84.8708 278.13 85.2652 277.791 85.782C277.452 86.2988 277.181 86.9244 276.978 87.6588H277.12Z" fill="#505477"/>
<path d="M41.1605 89.2985C63.8928 89.2985 82.3209 70.8093 82.3209 48.0017C82.3209 25.1941 63.8928 6.70492 41.1605 6.70492C18.4282 6.70492 0 25.1941 0 48.0017C0 70.8093 18.4282 89.2985 41.1605 89.2985Z" fill="#E5BDD9"/>
<path d="M75.8104 36.4019C77.8381 36.2048 79.8177 36.016 81.8116 36.1571C83.5636 36.281 85.013 37.0288 86.2482 38.2589C87.6135 39.6185 88.3805 41.2389 88.4438 43.1752C88.4927 44.6699 87.9836 45.9986 87.1265 47.1856C85.8135 49.0038 84.0349 50.2389 81.9843 51.0765C80.5129 51.6776 79.003 52.1676 77.4261 52.4346C75.4724 52.7653 73.5855 52.5831 71.6818 52.0112C69.5712 51.3771 67.6976 50.304 65.8208 49.2095C65.6944 49.1357 65.5704 49.0574 65.3512 48.9241C65.6252 49.5244 65.859 50.0232 66.0817 50.527C66.9414 52.4725 67.4872 54.5139 67.9157 56.591C68.7136 60.4585 68.7757 64.3747 68.6901 68.3009C68.6717 69.1418 68.5752 69.9761 68.4883 70.8111C68.463 71.0556 68.4368 71.2551 68.7281 71.4126C69.1134 71.6209 69.1924 72.0955 68.9671 72.5542C68.8896 72.7119 68.8903 72.8234 68.9791 72.9691C69.2029 73.336 69.2463 73.7618 69.2955 74.1722C69.4225 75.2341 69.4446 76.3078 69.6535 77.3608C69.6932 77.561 69.5214 77.5761 69.3948 77.6582C69.2636 77.4177 69.3016 77.1393 69.1957 76.8756C69.085 77.1949 69.2542 77.5169 69.1073 77.8032C69.0793 77.8577 68.9994 77.8862 68.8643 77.8529C68.8643 77.1573 68.8643 76.4498 68.8643 75.7423C68.8313 75.7414 68.7981 75.7405 68.7652 75.7394C68.7156 76.4099 68.6551 77.0797 68.622 77.7509C68.6097 77.9982 68.5532 78.1322 68.2591 78.0654C68.2591 77.7079 68.2591 77.3503 68.2591 76.9923C68.2467 76.9919 68.2342 76.9912 68.2218 76.9908C68.1842 77.3678 68.1467 77.7447 68.1076 78.1396C68.01 78.1602 67.9111 78.1813 67.7847 78.208C67.7109 76.8026 68.0557 75.4387 68.033 74.0526C67.8572 74.7533 67.7845 75.4685 67.6902 76.1828C67.6005 76.8622 67.6374 77.5686 67.3579 78.2178C67.2658 76.4636 67.4112 74.7391 67.941 73.0275C67.4985 72.8547 67.2933 72.5351 67.3479 72.0504C67.3728 71.8292 67.4274 71.6297 67.6096 71.5022C67.8371 71.3432 67.8924 71.1119 67.9061 70.867C67.9688 69.7484 68.0358 68.6317 68.0083 67.5076C67.9637 65.6854 67.9308 63.863 67.8216 62.0435C67.6777 59.6459 67.3522 57.272 66.8049 54.9163C67.2239 62.001 65.6786 68.6472 62.431 74.9439C62.6013 75.1432 62.7072 75.3885 62.6812 75.6891C62.653 76.0135 62.5092 76.2743 62.2059 76.3541C61.8999 76.4347 61.7409 76.6333 61.6019 76.8736C60.9367 78.0222 60.5122 79.2561 60.2898 80.565C60.2584 80.7501 60.3339 81.0837 59.9005 81.0114C59.9842 80.5004 60.0671 79.9934 60.1501 79.4863C59.9272 79.9241 59.8558 80.403 59.7606 80.8715C59.7139 81.1004 59.617 81.1284 59.3975 81.0785C59.5742 79.7108 59.9999 78.4266 60.6932 77.1658C60.4096 77.3776 59.947 78.0597 59.7604 78.5337C59.4628 79.2896 59.1493 80.0415 59.0956 80.8693C59.0827 81.0662 59.0166 81.2428 58.7278 81.124C58.8596 79.7623 59.3255 78.5173 59.9927 77.3373C59.0893 78.4345 58.7439 79.7656 58.428 81.1159C58.2704 81.1514 58.1658 81.1012 58.211 80.9249C58.609 79.3709 58.9395 77.7844 60.1664 76.6081C60.2841 76.4953 60.3944 76.3685 60.5291 76.2807C60.8849 76.0487 61.2497 75.8494 61.1692 75.3097C61.1467 75.1586 61.2866 74.9511 61.4674 74.9135C61.8058 74.8431 61.899 74.5875 62.0291 74.3242C63.4281 71.4943 64.3971 68.5106 65.1416 65.4532C65.545 63.796 65.6732 62.0908 65.8188 60.3939C65.9987 58.2953 66.0094 56.1941 65.8935 54.0909C65.7872 52.1584 65.3593 50.3121 64.4511 48.5946C64.1742 48.0709 63.8049 47.5993 63.4566 47.126C62.7482 46.1631 62.4452 45.0883 62.4024 43.9261C62.3229 41.7662 62.793 39.6888 63.4147 37.6412C64.4188 34.3358 66.0179 31.3402 68.1598 28.6395C69.3666 27.1176 70.7361 25.7797 72.5848 25.0466C73.1858 24.8083 73.8058 24.651 74.4568 24.756C75.4347 24.9139 76.0344 25.5519 76.4372 26.4044C76.8808 27.3432 77.0168 28.3587 77.1428 29.3772C77.4418 31.7934 76.9094 34.0517 75.8805 36.2197C75.856 36.2716 75.8394 36.3259 75.8104 36.4019ZM64.6537 47.5719C65.1377 47.9649 65.607 48.2207 66.0692 48.4814C67.8376 49.4791 69.5629 50.5642 71.5404 51.1339C72.7121 51.4715 73.8678 51.855 75.1107 51.8421C77.5739 51.8164 79.8732 51.1201 82.0948 50.1274C83.7002 49.4101 85.0863 48.378 86.2126 47.0154C88.1733 44.6439 88.0143 41.6109 86.3126 39.5236C85.1483 38.0957 83.7424 37.0877 81.8577 36.9375C79.7723 36.7714 77.6964 36.9256 75.6281 37.2102C75.4432 37.2356 75.3207 37.3158 75.2244 37.4901C73.5334 40.5536 71.3734 43.2381 68.7296 45.5268C67.9015 46.2437 67.0608 46.9477 66.048 47.3989C65.6313 47.5847 65.2019 47.7213 64.6537 47.5719ZM63.8236 46.1151C63.9042 45.0659 64.3343 44.1383 64.9484 43.3086C67.3765 40.0274 70.6115 37.9065 74.4835 36.7255C74.7337 36.6492 74.8948 36.534 75.0183 36.2981C76.1806 34.079 76.7978 31.7527 76.4385 29.228C76.309 28.3184 76.1918 27.4037 75.7527 26.5751C75.4578 26.0183 75.0592 25.5863 74.4007 25.472C73.7327 25.3561 73.1369 25.5947 72.5599 25.8687C70.8826 26.6653 69.6362 27.9714 68.5469 29.4278C65.5736 33.4022 63.7195 37.8386 63.1962 42.8013C63.0879 43.8275 63.1515 44.8508 63.4901 45.84C63.5405 45.9863 63.5603 46.1762 63.8236 46.1151ZM74.2584 37.6049C74.1163 37.6327 74.0588 37.636 74.0073 37.655C71.0042 38.7671 68.3471 40.4018 66.2428 42.8609C65.5584 43.6608 64.9534 44.5151 64.6746 45.5537C64.5936 45.8549 64.5083 46.1596 64.6172 46.4798C64.7205 46.7834 64.9047 46.9102 65.2263 46.8373C65.7365 46.7214 66.1736 46.4549 66.5849 46.1532C68.9512 44.418 70.9915 42.3545 72.7084 39.9714C73.2443 39.2269 73.763 38.4699 74.2584 37.6049ZM67.771 72.0942C67.7544 72.3772 67.855 72.5524 68.1585 72.5551C68.4458 72.5575 68.6239 72.3936 68.629 72.117C68.6342 71.8231 68.4652 71.694 68.1958 71.6897C67.9284 71.6855 67.7404 71.7858 67.771 72.0942ZM61.4811 75.6464C61.5226 75.9 61.6543 76.0697 61.9147 76.0481C62.169 76.0268 62.3413 75.8803 62.3238 75.5949C62.3083 75.3393 62.1793 75.1807 61.9088 75.1956C61.6309 75.2107 61.5163 75.3947 61.4811 75.6464Z" fill="#4C1C3C"/>
<path d="M18.9038 93.1165C18.7938 93.156 18.6986 93.1901 18.5826 93.2315C18.2506 92.6366 18.1089 91.9793 17.8904 91.3493C17.8991 92.0084 18.0768 92.6305 18.291 93.246C18.1076 93.4225 18.0037 93.3643 17.9098 93.1527C17.5889 92.4294 17.4872 91.6566 17.3802 90.8843C17.3728 90.8304 17.3653 90.7766 17.3319 90.7271C17.3308 91.638 17.5616 92.5076 17.8293 93.3612C17.6522 93.5404 17.454 93.3036 17.2619 93.4276C17.2073 93.4628 17.1101 93.1715 17.0501 93.0261C16.6665 92.0962 16.3578 91.1472 16.4045 90.1208C16.412 89.9582 16.4408 89.797 16.4521 89.6345C16.4792 89.2457 16.7327 88.8444 16.3796 88.4738C16.334 88.4258 16.3131 88.294 16.3454 88.2412C16.6951 87.671 16.3495 87.139 16.2406 86.6107C15.8596 84.7646 15.8098 82.9068 15.9426 81.0364C16.1899 77.5564 17.0772 74.195 17.8325 70.8096C18.0604 69.788 18.3157 68.7725 18.5547 67.7533C18.5713 67.6828 18.5569 67.6048 18.5569 67.4432C18.2069 68.1257 17.8952 68.7351 17.4904 69.2888C16.4026 70.7769 15.0949 72.0222 13.4767 72.9172C12.8593 73.2586 12.2009 73.5033 11.4809 73.4389C10.3989 73.3423 9.82106 72.6346 9.48639 71.6816C9.03404 70.3945 8.96287 69.0582 9.02618 67.7091C9.06788 66.8207 9.21873 65.9496 9.47351 65.045C9.02203 65.181 8.60069 65.3185 8.17388 65.4351C6.56338 65.8751 4.93563 66.0696 3.27667 65.7476C2.7621 65.6478 2.26413 65.4953 1.79934 65.246C0.628301 64.6181 0.103911 63.4775 0.437713 62.181C1.07453 59.7068 2.52894 57.8191 4.62061 56.3958C6.76423 54.9373 9.14189 54.1006 11.6828 53.6835C13.7291 53.3477 15.757 53.3611 17.7583 53.9663C18.0923 54.0673 18.4115 54.2037 18.7222 54.3652C19.4561 54.7469 19.8799 55.3981 20.0663 56.1523C20.3709 57.3835 20.5477 58.6333 20.4682 59.923C20.1951 64.3592 20.4121 68.7942 20.5929 73.2273C20.709 76.0739 21.0376 78.9026 21.5153 81.7108C21.9868 84.4841 22.7717 87.1688 23.8789 89.7561C23.8973 89.7988 23.9056 89.859 23.9385 89.8805C24.8356 90.4686 24.9365 91.4604 25.1733 92.3707C25.4274 93.3478 25.6239 94.3401 25.9595 95.3054C25.7409 95.4122 25.5292 95.2591 25.3098 95.32C25.1449 95.3658 25.1391 95.1608 25.1124 95.046C24.8849 94.0608 24.6644 93.0738 24.4413 92.0877C24.411 91.9541 24.3774 91.8214 24.3188 91.6945C24.4509 92.913 24.7284 94.1015 25.0681 95.2775C24.7998 95.3726 24.7112 95.2405 24.6516 95.0344C24.3217 93.8939 24.0861 92.7354 23.9743 91.5522C23.9693 91.4981 23.9569 91.4446 23.9185 91.3964C23.8348 92.715 24.1981 93.9719 24.4684 95.2364C24.2149 95.3124 24.0879 95.2362 24.027 95.009C23.7338 93.9154 23.4683 92.8175 23.5338 91.6722C23.5489 91.4089 23.5816 91.1634 23.3936 90.931C23.2727 90.7816 23.2618 90.5498 23.3585 90.3965C23.4925 90.1843 23.4211 90.0373 23.3196 89.8605C22.018 87.5904 21.3212 85.1077 20.8156 82.5655C19.9543 78.2356 19.605 73.8542 19.576 69.4439C19.5723 68.8867 19.5755 68.3292 19.5048 67.763C19.3109 68.5576 19.1062 69.3499 18.9252 70.1476C18.3691 72.5965 17.7389 75.0291 17.2848 77.5003C16.8174 80.0437 16.5351 82.6038 16.7626 85.195C16.8287 85.9492 16.9377 86.6994 17.0289 87.4513C17.0355 87.5059 17.0418 87.5878 17.0761 87.6071C17.4057 87.7924 17.4162 88.1367 17.5577 88.4324C17.9535 89.2591 18.0087 90.1569 18.2482 91.0125C18.4458 91.716 18.603 92.4314 18.9038 93.1165ZM18.8346 54.9969C17.9081 54.4865 16.9791 54.3566 16.0478 54.2513C14.6842 54.0971 13.332 54.2094 11.9837 54.4451C9.17878 54.9355 6.60421 55.953 4.3702 57.7572C2.8992 58.9452 1.83448 60.4163 1.34852 62.2658C1.04986 63.4024 1.43999 64.1603 2.52283 64.6229C3.20637 64.9149 3.93052 65.022 4.66602 65.0371C6.42846 65.0734 8.08503 64.5896 9.71365 63.9765C9.84442 63.9272 9.91603 63.8387 9.96668 63.7134C11.2296 60.5808 13.4147 58.2042 16.0893 56.2379C16.8868 55.652 17.7214 55.1158 18.8346 54.9969ZM19.5197 57.9359C18.8134 59.0545 17.9836 60.0003 16.9935 60.7832C15.1436 62.2461 13.1261 63.4421 10.9807 64.417C10.7594 64.5177 10.6406 64.6518 10.5633 64.8778C10.0341 66.424 9.8907 68.0166 10.0016 69.6351C10.054 70.4009 10.1522 71.1646 10.5273 71.8603C10.8166 72.3967 11.2495 72.667 11.8623 72.6206C12.6085 72.5641 13.2346 72.2016 13.8321 71.797C15.8238 70.449 17.2859 68.6755 18.1495 66.4076C19.1149 63.8725 19.7742 61.2865 19.6151 58.5433C19.6044 58.3573 19.6109 58.1698 19.5197 57.9359ZM11.217 63.3249C12.0566 62.9494 12.7923 62.5368 13.5156 62.1022C15.0412 61.1853 16.598 60.3026 17.7989 58.9492C18.4822 58.1792 19.3162 57.491 19.364 56.3207C19.3784 55.9676 19.2033 55.6726 18.8307 55.645C18.4907 55.6198 18.1971 55.7593 17.9063 55.9067C16.8551 56.4397 15.9956 57.2253 15.1398 58.0163C13.5152 59.5171 12.1712 61.2269 11.217 63.3249ZM23.9453 90.3586C23.7934 90.3827 23.7281 90.4587 23.7414 90.5983C23.7567 90.7588 23.811 90.9102 23.9927 90.9071C24.1274 90.9047 24.1586 90.7649 24.1575 90.6467C24.156 90.4966 24.096 90.3823 23.9453 90.3586ZM16.9547 91.4564C16.9064 90.8883 16.8582 90.3201 16.8099 89.7521C16.7124 90.3334 16.7944 90.8983 16.9547 91.4564ZM16.8759 88.0114C16.6868 88.2313 16.789 88.3807 16.9324 88.5119C17.0018 88.5754 17.1077 88.5584 17.1352 88.4705C17.2033 88.253 17.0542 88.1398 16.8759 88.0114Z" fill="#4C1C3C"/>
<path d="M18.0443 48.4475C20.1303 49.3641 21.3493 52.0581 20.5448 53.7731C18.4717 51.5481 15.8926 50.3222 12.9309 49.8576C13.7734 48.4604 16.0899 47.5886 18.0443 48.4475Z" fill="#E8C152"/>
<path d="M19.6609 55.4801C18.649 56.7161 16.5964 57.3211 15.1289 56.816C14.9311 56.7479 14.8523 56.6401 14.8294 56.4495C14.7888 56.1127 14.8167 55.7784 14.8523 55.4439C14.8724 55.2556 15.0025 55.1815 15.1575 55.1044C15.7317 54.8182 15.967 54.1724 15.721 53.5992C15.4537 52.9763 14.7305 52.6628 14.0945 52.8941C13.5232 53.1022 13.1992 53.749 13.3697 54.3422C13.3826 54.3869 13.3854 54.4464 13.4158 54.4723C13.9365 54.913 13.6476 55.4764 13.6557 56.075C12.4281 55.0186 11.8679 53.7528 11.9594 52.2031C11.969 52.0419 12.0037 51.8811 12.0378 51.7223C12.1415 51.2365 12.1437 51.2338 12.6622 51.2362C13.8839 51.2422 15.0066 51.6042 16.0906 52.1505C17.1452 52.6819 18.0999 53.341 18.9284 54.1836C19.2066 54.4664 19.4432 54.7829 19.662 55.1134C19.7438 55.2369 19.7823 55.3318 19.6609 55.4801Z" fill="#E8C152"/>
<path d="M20.2097 55.5924C20.1302 55.1638 19.8746 54.8578 19.6327 54.5507C18.568 53.1988 17.2088 52.2471 15.6371 51.5707C14.8935 51.2507 14.1292 51.0474 13.3313 50.9373C12.7822 50.8615 12.2458 50.9281 11.7173 51.0503C11.428 51.1173 11.4038 51.0095 11.4669 50.7876C11.5468 50.5062 11.7612 50.3914 12.0288 50.3358C12.8281 50.1693 13.6304 50.2116 14.4002 50.4339C15.9912 50.8932 17.4788 51.5911 18.8125 52.5881C19.4264 53.0472 19.9883 53.5657 20.4195 54.2099C20.5494 54.4039 20.6647 54.6074 20.7142 54.8396C20.7959 55.2212 20.6363 55.4696 20.2097 55.5924Z" fill="#E8C152"/>
<path d="M11.6171 51.3883C11.3673 51.2825 11.1115 51.1513 11.1232 50.837C11.137 50.4698 11.3306 50.14 11.6856 50.078C12.2054 49.9871 12.4294 49.5983 12.7449 49.2697C13.9755 47.9873 15.4666 47.443 17.2325 47.7943C19.9268 48.3305 21.3986 50.5572 21.1773 52.984C21.1646 53.1224 21.1615 53.267 21.1183 53.3966C20.9439 53.9195 20.8921 54.4221 21.045 54.9807C21.1744 55.4545 20.7146 55.863 20.1961 55.8299C20.0075 55.8179 19.8798 55.8676 19.739 55.9972C18.1473 57.4633 16.3357 57.7651 14.3491 56.9516C12.4794 56.1861 11.2553 54.0033 11.5267 51.9838C11.5525 51.7891 11.5854 51.5953 11.6171 51.3883ZM13.6732 56.0496C13.6651 55.451 13.9539 54.8876 13.4332 54.4469C13.4029 54.4213 13.4 54.3615 13.3872 54.3168C13.2167 53.7236 13.5406 53.0766 14.112 52.8687C14.7479 52.6372 15.4712 52.9507 15.7384 53.5738C15.9842 54.147 15.7491 54.7925 15.1749 55.079C15.0199 55.1564 14.8896 55.2302 14.8697 55.4185C14.8341 55.7532 14.8062 56.0873 14.8468 56.4244C14.8697 56.6149 14.9488 56.7229 15.1463 56.7908C16.6141 57.2959 18.6666 56.6909 19.6783 55.4549C19.7997 55.3066 19.7613 55.2116 19.6792 55.0878C19.4604 54.7573 19.2238 54.441 18.9456 54.158C18.1171 53.3156 17.1625 52.6565 16.1078 52.1249C15.0239 51.5786 13.9009 51.2168 12.6794 51.2106C12.1609 51.208 12.1587 51.2108 12.055 51.6967C12.0212 51.8553 11.9862 52.016 11.9766 52.1775C11.8854 53.7274 12.4458 54.9934 13.6732 56.0496ZM20.5623 53.748C21.367 52.0329 20.1477 49.339 18.0617 48.4223C16.1074 47.5634 13.7908 48.4352 12.9481 49.8324C15.9102 50.297 18.4892 51.523 20.5623 53.748ZM20.2274 55.5671C20.654 55.4442 20.8133 55.1958 20.7319 54.8142C20.6823 54.582 20.5671 54.3786 20.4372 54.1845C20.0062 53.5401 19.4441 53.0216 18.8302 52.5627C17.4965 51.5655 16.0089 50.8678 14.418 50.4085C13.6483 50.1862 12.846 50.1439 12.0467 50.3104C11.7788 50.3662 11.5647 50.4808 11.4848 50.7623C11.4217 50.9844 11.4459 51.0919 11.7352 51.0249C12.2637 50.9024 12.8001 50.8361 13.3492 50.9119C14.1469 51.022 14.9112 51.2253 15.655 51.5453C17.2266 52.2217 18.5861 53.1734 19.6506 54.5253C19.8923 54.8324 20.1479 55.1386 20.2274 55.5671Z" fill="#59304D"/>
<path d="M70.1492 44.4111C67.724 44.7915 65.6122 45.7954 63.9146 47.6171C63.2557 46.2127 64.2541 44.007 65.962 43.2563C67.5624 42.5532 69.4593 43.2668 70.1492 44.4111Z" fill="#E8C152"/>
<path d="M64.6377 48.7145C64.8167 48.444 65.0106 48.1848 65.2383 47.9531C65.9166 47.2633 66.6984 46.7236 67.5618 46.2884C68.4493 45.8411 69.3688 45.5448 70.3691 45.5397C70.7937 45.5378 70.7955 45.54 70.8804 45.9377C70.9081 46.0676 70.9367 46.1993 70.9446 46.3313C71.0195 47.6002 70.5608 48.6369 69.5557 49.5017C69.5622 49.0115 69.3258 48.5502 69.7522 48.1892C69.777 48.1682 69.7794 48.1193 69.7899 48.0828C69.9296 47.5972 69.6642 47.0673 69.1965 46.8971C68.6759 46.7076 68.0836 46.9644 67.8648 47.4743C67.6635 47.9437 67.8561 48.4722 68.3263 48.7068C68.4532 48.7701 68.56 48.8306 68.5763 48.9848C68.6054 49.2588 68.6283 49.5323 68.5951 49.8083C68.5763 49.9645 68.5117 50.0528 68.3497 50.1084C67.1479 50.522 65.4673 50.0265 64.6388 49.0145C64.539 48.8936 64.5707 48.8159 64.6377 48.7145Z" fill="#E8C152"/>
<path d="M63.7758 48.4904C63.8164 48.3003 63.9107 48.1336 64.0171 47.9748C64.3701 47.4471 64.8303 47.0226 65.3328 46.6467C66.4248 45.8302 67.6428 45.2589 68.9457 44.8828C69.5762 44.7008 70.2329 44.6662 70.8874 44.8025C71.1066 44.8482 71.2821 44.942 71.3476 45.1726C71.3991 45.3544 71.3795 45.4425 71.1426 45.3877C70.7099 45.2876 70.2707 45.2331 69.8209 45.2951C69.1677 45.3853 68.5418 45.5518 67.933 45.8138C66.646 46.3677 65.533 47.147 64.6613 48.2538C64.4633 48.5053 64.2539 48.7559 64.1889 49.1068C63.8396 49.0062 63.709 48.8027 63.7758 48.4904Z" fill="#E8C152"/>
<path d="M71.2991 46.1522C71.5213 47.8057 70.519 49.593 68.988 50.2199C67.3611 50.886 65.8779 50.6387 64.5746 49.4384C64.4593 49.3322 64.3547 49.2916 64.2004 49.3015C63.7758 49.3284 63.3992 48.9942 63.5053 48.6063C63.6304 48.1489 63.588 47.7371 63.4452 47.3091C63.4099 47.2029 63.4072 47.0846 63.397 46.9712C63.2156 44.9843 64.4209 43.1608 66.6269 42.7218C68.0731 42.434 69.2939 42.8798 70.3016 43.9298C70.5599 44.199 70.7432 44.5173 71.1689 44.5915C71.4595 44.6424 71.618 44.9124 71.6294 45.213C71.639 45.4705 71.4294 45.5779 71.2248 45.6644C71.2508 45.8339 71.2777 45.9925 71.2991 46.1522ZM70.9301 46.3108C70.9223 46.1787 70.8937 46.0471 70.8659 45.9172C70.781 45.5194 70.7793 45.5172 70.3546 45.5192C69.3543 45.524 68.4348 45.8206 67.5473 46.2678C66.6837 46.7031 65.9021 47.2428 65.2238 47.9325C64.9961 48.164 64.8023 48.4232 64.6232 48.6937C64.5562 48.7949 64.5246 48.8728 64.6239 48.9942C65.4524 50.0061 67.1332 50.5016 68.3348 50.0881C68.4966 50.0324 68.5614 49.9439 68.5802 49.788C68.6134 49.512 68.5907 49.2384 68.5614 48.9644C68.545 48.8102 68.4383 48.7497 68.3114 48.6864C67.8414 48.4521 67.6486 47.9233 67.8499 47.4539C68.0687 46.9438 68.661 46.6871 69.1816 46.8768C69.6495 47.047 69.9147 47.5768 69.775 48.0624C69.7645 48.099 69.7621 48.1478 69.7373 48.1689C69.3109 48.5298 69.5475 48.9911 69.5408 49.4813C70.5463 48.6164 71.0052 47.5799 70.9301 46.3108ZM70.1348 44.3905C69.4449 43.2462 67.548 42.5324 65.9478 43.2357C64.2397 43.9863 63.2413 46.1921 63.9002 47.5965C65.5978 45.7748 67.7095 44.7707 70.1348 44.3905ZM64.647 48.2333C65.5188 47.1265 66.6317 46.3469 67.9187 45.7932C68.5276 45.5312 69.1535 45.3647 69.8067 45.2745C70.2564 45.2123 70.6954 45.2668 71.1283 45.3672C71.3652 45.4219 71.3849 45.3339 71.3333 45.1521C71.2679 44.9216 71.0923 44.8277 70.8731 44.7819C70.2186 44.6456 69.5617 44.6803 68.9314 44.8623C67.6288 45.2384 66.4106 45.8098 65.3186 46.6262C64.8158 47.002 64.3556 47.4265 64.0028 47.9542C63.8965 48.1132 63.8022 48.2797 63.7616 48.4698C63.6948 48.7822 63.8253 48.9856 64.1746 49.0862C64.2395 48.7353 64.4488 48.4847 64.647 48.2333Z" fill="#59304D"/>
<path d="M69.8818 49.8627C67.6799 51.4884 66.1069 53.569 65.362 56.2441C63.9919 55.1958 63.8491 52.5014 65.1529 50.8794C66.3741 49.3595 68.6142 49.0875 69.8818 49.8627Z" fill="#E8C152"/>
<path d="M66.6382 56.9557C66.6767 56.5961 66.7356 56.2401 66.8421 55.8938C67.1594 54.8626 67.6556 53.9262 68.2861 53.0512C68.9342 52.1518 69.6911 51.385 70.6771 50.8645C71.0956 50.6437 71.0984 50.6451 71.3861 50.9942C71.48 51.1083 71.5756 51.2237 71.6509 51.3501C72.3747 52.5656 72.4519 53.8263 71.9016 55.1991C71.6571 54.7113 71.1873 54.3772 71.4237 53.8009C71.4374 53.7674 71.4147 53.7179 71.4064 53.6763C71.2958 53.1243 70.7624 52.7375 70.2129 52.8105C69.6012 52.8915 69.1475 53.4503 69.1923 54.0673C69.2336 54.6348 69.6946 55.058 70.2793 55.0475C70.4371 55.0446 70.5736 55.0495 70.6685 55.1934C70.8375 55.4492 71.0004 55.7077 71.1087 55.9974C71.17 56.1613 71.1512 56.282 71.0198 56.4204C70.0439 57.4486 68.1293 57.8251 66.7926 57.2519C66.6326 57.1835 66.6238 57.0904 66.6382 56.9557Z" fill="#E8C152"/>
<path d="M65.672 57.1785C65.6148 56.9697 65.6226 56.7564 65.6464 56.5446C65.725 55.8413 65.9625 55.1846 66.2669 54.554C66.9279 53.1844 67.8392 51.9919 68.934 50.9489C69.4639 50.444 70.0952 50.0714 70.8117 49.8688C71.0519 49.8009 71.2732 49.8033 71.456 49.9974C71.6001 50.1505 71.6256 50.2477 71.3634 50.3156C70.8844 50.4396 70.4225 50.6122 70.0099 50.9053C69.4106 51.3311 68.8772 51.8182 68.4096 52.391C67.4213 53.6016 66.7205 54.9454 66.4258 56.4885C66.3588 56.839 66.2802 57.1947 66.3957 57.5749C65.999 57.6553 65.7658 57.5215 65.672 57.1785Z" fill="#E8C152"/>
<path d="M71.9097 50.9905C72.9759 52.5102 72.9004 54.793 71.7084 56.2014C70.4418 57.6978 68.8494 58.2181 66.9468 57.7035C66.7785 57.658 66.6542 57.6718 66.5067 57.7612C66.1008 58.0067 65.5576 57.8702 65.4638 57.4321C65.3531 56.9157 65.1005 56.5308 64.7403 56.1812C64.651 56.0945 64.5879 55.9788 64.5196 55.8722C63.323 54.002 63.5806 51.5791 65.536 50.0083C66.8178 48.9786 68.2525 48.7901 69.7859 49.3085C70.1789 49.4412 70.5232 49.6614 70.9819 49.5155C71.2949 49.4158 71.5901 49.6011 71.7551 49.8925C71.8966 50.1419 71.7444 50.3562 71.5866 50.5472C71.6988 50.7009 71.8069 50.844 71.9097 50.9905ZM71.6261 51.3374C71.5508 51.2111 71.4552 51.0956 71.3613 50.9815C71.0738 50.6324 71.0709 50.6308 70.6522 50.8518C69.6661 51.3723 68.9092 52.1389 68.2612 53.0383C67.6307 53.9133 67.1345 54.8495 66.8173 55.8809C66.7108 56.2272 66.6521 56.5832 66.6134 56.9428C66.599 57.0775 66.6075 57.1706 66.768 57.2394C68.1047 57.8126 70.0193 57.4359 70.9952 56.4077C71.1266 56.2693 71.1454 56.1486 71.084 55.9848C70.9758 55.695 70.8129 55.4363 70.6439 55.1807C70.5487 55.0365 70.4123 55.032 70.2544 55.0348C69.6698 55.0453 69.2087 54.6221 69.1675 54.0546C69.1225 53.4378 69.5764 52.8788 70.1881 52.7978C70.7376 52.725 71.2709 53.1117 71.3816 53.6636C71.3899 53.7052 71.4126 53.7547 71.3988 53.7883C71.1624 54.3645 71.6322 54.6986 71.8767 55.1864C72.4271 53.8137 72.3498 52.5529 71.6261 51.3374ZM69.8569 49.8495C68.5894 49.0744 66.3492 49.3466 65.128 50.8663C63.8244 52.4883 63.967 55.1826 65.3372 56.231C66.082 53.5559 67.655 51.4754 69.8569 49.8495ZM66.4012 56.4754C66.6959 54.9323 67.3969 53.5885 68.3852 52.3779C68.8529 51.8051 69.3862 51.318 69.9855 50.8922C70.3981 50.5991 70.86 50.4265 71.339 50.3025C71.6012 50.2346 71.5757 50.1373 71.4316 49.9842C71.2489 49.7902 71.0275 49.7878 70.7874 49.8557C70.0708 50.0583 69.4395 50.4311 68.9096 50.9357C67.8148 51.9788 66.9035 53.1712 66.2425 54.5409C65.9382 55.1715 65.7006 55.8281 65.622 56.5313C65.5983 56.7431 65.5904 56.9564 65.6476 57.1651C65.7415 57.5084 65.9746 57.642 66.3715 57.5614C66.2556 57.1814 66.3342 56.8259 66.4012 56.4754Z" fill="#59304D"/>
<path d="M20.0755 40.7393C20.0722 41.0295 20.0746 41.0309 20.0235 41.1213C19.2804 42.4382 18.8219 43.8683 18.4379 45.3174C18.1131 46.5432 17.955 47.8046 17.8456 49.0704C17.738 50.3172 17.6823 51.563 17.8118 52.8109C17.9441 54.0846 18.1746 55.3419 18.427 56.5965C18.8071 58.487 19.4192 60.282 20.5298 61.8757C21.09 62.6798 21.6853 63.4443 22.5108 64.0182C24.1427 65.1528 26.039 65.3803 27.9158 65.673C29.1429 65.8642 30.3902 65.901 31.6186 66.097C32.9942 66.3163 34.2032 66.8332 35.097 67.9617C35.4933 68.462 35.9137 68.9388 36.2901 69.4593C37.0326 70.4865 37.9558 71.3388 39.0492 72.0012C40.7625 73.0392 42.5064 73.1824 44.3083 72.2498C45.4988 71.6334 46.4646 70.7461 47.3104 69.7234C47.6942 69.2593 48.0404 68.7623 48.4035 68.281C49.4507 66.8928 50.8641 66.2273 52.5381 66.0333C54.4396 65.8131 56.3486 65.6682 58.2282 65.2651C59.7436 64.9403 61.1045 64.3484 62.1965 63.2305C62.8004 62.6124 63.2833 61.8946 63.7252 61.1492C64.567 59.7292 65.0342 58.1793 65.3678 56.575C65.7791 54.5978 66.0952 52.6146 66.0358 50.5833C65.9963 49.2292 65.8413 47.8913 65.6112 46.5587C65.2861 44.6774 64.674 42.8946 63.8119 41.1958C63.7523 41.0782 63.6516 40.9741 63.7267 40.7698C64.1815 41.2256 64.4367 41.7692 64.741 42.28C64.7713 42.2544 64.7997 42.2426 64.8045 42.2246C64.8408 42.0904 64.8781 41.9559 64.9045 41.8194C65.3903 39.3035 65.5173 36.7533 65.5992 34.2015C65.6625 32.2271 65.4627 30.2615 65.2396 28.3037C65.0209 26.3836 64.5709 24.5015 64.1773 22.6112C63.709 20.363 63.0058 18.1818 62.3188 15.9956C61.5021 13.3961 60.6878 10.7954 59.5292 8.32119C59.2449 7.71402 58.9622 7.10488 58.5852 6.56036C58.4573 6.58686 58.4276 6.66856 58.3813 6.73274C57.5899 7.83143 56.94 9.02014 56.3187 10.2152C54.8961 12.951 53.5218 15.7117 52.3026 18.548C51.1354 21.2626 49.9131 23.9539 49.0722 26.7965C48.8613 27.5095 48.6393 28.2192 48.4166 28.9284C48.3655 29.0909 48.303 29.3205 48.0817 29.2302C47.6815 29.0671 47.2497 29.034 46.8497 28.8798C46.7342 28.8351 46.6035 28.8279 46.5602 28.6413C47.094 28.6165 47.5887 28.841 48.1116 28.7935C48.1983 28.4325 48.2812 28.0864 48.3773 27.6858C44.0317 26.5589 39.7345 26.5604 35.409 27.6887C35.4917 28.0177 35.576 28.2722 35.6151 28.5337C35.6483 28.7567 35.7376 28.8443 35.9583 28.7961C36.0598 28.774 36.1635 28.7506 36.2665 28.7499C36.5855 28.7479 36.8966 28.5755 37.2468 28.6702C37.1365 28.8748 36.9573 28.8785 36.811 28.924C36.5357 29.0099 36.2519 29.0673 35.9731 29.1422C35.4863 29.2732 35.4791 29.2773 35.3234 28.7652C34.8534 27.2195 34.4205 25.6593 33.8284 24.156C31.7367 18.8446 29.4049 13.6442 26.6013 8.6664C26.187 7.93043 25.7936 7.17979 25.2386 6.51545C24.8343 7.09875 24.5409 7.72038 24.2514 8.34288C22.7885 11.4891 21.8657 14.8275 20.806 18.117C20.0591 20.435 19.5651 22.8151 19.0704 25.1954C18.5785 27.5625 18.3039 29.9581 18.231 32.371C18.146 35.1852 18.2908 37.9924 18.7152 40.7792C18.7916 41.2817 18.8477 41.7925 19.0289 42.3309C19.3459 41.7607 19.6258 41.2425 20.0755 40.7393Z" fill="#FFFDFA"/>
<path d="M66.458 49.0448C66.2825 47.3126 66.0225 45.6 65.3868 43.9727C65.1364 43.3318 64.9729 42.7277 65.3195 42.0838C65.33 42.0645 65.3261 42.0378 65.3309 42.015C65.8821 39.4157 66.0064 36.7741 66.0932 34.1299C66.1277 33.0789 66.0413 32.0311 65.9655 30.9825C65.8647 29.5879 65.78 28.1898 65.5171 26.8167C64.9292 23.7469 64.3659 20.6698 63.372 17.6951C62.443 14.9157 61.6672 12.0829 60.4994 9.38725C60.0599 8.37267 59.6085 7.36115 58.9967 6.43463C58.7204 6.01627 58.4889 6.02393 58.1909 6.41645C57.4491 7.39401 56.8466 8.46225 56.2567 9.53028C54.8099 12.1486 53.4834 14.831 52.2648 17.5641C51.1796 19.9981 50.0596 22.4193 49.2217 24.956C48.9713 25.7143 48.7427 26.48 48.5124 27.2164C44.0909 26.0511 39.7048 26.05 35.2852 27.216C35.2621 27.1448 35.225 27.0368 35.192 26.9275C34.7868 25.5912 34.3812 24.2537 33.8527 22.9608C32.2397 19.0146 30.478 15.1372 28.5118 11.3533C27.6305 9.65688 26.7053 7.99088 25.6026 6.42827C25.3068 6.00904 25.0714 6.0178 24.783 6.45215C24.3759 7.06523 24.0486 7.723 23.746 8.3915C21.9508 12.3578 20.7016 16.5178 19.5786 20.7069C18.7822 23.6777 18.1528 26.6999 17.9238 29.7886C17.8186 31.2084 17.6952 32.6249 17.7228 34.0497C17.7596 35.9623 17.8144 37.875 18.0895 39.771C18.2378 40.7928 18.3255 41.8303 18.7111 42.8046C18.7506 42.9043 18.7621 42.9954 18.718 43.104C18.052 44.7525 17.6298 46.4619 17.4184 48.2289C17.2728 49.448 17.1936 50.6692 17.2265 51.8953C17.2671 53.4016 17.5184 54.8814 17.8009 56.3589C18.2698 58.8105 19.1269 61.0749 20.7348 63.0292C21.8493 64.3837 23.2308 65.2901 24.9075 65.7249C26.8579 66.2309 28.8611 66.4109 30.8626 66.5863C31.5931 66.6503 32.3149 66.7754 33.0006 67.0411C33.9684 67.4161 34.5993 68.1772 35.1621 69.0065C36.1707 70.4922 37.3647 71.7808 38.9747 72.6291C40.5879 73.479 42.2697 73.5493 43.973 72.9956C45.0131 72.6574 45.8992 72.0321 46.7033 71.2851C47.5383 70.5093 48.2103 69.6067 48.8633 68.679C49.3986 67.9183 50.0502 67.2656 50.9709 66.9712C51.5804 66.7762 52.2076 66.6558 52.8436 66.5892C54.4021 66.4258 55.9652 66.3174 57.5107 66.0271C59.0349 65.7409 60.4987 65.3247 61.7313 64.3355C63.2196 63.1413 64.3033 61.6114 64.9676 59.8475C66.2768 56.372 66.8357 52.7701 66.458 49.0448ZM65.3678 56.575C65.0342 58.1793 64.567 59.7292 63.7252 61.1492C63.2833 61.8946 62.8004 62.6124 62.1965 63.2305C61.1045 64.3484 59.7436 64.9403 58.2282 65.2651C56.3486 65.6682 54.4396 65.8131 52.5381 66.0333C50.8641 66.2273 49.4507 66.8928 48.4035 68.281C48.0404 68.7623 47.6942 69.2593 47.3104 69.7234C46.4646 70.7461 45.4988 71.6334 44.3083 72.2498C42.5064 73.1824 40.7625 73.0392 39.0492 72.0012C37.9558 71.3388 37.0326 70.4865 36.2901 69.4593C35.9137 68.9388 35.4933 68.462 35.097 67.9617C34.2032 66.8332 32.9942 66.3163 31.6186 66.097C30.3902 65.901 29.1429 65.8642 27.9158 65.673C26.039 65.3803 24.1427 65.1528 22.5108 64.0182C21.6853 63.4443 21.09 62.6798 20.5298 61.8757C19.4192 60.282 18.8071 58.487 18.427 56.5965C18.1746 55.3419 17.9441 54.0846 17.8118 52.8109C17.6823 51.563 17.738 50.3172 17.8456 49.0704C17.955 47.8046 18.1131 46.5432 18.4379 45.3174C18.8219 43.8683 19.2804 42.4382 20.0235 41.1213C20.0746 41.0309 20.0722 41.0295 20.0755 40.7393C19.6258 41.2425 19.3459 41.7607 19.0289 42.3309C18.8477 41.7925 18.7916 41.2817 18.7152 40.7792C18.2908 37.9924 18.146 35.1852 18.231 32.371C18.3039 29.9581 18.5785 27.5625 19.0704 25.1954C19.5651 22.8151 20.0591 20.435 20.806 18.117C21.8657 14.8275 22.7885 11.4891 24.2514 8.34288C24.5409 7.72038 24.8343 7.09875 25.2386 6.51545C25.7936 7.17979 26.187 7.93043 26.6013 8.6664C29.4049 13.6442 31.7367 18.8446 33.8284 24.156C34.4205 25.6593 34.8534 27.2195 35.3234 28.7652C35.4791 29.2773 35.4863 29.2732 35.9731 29.1422C36.2519 29.0673 36.5357 29.0099 36.811 28.924C36.9573 28.8785 37.1365 28.8748 37.2468 28.6702C36.8966 28.5755 36.5855 28.7479 36.2665 28.7499C36.1635 28.7506 36.0598 28.774 35.9583 28.7961C35.7376 28.8443 35.6483 28.7567 35.6151 28.5337C35.576 28.2722 35.4917 28.0177 35.409 27.6887C39.7345 26.5604 44.0317 26.5589 48.3773 27.6858C48.2812 28.0864 48.1983 28.4325 48.1116 28.7935C47.5887 28.841 47.094 28.6165 46.5602 28.6413C46.6035 28.8279 46.7342 28.8351 46.8497 28.8798C47.2497 29.034 47.6815 29.0671 48.0817 29.2302C48.303 29.3205 48.3655 29.0909 48.4166 28.9284C48.6393 28.2192 48.8613 27.5095 49.0722 26.7965C49.9131 23.9539 51.1354 21.2626 52.3026 18.548C53.5218 15.7117 54.8961 12.951 56.3187 10.2152C56.94 9.02014 57.5899 7.83143 58.3813 6.73274C58.4276 6.66856 58.4573 6.58686 58.5852 6.56036C58.9622 7.10488 59.2449 7.71402 59.5292 8.32119C60.6878 10.7954 61.5021 13.3961 62.3188 15.9956C63.0058 18.1818 63.709 20.363 64.1773 22.6112C64.5709 24.5015 65.0209 26.3836 65.2396 28.3037C65.4627 30.2615 65.6625 32.2271 65.5992 34.2015C65.5173 36.7533 65.3903 39.3035 64.9045 41.8194C64.8781 41.9559 64.8408 42.0904 64.8045 42.2246C64.7997 42.2426 64.7713 42.2544 64.741 42.28C64.4367 41.7692 64.1815 41.2256 63.7267 40.7698C63.6516 40.9741 63.7523 41.0782 63.8119 41.1958C64.674 42.8946 65.2861 44.6774 65.6112 46.5587C65.8413 47.8913 65.9963 49.2292 66.0358 50.5833C66.0952 52.6146 65.7791 54.5978 65.3678 56.575Z" fill="#4C1C3C"/>
<path d="M62.1664 31.0507C62.047 29.3799 61.8868 27.7108 61.706 26.0444C61.5327 24.4248 61.3606 22.8068 61.1218 21.1975C60.759 18.7579 60.2156 16.355 59.496 13.9973C59.2659 13.2432 59.0662 12.4744 58.7136 11.7625C58.6684 11.6705 58.6291 11.5623 58.4994 11.5592C58.3625 11.5548 58.3363 11.6762 58.294 11.7653C58.2285 11.9014 58.1774 12.0446 58.1235 12.1863C55.998 17.7744 54.0327 23.4236 51.9784 29.0395C51.7891 29.5599 51.6666 30.1095 51.3695 30.5918C51.4073 30.7394 51.5269 30.8126 51.642 30.8914C53.0566 31.8738 54.4683 32.8604 55.8842 33.8397C57.9165 35.2472 59.8715 36.7513 61.6519 38.4747C61.7364 38.5566 61.8106 38.6574 61.9462 38.5989C62.0671 38.5463 62.0889 38.4322 62.1151 38.3124C62.2959 37.4748 62.2607 36.6184 62.3103 35.772C62.4024 34.1963 62.28 32.622 62.1664 31.0507Z" fill="#ED5F77"/>
<path d="M32.2295 30.2161C31.2111 27.3921 30.1987 24.5667 29.1788 21.7414C28.0178 18.5242 26.8653 15.3028 25.6357 12.1103C25.56 11.9114 25.5687 11.5636 25.2847 11.5783C25.0356 11.5914 24.9948 11.913 24.9175 12.1235C24.3566 13.6508 23.9181 15.2178 23.5364 16.8008C23.0629 18.7682 22.6972 20.7561 22.4715 22.7689C22.3215 24.1107 22.1408 25.4481 22.0008 26.7915C21.8814 27.9491 21.81 29.1126 21.7006 30.2718C21.5607 31.7481 21.5127 33.2272 21.5157 34.7079C21.5157 35.3598 21.4996 36.0147 21.5216 36.6666C21.5391 37.1782 21.5958 37.6884 21.6541 38.197C21.6716 38.349 21.676 38.5404 21.8683 38.6033C22.0388 38.6618 22.1146 38.5097 22.2091 38.4147C22.7743 37.8417 23.3878 37.3199 24.001 36.7995C26.5025 34.6773 29.2792 32.9364 31.9452 31.0406C32.4087 30.7116 32.4116 30.7247 32.2295 30.2161Z" fill="#ED5F77"/>
<path d="M61.3549 26.7987C60.9689 26.8191 60.7299 26.5823 60.6528 26.1337C60.5873 25.7609 60.7519 25.5272 61.1947 25.3927C61.2499 25.8779 61.3023 26.3368 61.3549 26.7987Z" fill="#E8C152"/>
<path d="M60.9207 23.0159C60.5273 22.9969 60.2243 22.7192 60.1601 22.3363C60.0858 21.9021 60.2125 21.7019 60.7109 21.5133C60.7838 22.0307 60.8508 22.5218 60.9207 23.0159Z" fill="#E8C152"/>
<path d="M60.2841 18.9789C59.6051 18.6514 59.4639 18.0068 59.9651 17.5069C60.0728 18.0024 60.1734 18.4644 60.2841 18.9789Z" fill="#E8C152"/>
<path d="M23.8204 17.517C24.3463 17.9715 24.1992 18.6819 23.513 18.9611C23.618 18.4687 23.7169 18.0024 23.8204 17.517Z" fill="#E8C152"/>
<path d="M23.0672 21.5469C23.4663 21.6156 23.6617 21.813 23.6689 22.1402C23.6776 22.5481 23.3862 22.9106 22.8998 23.0464C22.8983 22.5205 23.0295 22.0395 23.0672 21.5469Z" fill="#E8C152"/>
<path d="M22.585 25.4335C22.9579 25.4554 23.1648 25.6818 23.1459 26.0299C23.1197 26.5225 22.8631 26.8162 22.4435 26.8075C22.4905 26.3486 22.537 25.891 22.585 25.4335Z" fill="#E8C152"/>
<path d="M51.3695 30.5918C51.6658 30.1088 51.788 29.5599 51.9784 29.0395C54.0323 23.4238 55.9975 17.7755 58.1235 12.1863C58.1774 12.0446 58.2285 11.9014 58.294 11.7653C58.3363 11.6762 58.3625 11.5548 58.4994 11.5592C58.6291 11.5623 58.6684 11.6705 58.7136 11.7625C59.0662 12.4744 59.2659 13.2432 59.496 13.9973C60.2162 16.3563 60.7601 18.7583 61.1218 21.1975C61.3604 22.807 61.5311 24.4259 61.706 26.0444C61.8868 27.7108 62.047 29.3799 62.1664 31.0507C62.28 32.622 62.4024 34.1963 62.3103 35.772C62.2607 36.6184 62.2959 37.4748 62.1151 38.3124C62.0889 38.4322 62.0671 38.5463 61.9462 38.5989C61.8099 38.6585 61.737 38.5573 61.6519 38.4747C59.8713 36.7524 57.9167 35.2468 55.8842 33.8397C54.4683 32.8604 53.0566 31.8738 51.642 30.8914C51.5273 30.811 51.4064 30.7394 51.3695 30.5918ZM58.4991 12.157C56.3393 18.3862 54.0653 24.4712 51.8859 30.5646C55.2527 32.9675 58.8006 35.0739 61.7164 38.0309C62.0999 37.0959 61.8674 29.9158 61.376 27.2683C60.744 27.214 60.4265 26.9474 60.3078 26.3712C60.1711 25.7075 60.3471 25.4192 61.1538 25.0127C61.0924 24.4809 61.0302 23.9405 60.9686 23.4058C60.146 23.2083 59.8358 22.9145 59.805 22.3163C59.7703 21.6395 59.9109 21.4461 60.6669 21.171C60.5661 20.5857 60.4634 19.9924 60.3621 19.3988C60.3414 19.2768 60.2486 19.2801 60.1561 19.2557C59.6723 19.1278 59.4182 18.782 59.3529 18.3084C59.2981 17.9104 59.3872 17.537 59.7504 17.2984C59.8731 17.2178 59.8958 17.1331 59.8644 17.0071C59.4625 15.406 59.0468 13.8085 58.4991 12.157ZM60.7109 21.5133C60.2125 21.7019 60.0858 21.9021 60.1601 22.3363C60.2243 22.7192 60.5273 22.9969 60.9207 23.0159C60.8519 22.5214 60.7829 22.0309 60.7109 21.5133ZM61.1947 25.3927C60.7522 25.5276 60.5882 25.762 60.6528 26.1337C60.7312 26.5834 60.9685 26.8197 61.3549 26.7987C61.3023 26.3368 61.2499 25.8779 61.1947 25.3927ZM60.2841 18.9789C60.1727 18.465 60.0733 18.0031 59.9657 17.5061C59.4633 18.0068 59.6045 18.6521 60.2841 18.9789Z" fill="#4C1C3C"/>
<path d="M21.5157 34.7079C21.5118 33.2283 21.5605 31.7476 21.7006 30.2718C21.81 29.1126 21.8814 27.9491 22.0008 26.7915C22.1399 25.449 22.3213 24.1103 22.4715 22.7689C22.6972 20.7561 23.0629 18.7682 23.5364 16.8008C23.9178 15.2187 24.3556 13.6521 24.9175 12.1235C24.9948 11.913 25.0367 11.5908 25.2847 11.5783C25.5687 11.5636 25.56 11.9114 25.6357 12.1103C26.8653 15.3028 28.0178 18.5242 29.1788 21.7414C30.1976 24.5654 31.2117 27.3916 32.2295 30.2161C32.4127 30.7241 32.4083 30.7112 31.9452 31.0406C29.2792 32.9364 26.5025 34.6773 24.001 36.7995C23.3878 37.3199 22.7743 37.8417 22.2091 38.4147C22.1152 38.51 22.0401 38.6609 21.8683 38.6033C21.6766 38.5391 21.6714 38.3488 21.6541 38.197C21.5958 37.6884 21.5391 37.1782 21.5216 36.6666C21.4998 36.0149 21.5157 35.3609 21.5157 34.7079ZM31.9095 30.5668C29.7218 24.4539 27.4478 18.375 25.2935 12.1519C24.7329 13.8731 24.2844 15.5275 23.8921 17.2031C24.4085 17.4607 24.5115 17.9084 24.4257 18.3962C24.3484 18.8356 24.0864 19.167 23.619 19.2551C23.4236 19.2919 23.4228 19.4316 23.3998 19.5609C23.3044 20.0979 23.218 20.6366 23.1285 21.1728C23.828 21.4279 24.0537 21.7037 24.0148 22.2471C23.969 22.8894 23.6354 23.2199 22.8314 23.4052C22.7654 23.9488 22.6986 24.4995 22.6325 25.0447C23.3018 25.2799 23.562 25.5925 23.5295 26.1028C23.4841 26.8154 23.1652 27.1549 22.3766 27.2937C22.0821 30.852 21.6215 34.4129 22.0201 38.0809C24.9907 35.0827 28.5374 32.9637 31.9095 30.5668ZM22.8998 23.0464C23.3871 22.9097 23.6779 22.5492 23.6689 22.1402C23.6617 21.813 23.4663 21.6156 23.0672 21.5469C23.0295 22.0395 22.8983 22.5205 22.8998 23.0464ZM22.4435 26.8075C22.8631 26.8162 23.1197 26.5225 23.1459 26.0299C23.1648 25.6818 22.9579 25.4554 22.585 25.4335C22.5381 25.8906 22.4905 26.3484 22.4435 26.8075ZM23.8204 17.517C23.7176 18.0013 23.6176 18.4687 23.513 18.9611C24.1981 18.6825 24.3466 17.9711 23.8204 17.517Z" fill="#4C1C3C"/>
<path d="M61.6885 49.1843C60.3832 50.3901 58.8448 51.0522 57.076 51.1589C55.8698 51.2321 54.6606 51.2421 53.4557 51.3622C51.776 51.5302 50.3467 52.232 49.1711 53.4056C47.9852 54.5882 47.1344 56.0016 46.5954 57.5977C46.2472 58.6268 46.0492 59.6849 45.8946 60.7549C45.7942 61.4683 45.6702 62.1787 45.7446 62.905C45.7562 63.0233 45.7287 63.1462 45.8787 63.1856C46.0142 63.2206 46.1 63.1299 46.1701 63.0351C46.3465 62.7968 46.5838 62.6303 46.8198 62.4592C47.6662 61.8481 48.6146 61.439 49.5704 61.0414C50.915 60.4816 52.3427 60.2082 53.7281 59.7859C55.8405 59.1413 57.7359 58.1006 59.324 56.5571C60.7399 55.1831 61.5617 53.4627 62.0468 51.5611C62.2987 50.5715 62.4723 49.5746 62.4998 48.5046C62.1546 48.6772 61.9376 48.9534 61.6885 49.1843ZM47.6226 60.5225C47.5263 60.5985 47.4564 60.8018 47.2554 60.6526C47.0543 60.5022 47.2307 60.3821 47.2728 60.2608C47.8003 58.7247 48.5535 57.2922 49.3881 55.9109C50.4006 54.2388 51.9725 53.3399 53.8345 52.9217C54.8439 52.6952 55.8739 52.78 56.8939 52.8486C58.2955 52.9421 59.5615 52.5899 60.7109 51.7917C60.7399 51.7713 60.772 51.7567 60.8041 51.7448C60.8244 51.7376 60.8493 51.7405 60.9497 51.7332C60.6526 52.6175 60.3278 53.4375 59.8265 54.1845C58.7426 55.7981 57.1502 56.703 55.4107 57.403C54.0617 57.9466 52.6324 58.2187 51.2398 58.6147C49.9114 58.9936 48.7109 59.6602 47.6226 60.5225Z" fill="#DB394F"/>
<path d="M38.0685 62.9081C38.0582 62.4316 38.08 61.9566 38.0058 61.4786C37.8063 60.1924 37.6386 58.9032 37.2221 57.6608C36.6758 56.0296 35.8074 54.5868 34.5997 53.3751C33.0379 51.8068 31.0639 51.2733 28.9106 51.2395C27.8894 51.2235 26.8624 51.2235 25.8512 51.0553C24.2486 50.7907 22.9112 50.0131 21.7692 48.873C21.6366 48.7414 21.5303 48.5559 21.2622 48.5324C21.2987 48.7267 21.3526 48.8715 21.3496 49.0163C21.3321 49.8539 21.5257 50.6578 21.7224 51.4603C22.292 53.7799 23.3832 55.7751 25.2801 57.2808C26.8506 58.5275 28.6046 59.4076 30.5349 59.9221C32.1725 60.3591 33.8114 60.7816 35.3454 61.527C36.1934 61.9393 37.0339 62.3675 37.6779 63.0881C37.758 63.1788 37.8454 63.2094 37.9547 63.1729C38.0859 63.1273 38.07 63.0119 38.0685 62.9081ZM36.4368 60.7243C36.1805 60.5328 35.9211 60.3398 35.6603 60.1484C34.2938 59.1472 32.7364 58.6108 31.1047 58.2367C29.5516 57.8801 28.057 57.3625 26.6511 56.5836C24.9 55.6115 23.7023 54.1981 23.0426 52.3126C22.9799 52.1343 22.9188 51.956 22.862 51.7908C22.9799 51.6857 23.0441 51.7674 23.1024 51.8099C24.4878 52.8126 26.0525 52.9616 27.6916 52.8142C29.9992 52.6065 31.9996 53.298 33.6675 54.9248C33.9035 55.1528 34.1118 55.4071 34.2779 55.6877C35.1535 57.1831 35.9766 58.7032 36.5636 60.3416C36.6248 60.5125 36.6132 60.6292 36.4368 60.7243Z" fill="#DB394F"/>
<path d="M41.8785 66.2271C42.6856 66.2801 43.4761 66.3785 44.2337 66.665C44.9591 66.9394 45.3349 67.5904 45.1231 68.2177C45.0294 68.495 44.8587 68.7101 44.5885 68.8306C44.4193 68.9059 44.2466 68.9767 44.0697 69.0306C43.3624 69.2466 42.7125 69.5727 42.1422 70.0458C41.9648 70.1932 41.8121 70.1891 41.6482 70.0478C41.0371 69.5217 40.3167 69.21 39.5581 68.9723C39.1935 68.8582 38.8708 68.6939 38.706 68.3141C38.4316 67.6813 38.7887 66.9644 39.5365 66.6733C40.2909 66.3796 41.0834 66.2847 41.8785 66.2271Z" fill="#DB394F"/>
<path d="M26.2928 39.8474C26.2725 39.1513 26.6221 38.573 26.9947 38.0178C27.8787 36.7011 28.7231 36.456 31.2861 36.741C31.2551 36.5209 31.2265 36.3082 31.1953 36.0959C30.9207 34.2201 32.2035 33.1385 33.8919 33.347C35.3262 33.5242 36.4774 34.2168 37.2902 35.4242C37.7297 36.0769 37.8834 36.8126 37.7089 37.5882C37.5843 38.1422 37.2179 38.5047 36.682 38.681C35.9019 38.9375 35.1138 38.8808 34.5032 38.3516C34.0118 37.9256 33.4922 37.8046 32.9032 37.7716C32.7307 37.7619 32.5713 37.6476 32.3609 37.7225C32.5945 38.0528 32.8776 38.326 33.149 38.6085C33.6417 39.1215 34.1788 39.5981 34.6244 40.1492C35.9722 41.8159 36.3383 43.6803 35.588 45.7167C35.2996 46.4993 35.3791 47.1991 35.822 47.9086C36.2565 48.6043 36.7274 49.2649 37.2758 49.8718C37.4061 50.0162 37.5321 50.1647 37.6615 50.313C37.5223 50.4431 37.4458 50.3349 37.3707 50.2821C36.36 49.5724 35.5836 48.6557 35.0029 47.568C34.6733 46.9508 34.7822 46.328 34.9796 45.7029C35.1752 45.0832 35.4153 44.4756 35.423 43.8089C35.4369 42.5689 34.9625 41.5129 34.1971 40.5803C33.5983 39.8502 32.9571 39.1552 32.3356 38.4438C32.2589 38.356 32.1653 38.274 32.117 38.1718C31.6778 37.2367 30.789 37.1462 29.9463 37.082C28.133 36.944 26.8434 37.9832 26.4454 39.8121C26.4413 39.8312 26.416 39.8456 26.4007 39.8621C26.3647 39.8572 26.3289 39.8524 26.2928 39.8474ZM34.4674 37.7282C34.906 38.1391 35.4299 38.3638 35.9978 38.3849C36.694 38.4107 37.2465 38.0675 37.3889 37.4721C37.5611 36.7526 37.3906 36.0881 36.9612 35.4945C36.2667 34.5344 35.3009 33.9691 34.1705 33.729C33.4669 33.5796 32.7569 33.662 32.169 34.1776C31.3944 34.8568 31.5105 36.0473 31.7922 36.8109C31.8099 36.8586 31.8625 36.9116 31.9101 36.927C32.3886 37.0812 32.8805 37.1567 33.3983 37.1979C32.9706 36.0116 33.0451 35.4715 33.6531 35.2005C34.2423 34.9379 35.0523 35.2373 35.3917 35.8434C35.7768 36.532 35.5548 36.985 34.4674 37.7282ZM33.4837 36.0948C33.4944 36.4637 33.8648 37.1383 34.0563 37.1377C34.4748 37.1364 35.1328 36.6076 35.1302 36.2745C35.1271 35.8662 34.6062 35.4465 34.1124 35.4544C33.7382 35.4603 33.4732 35.7304 33.4837 36.0948Z" fill="#EACCD2"/>
<path d="M52.4684 36.7631C53.9303 36.4663 55.3244 36.3338 56.4232 37.5554C57.0109 38.2085 57.4632 38.9362 57.5148 39.9378C57.3248 39.7933 57.3327 39.6522 57.2897 39.5324C56.8773 38.3855 56.2232 37.4358 54.9808 37.1239C54.0405 36.8878 53.1162 37.1495 52.2191 37.4579C52.1713 37.4743 52.1309 37.5311 52.1004 37.5777C51.4596 38.5605 50.6313 39.3859 49.8581 40.2568C49.0745 41.1393 48.5381 42.135 48.3794 43.3213C48.2882 44.0032 48.47 44.6368 48.6739 45.2701C48.8235 45.7347 48.9922 46.1916 48.9872 46.694C48.9837 47.0298 48.9197 47.3398 48.7588 47.6322C48.1825 48.6794 47.4295 49.5711 46.4539 50.2661C46.389 50.3123 46.3148 50.346 46.2423 50.38C46.2271 50.387 46.2 50.3688 46.171 50.3598C46.1437 50.1916 46.286 50.1226 46.3744 50.028C47.0372 49.3185 47.6051 48.5438 48.0875 47.6968C48.4248 47.1047 48.4785 46.526 48.2674 45.8917C48.0768 45.3191 47.9065 44.7415 47.8478 44.1335C47.7229 42.8423 48.1233 41.6978 48.8023 40.6346C49.3092 39.8406 50.0382 39.242 50.68 38.5673C50.9341 38.3003 51.209 38.0511 51.4596 37.6798C50.9149 37.7527 50.4438 37.8699 49.9587 37.8469C49.8395 37.8412 49.779 37.9829 49.6948 38.0594C48.9488 38.7369 48.1004 38.9896 47.1202 38.6825C46.455 38.4742 46.0563 37.915 46.0369 37.2194C45.9884 35.4905 47.0289 34.5086 48.4071 33.7904C49.2239 33.3648 50.0997 33.1576 51.0287 33.4184C52.0327 33.7005 52.6023 34.4492 52.613 35.4966C52.616 35.9058 52.6138 36.3123 52.4684 36.7631ZM50.4052 37.1885C50.5722 37.24 50.7248 37.1504 50.885 37.1372C52.0008 37.0459 52.1877 36.8367 52.1931 35.7032C52.1934 35.6449 52.1931 35.5865 52.1925 35.5282C52.1803 34.495 51.4603 33.7625 50.4359 33.6918C49.4409 33.623 48.5914 33.9877 47.8087 34.5379C47.0235 35.0903 46.4342 35.7928 46.3445 36.805C46.2969 37.3425 46.3923 37.832 46.884 38.1512C47.5677 38.5949 48.8387 38.3417 49.3038 37.7024C48.3377 37.1517 48.0373 36.5914 48.3541 35.9317C48.6606 35.2932 49.4605 34.9442 50.0814 35.1782C50.7235 35.42 50.7981 35.8828 50.4052 37.1885ZM50.3019 36.0764C50.301 35.7076 50.041 35.4548 49.662 35.4544C49.1555 35.4537 48.6957 35.8346 48.689 36.2604C48.6831 36.6293 49.2553 37.1125 49.7275 37.1372C49.9288 37.1478 50.3028 36.4573 50.3019 36.0764Z" fill="#EACCD2"/>
<path d="M45.2944 57.8857C45.2012 57.3734 45.354 56.9145 45.4405 56.4552C45.8998 54.018 47.0348 51.9345 48.71 50.1191C49.559 49.1992 50.4846 48.3666 51.4083 47.5292C52.5573 46.4875 53.5354 45.3067 54.2942 43.9537C54.702 43.2262 54.9583 42.4465 54.9214 41.5881C54.8874 40.7932 54.5263 40.1735 53.9323 39.9624C53.2245 39.7109 52.4726 39.9267 51.9744 40.5726C51.3072 41.4378 50.9986 42.446 50.9424 43.5257C50.9232 43.8932 51.0291 44.263 51.1963 44.6005C51.4502 45.1128 52.0242 45.2289 52.4423 44.8471C52.9599 44.3744 53.29 43.7925 53.3417 43.0856C53.3849 42.4964 53.1282 42.0509 52.6032 41.767C52.5075 41.7153 52.3669 41.6847 52.4045 41.5252C52.4412 41.3697 52.5684 41.353 52.7027 41.3401C52.988 41.3127 53.2293 41.399 53.4349 41.5962C53.9106 42.052 54.0932 42.6169 53.9652 43.2521C53.7611 44.2664 53.2184 45.0366 52.1526 45.2177C51.5031 45.3281 51.0946 45.1492 50.8457 44.5705C50.5532 43.8904 50.5089 43.1967 50.6541 42.4848C50.847 41.5377 51.1302 40.6245 51.8751 39.9492C52.5645 39.3243 53.3491 39.1579 54.23 39.521C55.0448 39.8568 55.3286 40.5597 55.4663 41.3386C55.6991 42.6541 55.2672 43.8286 54.5859 44.9176C53.8102 46.1572 52.7658 47.1505 51.6384 48.0703C50.098 49.3269 48.6766 50.7066 47.5763 52.3813C46.848 53.4901 46.4417 54.7487 45.9738 55.9777C45.7712 56.51 45.6047 57.0523 45.4831 57.608C45.4604 57.7118 45.4549 57.8145 45.2944 57.8857Z" fill="#EACCD2"/>
<path d="M38.4521 57.8809C38.3237 57.7628 38.3178 57.6209 38.2794 57.4906C37.5923 55.1725 36.8424 52.8853 35.2031 51.0213C34.1063 49.7741 32.8827 48.6667 31.6108 47.6017C30.3336 46.5324 29.2119 45.3154 28.6083 43.7156C28.242 42.7446 28.1286 41.7574 28.4856 40.7459C28.9683 39.3775 30.519 38.8954 31.6942 39.7604C32.5513 40.3912 32.8711 41.3261 33.1036 42.2995C33.2649 42.9746 33.2547 43.6461 33.0488 44.3295C32.7733 45.2442 31.9701 45.4096 31.2542 45.1255C30.2631 44.7321 29.6333 43.5417 29.8361 42.4979C29.9651 41.834 30.5366 41.3066 31.0816 41.3388C31.2213 41.3471 31.3444 41.3752 31.3887 41.5164C31.4374 41.6724 31.2929 41.7046 31.1977 41.7624C30.5353 42.1654 30.3288 42.6892 30.5118 43.4549C30.6321 43.9583 30.889 44.3814 31.2385 44.7485C31.7507 45.2865 32.4438 45.1266 32.6801 44.4215C32.8654 43.8678 32.8953 43.3014 32.7591 42.7341C32.5508 41.8676 32.2928 41.0186 31.6302 40.3722C31.1728 39.926 30.6331 39.7598 29.9992 39.9286C29.5215 40.0557 29.2159 40.3461 29.0397 40.8061C28.6417 41.8452 28.9259 42.8125 29.3896 43.7298C30.1566 45.2469 31.2464 46.5214 32.5141 47.6411C33.8622 48.8321 35.1594 50.0711 36.2327 51.524C37.395 53.0974 38.0853 54.872 38.4189 56.7934C38.4606 57.0335 38.5082 57.2724 38.5424 57.5134C38.5595 57.6336 38.609 57.7688 38.4521 57.8809Z" fill="#EACCD2"/>
<path d="M40.1527 47.8379C40.1106 47.3544 40.0957 46.8693 40.0027 46.3911C39.8516 45.6144 39.4373 44.9733 38.9648 44.3622C38.3241 43.5333 37.5989 42.7667 37.1192 41.8194C36.9614 41.5075 36.8103 41.194 36.7042 40.8598C36.4603 40.0916 36.6747 39.4551 37.2725 38.9458C37.9095 38.4028 38.6764 38.0896 39.4331 37.7606C40.0571 37.4892 40.256 37.0746 40.1051 36.4177C40.0071 35.9906 39.8289 35.5959 39.5873 35.2413C38.5671 33.7452 37.2225 32.6538 35.5109 32.0411C34.9284 31.8326 34.3274 31.8337 33.7231 31.9268C33.621 31.9426 33.5177 31.9702 33.3647 31.8898C33.6341 31.6714 33.9408 31.6486 34.2294 31.6026C35.0917 31.4651 35.8873 31.7091 36.647 32.0849C38.0405 32.7742 39.2122 33.7314 40.0575 35.0522C40.3911 35.5735 40.6352 36.1358 40.6635 36.7782C40.6919 37.4246 40.4075 37.8767 39.873 38.188C39.3809 38.4747 38.8731 38.7345 38.3809 39.0207C37.1124 39.7585 36.9732 40.2441 37.6196 41.546C37.9696 42.2509 38.4439 42.8699 38.9079 43.4981C39.4772 44.2693 39.9874 45.0775 40.1309 46.0501C40.218 46.6402 40.2931 47.2368 40.1527 47.8379Z" fill="#EACCD2"/>
<path d="M43.6324 47.9016C43.4377 46.3381 43.7826 45.0026 44.662 43.8032C45.2469 43.0052 45.873 42.2355 46.2838 41.3206C46.7532 40.2758 46.617 39.7611 45.6407 39.1592C45.1565 38.8606 44.6539 38.591 44.15 38.3264C43.2172 37.8366 42.9268 37.1677 43.2338 36.1533C43.5966 34.9548 44.3843 34.062 45.3172 33.2802C46.2273 32.5175 47.2219 31.9088 48.3952 31.6403C49.0355 31.4938 49.6605 31.5774 50.2772 31.7678C50.3209 31.7814 50.3881 31.8136 50.3807 31.8911C50.3403 31.9774 50.2591 31.9542 50.1991 31.9417C49.0091 31.6953 47.9417 32.0405 46.9495 32.6579C45.6879 33.443 44.5814 34.3938 43.923 35.7731C43.8283 35.9713 43.7488 36.1805 43.6918 36.3925C43.5187 37.0378 43.7324 37.4897 44.345 37.7519C44.9764 38.0222 45.6038 38.3001 46.1764 38.6819C47.189 39.357 47.4145 40.1527 46.9401 41.2764C46.4744 42.379 45.7269 43.292 44.963 44.1856C44.0837 45.2142 43.6261 46.3747 43.6846 47.7336C43.6859 47.7656 43.6654 47.7982 43.6324 47.9016Z" fill="#EACCD2"/>
<path d="M31.2197 61.3487C31.1514 61.4179 31.0914 61.3695 31.03 61.3391C30.0031 60.8292 28.9418 60.9218 27.8664 61.14C26.9242 61.3312 25.9883 61.5625 25.0122 61.5373C22.8952 61.4823 21.1544 60.3195 20.4206 58.4233C20.2045 57.8649 20.0925 57.2825 20.2287 56.6782C20.4536 55.6809 21.2607 55.2198 22.2339 55.5628C23.1974 55.9026 23.749 56.6243 23.9353 57.6078C24.0879 58.413 23.3786 59.0486 22.5778 58.8659C22.3656 58.8175 22.1957 58.694 22.0837 58.5052C22.0115 58.3836 21.9506 58.252 22.0558 58.1144C22.1717 57.9628 22.2852 58.08 22.3959 58.1227C22.8791 58.3089 23.3085 58.0296 23.3205 57.5193C23.3393 56.7097 22.5843 55.8618 21.7818 55.7913C21.0585 55.7278 20.5243 56.2427 20.5335 57.0514C20.5475 58.2754 21.1153 59.2365 22.037 59.9973C23.0378 60.823 24.2252 60.9792 25.4593 60.8646C26.6129 60.7575 27.7413 60.4349 28.9152 60.4809C29.7022 60.5118 30.4128 60.7613 31.0903 61.1371C31.1697 61.1811 31.2599 61.2282 31.2197 61.3487Z" fill="#EACCD2"/>
<path d="M52.5645 61.3524C52.554 61.1849 52.6937 61.1496 52.797 61.0885C53.7925 60.4991 54.872 60.4123 55.9957 60.5203C57.0576 60.6222 58.0904 60.9376 59.173 60.8966C61.0706 60.8246 62.6028 59.7151 63.1193 58.011C63.2405 57.6115 63.264 57.208 63.2291 56.8015C63.1662 56.0704 62.5106 55.6382 61.7998 55.8415C61.0047 56.0688 60.4807 56.7478 60.4952 57.5324C60.5043 58.0327 60.9078 58.3041 61.3793 58.1308C61.4983 58.087 61.6378 57.9422 61.7393 58.1348C61.8229 58.2934 61.7668 58.4537 61.6542 58.5888C61.3763 58.9224 61.0001 58.9474 60.6307 58.8488C60.2262 58.7406 59.9363 58.473 59.8743 58.0268C59.73 56.9892 60.6595 55.7284 61.7251 55.5112C62.882 55.2752 63.6902 56.0314 63.6061 57.2711C63.4793 59.1467 62.0565 60.8211 60.1843 61.3275C59.0056 61.6464 57.8396 61.5443 56.6672 61.3001C55.9536 61.1514 55.2454 60.9696 54.5064 60.9619C53.9388 60.956 53.4021 61.0565 52.8852 61.2865C52.7874 61.3299 52.6961 61.4339 52.5645 61.3524Z" fill="#EACCD2"/>
<path d="M31.6701 49.6399C31.5243 49.7113 31.468 49.6616 31.4169 49.618C30.768 49.0662 30.0203 48.6527 29.3512 48.1309C28.2439 47.2677 27.3484 46.2516 27.0737 44.8112C27.0087 44.4704 26.9028 44.1326 27.0198 43.7787C27.0654 43.6411 27.1351 43.5401 27.2803 43.5419C27.4281 43.5436 27.4918 43.6479 27.525 43.7905C27.6143 44.1745 27.6992 44.5608 27.8182 44.9361C28.2452 46.2818 29.1237 47.3054 30.1594 48.2199C30.6702 48.6711 31.154 49.153 31.6701 49.6399Z" fill="#EACCD2"/>
<path d="M52.1311 49.6436C52.5671 49.2263 52.9867 48.8194 53.4122 48.4183C53.8525 48.0034 54.3125 47.6109 54.7112 47.1503C55.5237 46.2113 56.0145 45.1249 56.2407 43.9114C56.2745 43.7305 56.3033 43.5331 56.5277 43.5463C56.7633 43.5601 56.8032 43.7681 56.8028 43.9631C56.7998 45.0521 56.443 46.0172 55.7571 46.8552C55.2831 47.4342 54.7452 47.9456 54.1215 48.3673C53.5351 48.7635 52.9668 49.1867 52.3905 49.5982C52.328 49.6425 52.2791 49.7262 52.1311 49.6436Z" fill="#EACCD2"/>
<path d="M23.708 59.0574C24.113 59.2764 24.4944 59.4871 24.9441 59.587C25.6933 59.753 26.4149 59.6582 27.1379 59.4672C27.3004 59.4243 27.4813 59.384 27.5577 59.5826C27.6403 59.7975 27.5038 59.9379 27.3228 60.0277C26.3625 60.5039 24.3983 60.024 23.7431 59.1544C23.7231 59.1281 23.7191 59.09 23.708 59.0574Z" fill="#EACCD2"/>
<path d="M60.1061 59.0405C59.9422 59.3342 59.6961 59.4937 59.4556 59.6435C58.5758 60.1915 57.6342 60.3665 56.6225 60.0765C56.4941 60.0397 56.3806 59.9935 56.2966 59.8912C56.216 59.7933 56.1999 59.6779 56.2488 59.5622C56.3055 59.4286 56.4286 59.421 56.5461 59.4422C56.7164 59.4733 56.8827 59.5257 57.0526 59.5607C58.1005 59.7762 59.1052 59.748 59.9863 59.0302C59.9981 59.0203 60.0282 59.0328 60.1061 59.0405Z" fill="#EACCD2"/>
<path d="M41.9441 45.3509C41.7184 45.2655 41.7935 45.1089 41.7618 44.9965C41.4889 44.0253 41.1025 43.1091 40.4875 42.3006C40.381 42.1607 40.2745 42.0251 40.1208 41.9324C39.9022 41.8006 39.9129 41.6444 40.0843 41.4799C41.008 40.5934 41.4429 39.472 41.6376 38.2346C41.6466 38.1775 41.6625 38.1212 41.6782 38.0655C41.7147 37.9357 41.7132 37.7617 41.9147 37.7852C42.0712 37.8034 42.0939 37.942 42.1223 38.0706C42.2098 38.4675 42.2941 38.8655 42.3945 39.2591C42.6074 40.0925 43.0442 40.8026 43.6393 41.4107C43.8631 41.6394 43.8819 41.7653 43.6142 41.9878C43.084 42.4288 42.7997 43.0556 42.5037 43.6635C42.2461 44.1924 42.1092 44.7663 41.9441 45.3509Z" fill="#DB394F"/>
<path d="M24.2679 48.2716C24.2387 48.523 24.1053 48.6823 23.849 48.6972C23.5922 48.7121 23.3711 48.4578 23.3973 48.1899C23.4209 47.9481 23.5549 47.805 23.8042 47.8081C24.0675 47.8114 24.2773 48.0291 24.2679 48.2716Z" fill="#DB394F"/>
<path d="M59.5274 48.2578C59.5291 48.016 59.7459 47.8013 60.0022 47.8074C60.276 47.814 60.3842 47.9827 60.3823 48.2418C60.3799 48.5237 60.2188 48.6674 59.9594 48.6956C59.7221 48.7215 59.5254 48.509 59.5274 48.2578Z" fill="#DB394F"/>
<path d="M60.8041 51.7448C60.772 51.7567 60.7399 51.7713 60.7109 51.7917C59.5615 52.5899 58.2955 52.9421 56.8939 52.8486C55.8739 52.78 54.8439 52.6952 53.8345 52.9217C51.9725 53.3399 50.4006 54.2388 49.3881 55.9109C48.5535 57.2922 47.8003 58.7247 47.2728 60.2608C47.2307 60.3821 47.0543 60.5022 47.2554 60.6526C47.4564 60.8018 47.5263 60.5985 47.6226 60.5225C48.7109 59.6602 49.9114 58.9936 51.2398 58.6147C52.6324 58.2187 54.0617 57.9466 55.4107 57.403C57.1502 56.703 58.7426 55.7981 59.8265 54.1845C60.3278 53.4375 60.6526 52.6175 60.9497 51.7332C60.8493 51.7405 60.8244 51.7376 60.8041 51.7448ZM59.4333 53.9714C58.1293 55.642 56.3258 56.522 54.3883 57.1914C53.3889 57.5349 52.3532 57.7441 51.3391 58.0363C50.0177 58.4191 48.8086 59.0228 47.7843 59.9642C47.7538 59.992 47.7173 60.0152 47.6256 60.084C48.0655 59.0228 48.5406 58.061 49.1173 57.1461C49.6622 56.2837 50.2144 55.4402 51.0448 54.819C52.423 53.7885 53.9366 53.2082 55.6849 53.3149C56.4031 53.3587 57.1273 53.3456 57.8484 53.3442C58.7007 53.3414 59.4597 53.0343 60.1677 52.5842C60.2158 52.5535 60.2653 52.5272 60.3775 52.4628C60.1239 53.0593 59.7872 53.5182 59.4333 53.9714Z" fill="#4C1C3C"/>
<path d="M36.5636 60.3416C35.9766 58.7032 35.1535 57.1831 34.2779 55.6877C34.1118 55.4071 33.9035 55.1528 33.6675 54.9248C31.9996 53.298 29.9992 52.6065 27.6916 52.8142C26.0525 52.9616 24.4878 52.8126 23.1024 51.8099C23.0441 51.7674 22.9799 51.6857 22.862 51.7908C22.9188 51.956 22.9799 52.1343 23.0426 52.3126C23.7023 54.1981 24.9 55.6115 26.6511 56.5836C28.057 57.3625 29.5516 57.8801 31.1047 58.2367C32.7364 58.6108 34.2938 59.1472 35.6603 60.1484C35.9211 60.3398 36.1805 60.5328 36.4368 60.7243C36.6132 60.6292 36.6248 60.5125 36.5636 60.3416ZM35.519 59.5476C34.358 58.6736 33.0438 58.1473 31.6365 57.817C29.8693 57.4019 28.1488 56.8552 26.5741 55.914C25.1974 55.0911 24.1789 53.9422 23.4491 52.5097C24.313 53.0783 25.2498 53.378 26.2769 53.3677C26.8932 53.3633 27.5108 53.3502 28.1256 53.3195C30.3618 53.2041 32.202 54.0692 33.6603 55.7035C34.5272 56.6756 35.1608 57.8301 35.6954 59.0274C35.8354 59.3402 36.0321 59.631 36.1209 60.0417C35.8875 59.8503 35.7098 59.6908 35.519 59.5476Z" fill="#4C1C3C"/>
<path d="M96.5801 0H99.63V102H96.5801V0Z" fill="#505477"/>
</svg>
