<svg width="125" height="125" viewBox="0 0 125 125" fill="none" xmlns="http://www.w3.org/2000/svg">
<path fill-rule="evenodd" clip-rule="evenodd" d="M31.5958 27.4658H33.8134C33.8134 27.6184 33.8337 27.771 33.8744 27.9236L36.3057 37.1704C36.9974 39.8153 38.1774 42.3075 39.9474 44.0674C41.5649 45.6848 43.6401 46.6919 46.234 46.6919H55.959V51.8901C55.959 52.714 56.6304 53.3854 57.4442 53.3854H68.7357C69.5597 53.3854 70.2209 52.714 70.2209 51.9002V46.6919H80.4137C83.0382 46.6919 85.1847 45.6645 86.8428 44.0063C88.6128 42.2363 89.7826 39.7441 90.3523 37.0789L92.2952 27.9439C92.3359 27.7913 92.3563 27.6286 92.3563 27.4658H93.4041C98.7345 27.4658 103.098 31.8298 103.098 37.1602V107.371C103.098 112.671 98.7853 117.015 93.5058 117.065V120.9C93.5058 123.159 91.6646 125 89.4062 125C87.1479 125 85.3067 123.159 85.3067 120.9V117.065H39.6931V120.9C39.6931 123.159 37.8519 125 35.5936 125C33.3353 125 31.4941 123.159 31.4941 120.9V117.065C26.2043 117.015 21.9014 112.671 21.9014 107.371V37.1602C21.9014 31.8298 26.2654 27.4658 31.5958 27.4658ZM38.7572 102.142C37.7705 102.142 36.9669 101.339 36.9669 100.352C36.9669 99.3652 37.7705 98.5616 38.7572 98.5616H86.5071C87.4938 98.5616 88.2974 99.3652 88.2974 100.352C88.2974 101.339 87.4938 102.142 86.5071 102.142H38.7572ZM38.7572 84.8083C37.7705 84.8083 36.9669 84.0047 36.9669 83.018C36.9669 82.0312 37.7705 81.2276 38.7572 81.2276H86.5071C87.4938 81.2276 88.2974 82.0312 88.2974 83.018C88.2974 84.0047 87.4938 84.8083 86.5071 84.8083H38.7572ZM38.7572 67.4744C37.7705 67.4744 36.9669 66.6707 36.9669 65.684C36.9669 64.6973 37.7705 63.8936 38.7572 63.8936H86.5071C87.4938 63.8936 88.2974 64.6973 88.2974 65.684C88.2974 66.6707 87.4938 67.4744 86.5071 67.4744H38.7572ZM88.3483 29.2664H37.9231L39.7643 36.2549C40.3136 38.3301 41.1885 40.2425 42.4804 41.5243C43.4468 42.4906 44.6878 43.101 46.2239 43.101H80.4137C82.0006 43.101 83.3027 42.4703 84.3098 41.4632C85.5712 40.2018 86.4257 38.3504 86.8529 36.3363L88.3483 29.2664ZM38.0452 0H87.3209C87.8905 0 88.3585 0.467936 88.3585 1.0376V7.71077C88.3585 8.28044 87.8905 8.74837 87.3209 8.74837H79.9153V25.5127H75.5614V8.7382H50.2725V25.5025H45.9187V8.7382H38.0452C37.4755 8.7382 37.0076 8.27026 37.0076 7.7006V1.0376C37.0076 0.467936 37.4755 0 38.0452 0Z" fill="white"/>
</svg>
