<svg width="125" height="125" viewBox="0 0 125 125" fill="none" xmlns="http://www.w3.org/2000/svg">
<path d="M109.375 62.5H95.4948L93.75 36.1146C93.6627 34.7937 93.0756 33.5556 92.1082 32.652C91.1407 31.7484 89.8655 31.2471 88.5417 31.25H78.125C78.125 24.3433 75.3814 17.7195 70.4976 12.8358C65.6139 7.952 58.9901 5.20834 52.0834 5.20834C45.1767 5.20834 38.5529 7.952 33.6691 12.8358C28.7854 17.7195 26.0417 24.3433 26.0417 31.25H15.625C14.3013 31.2471 13.026 31.7484 12.0586 32.652C11.0911 33.5556 10.5041 34.7937 10.4167 36.1146L5.20838 114.24C5.16126 114.952 5.26108 115.666 5.50165 116.338C5.74221 117.011 6.11838 117.626 6.60679 118.147C7.09521 118.667 7.68544 119.082 8.34085 119.365C8.99625 119.648 9.70283 119.793 10.4167 119.792H114.583C115.316 119.792 116.04 119.637 116.708 119.339C117.377 119.04 117.975 118.603 118.464 118.058C118.952 117.512 119.32 116.87 119.544 116.172C119.767 115.475 119.841 114.738 119.76 114.01L114.552 67.1354C114.411 65.861 113.805 64.6834 112.85 63.8281C111.894 62.9728 110.657 62.4999 109.375 62.5ZM52.0834 15.625C56.2274 15.625 60.2017 17.2712 63.1319 20.2015C66.0622 23.1317 67.7084 27.106 67.7084 31.25H36.4584C36.4584 27.106 38.1046 23.1317 41.0348 20.2015C43.9651 17.2712 47.9394 15.625 52.0834 15.625ZM15.9844 109.375L20.4948 41.6667H26.0417V52.0833C26.0417 53.4647 26.5904 54.7894 27.5672 55.7662C28.5439 56.7429 29.8687 57.2917 31.25 57.2917C32.6314 57.2917 33.9561 56.7429 34.9329 55.7662C35.9096 54.7894 36.4584 53.4647 36.4584 52.0833V41.6667H67.7084V52.0833C67.7084 53.4647 68.2571 54.7894 69.2339 55.7662C70.2106 56.7429 71.5354 57.2917 72.9167 57.2917C74.298 57.2917 75.6228 56.7429 76.5996 55.7662C77.5763 54.7894 78.125 53.4647 78.125 52.0833V41.6667H83.6667L88.1823 109.375H15.9844ZM98.6198 109.375L96.1927 72.9167H104.714L108.766 109.375H98.6198Z" fill="white"/>
</svg>
