<svg width="125" height="125" viewBox="0 0 125 125" fill="none" xmlns="http://www.w3.org/2000/svg">
<path d="M62.5 66.4062C64.6574 66.4062 66.4062 64.6574 66.4062 62.5C66.4062 60.3426 64.6574 58.5938 62.5 58.5938C60.3426 58.5938 58.5938 60.3426 58.5938 62.5C58.5938 64.6574 60.3426 66.4062 62.5 66.4062Z" fill="white"/>
<path d="M62.5 7.8125C32.4219 7.8125 7.8125 32.4219 7.8125 62.5C7.8125 92.5781 32.4219 117.188 62.5 117.188C92.5781 117.188 117.188 92.5781 117.188 62.5C117.188 32.4219 92.5781 7.8125 62.5 7.8125ZM23.4375 66.4062C21.0938 66.4062 19.5312 64.8438 19.5312 62.5C19.5312 38.6719 38.6719 19.5312 62.5 19.5312C64.8438 19.5312 66.4062 21.0938 66.4062 23.4375C66.4062 25.7812 64.8438 27.3438 62.5 27.3438C42.9688 27.3438 27.3438 42.9688 27.3438 62.5C27.3438 64.8438 25.7812 66.4062 23.4375 66.4062ZM35.1562 66.4062C32.8125 66.4062 31.25 64.8438 31.25 62.5C31.25 45.3125 45.3125 31.25 62.5 31.25C64.8438 31.25 66.4062 32.8125 66.4062 35.1562C66.4062 37.5 64.8438 39.0625 62.5 39.0625C49.6094 39.0625 39.0625 49.6094 39.0625 62.5C39.0625 64.8438 37.5 66.4062 35.1562 66.4062ZM62.5 82.0312C51.5625 82.0312 42.9688 73.4375 42.9688 62.5C42.9688 51.5625 51.5625 42.9688 62.5 42.9688C73.4375 42.9688 82.0312 51.5625 82.0312 62.5C82.0312 73.4375 73.4375 82.0312 62.5 82.0312Z" fill="white"/>
</svg>
