<svg width="125" height="125" viewBox="0 0 125 125" fill="none" xmlns="http://www.w3.org/2000/svg">
<path d="M96.0938 17.6042H28.9584C22.6877 17.6042 17.6042 22.6876 17.6042 28.9583V96.0937C17.6042 102.364 22.6877 107.448 28.9584 107.448H96.0938C102.365 107.448 107.448 102.364 107.448 96.0937V28.9583C107.448 22.6876 102.365 17.6042 96.0938 17.6042Z" stroke="white" stroke-width="8" stroke-miterlimit="10"/>
<path d="M77.4478 37.5521H47.552C42.0292 37.5521 37.552 42.0292 37.552 47.5521V77.4479C37.552 82.9708 42.0292 87.4479 47.552 87.4479H77.4478C82.9707 87.4479 87.4478 82.9708 87.4478 77.4479V47.5521C87.4478 42.0292 82.9707 37.5521 77.4478 37.5521Z" stroke="white" stroke-width="8" stroke-miterlimit="10"/>
<path d="M37.552 2.60416V12.6042" stroke="white" stroke-width="8" stroke-miterlimit="10"/>
<path d="M62.5 2.60416V12.6042" stroke="white" stroke-width="8" stroke-miterlimit="10"/>
<path d="M87.448 2.60416V12.6042" stroke="white" stroke-width="8" stroke-miterlimit="10"/>
<path d="M37.552 112.396V122.396" stroke="white" stroke-width="8" stroke-miterlimit="10"/>
<path d="M62.5 112.396V122.396" stroke="white" stroke-width="8" stroke-miterlimit="10"/>
<path d="M87.448 112.396V122.396" stroke="white" stroke-width="8" stroke-miterlimit="10"/>
<path d="M2.60425 87.4479H12.6042" stroke="white" stroke-width="8" stroke-miterlimit="10"/>
<path d="M2.60425 62.5H12.6042" stroke="white" stroke-width="8" stroke-miterlimit="10"/>
<path d="M2.60425 37.5521H12.6042" stroke="white" stroke-width="8" stroke-miterlimit="10"/>
<path d="M112.396 87.4479H122.396" stroke="white" stroke-width="8" stroke-miterlimit="10"/>
<path d="M112.396 62.5H122.396" stroke="white" stroke-width="8" stroke-miterlimit="10"/>
<path d="M112.396 37.5521H122.396" stroke="white" stroke-width="8" stroke-miterlimit="10"/>
</svg>
