<svg width="125" height="125" viewBox="0 0 125 125" fill="none" xmlns="http://www.w3.org/2000/svg">
<path d="M10.4167 72.9167V83.3333C10.4167 98.0646 10.4167 105.43 14.9932 110.007C19.5697 114.583 26.9353 114.583 41.6667 114.583H83.3334C98.0647 114.583 105.43 114.583 110.007 110.007C114.583 105.43 114.583 98.0646 114.583 83.3333V62.5C114.583 47.7686 114.583 40.4029 110.007 35.8265C105.43 31.25 98.0647 31.25 83.3334 31.25H41.6667C26.9353 31.25 19.5697 31.25 14.9932 35.8265C11.6531 39.1666 10.7508 43.9924 10.507 52.0833" stroke="white" stroke-width="8" stroke-linecap="round"/>
<path d="M46.875 10.4167L62.5 28.6458L78.125 10.4167" stroke="white" stroke-width="8" stroke-linecap="round"/>
<path d="M83.3333 31.25V52.0833M83.3333 114.583V72.9167" stroke="white" stroke-width="8" stroke-linecap="round"/>
<path d="M104.167 83.3333C104.167 80.4568 101.835 78.125 98.9583 78.125C96.0818 78.125 93.75 80.4568 93.75 83.3333C93.75 86.2099 96.0818 88.5417 98.9583 88.5417C101.835 88.5417 104.167 86.2099 104.167 83.3333Z" fill="white"/>
<path d="M104.167 62.5C104.167 59.6234 101.835 57.2917 98.9583 57.2917C96.0818 57.2917 93.75 59.6234 93.75 62.5C93.75 65.3766 96.0818 67.7083 98.9583 67.7083C101.835 67.7083 104.167 65.3766 104.167 62.5Z" fill="white"/>
</svg>
