<svg width="1079" height="571" viewBox="0 0 1079 571" fill="none" xmlns="http://www.w3.org/2000/svg">
<path d="M31.3562 150.197L84.0732 135.52L133.205 178.199L146.755 239.005L190.762 289.594L223.894 311.65L248.251 320.539L263.858 341.263L252.798 384.061L274.11 423.464L279.385 470.416L269.904 528.266L280.694 568.71L292.439 556.5L299.57 521.679L346.491 476.926L394.331 414.909L379.676 379.054L326.04 345.428L272.416 334.636L261.581 314.148L220.722 285.514L252.982 263.079L299.308 233.401L358.33 196.026L335.124 146.28L294.366 140.559L281.845 178.289L240.846 149.258L263.14 116.125L305.274 108.39L344.181 122.388L322.583 85.501L288.062 68.719L294.77 46.503L341.561 9.57799L270.548 7.15698L202.242 27.461L138.999 73.87L86.4822 84.38L32.1142 70.879L6.78516 116.052L31.3562 150.197Z" stroke="#FFA468" stroke-width="2.2" stroke-miterlimit="10"/>
<path d="M324.441 44.064L368.707 70.11L384.831 130.206L411.489 146.312L472.86 102.231L502.065 30.742L433.651 5.84399L376.58 11.867L324.441 44.064Z" stroke="#FFA468" stroke-width="2.2" stroke-miterlimit="10"/>
<path d="M428.625 327.865L462.781 372.334L510.854 372.452L519.944 441.104L539.623 507.078L570.852 504.451L613.958 444.176L629.129 389.503L650.391 361.209L620.796 353.707L588.554 295.377L549.485 284.99L509.1 267.144L457.212 277.099L428.625 327.865Z" stroke="#FFA468" stroke-width="2.2" stroke-miterlimit="10"/>
<path d="M887.512 443.903L827.098 476.799L834.6 527.241L883.616 519.008L925.468 547.17L960.856 551.752L977.935 502.577L945.715 456.271L887.512 443.903Z" stroke="#FFA468" stroke-width="2.2" stroke-miterlimit="10"/>
<path d="M981.505 129.278L888.113 115.382L808.612 88.5032L718.625 106.759L643.534 132.863L575.251 110.271L498.242 157.831L484.311 205.211L449.637 244.508L495.667 248.383L557.982 255.656L608.736 297.258L630.539 340.274L685.891 312.497L722.891 363.1L753.918 326.054L783.565 346.579L789.338 395.596L849.035 421.208L905.733 411.593L962.475 434.173L934.943 401.313L869.598 393.54L829.344 381.426L806.518 388.499L797.795 360.162L818.6 356.39L812.686 325.171L857.014 309.414L865.712 266.138L914.247 244.614L922.2 200.964L973.066 208.075L1023.16 187.701L1070.95 159.498L981.505 129.278Z" stroke="#FFA468" stroke-width="2.2" stroke-miterlimit="10"/>
<path d="M4.39352 112.41C6.42975 110.557 9.58254 110.706 11.4356 112.742C13.2884 114.779 13.14 117.931 11.1041 119.784C9.068 121.637 5.91516 121.489 4.06199 119.453C2.20885 117.417 2.35729 114.263 4.39352 112.41Z" fill="black" stroke="#FFA468"/>
<path d="M31.5938 145.218C34.258 145.344 36.3356 147.538 36.3447 150.175L36.3389 150.432C36.2138 153.095 34.0185 155.173 31.3809 155.183L31.125 155.177C28.3759 155.047 26.252 152.713 26.3809 149.963C26.5059 147.299 28.6996 145.222 31.3369 145.212L31.5938 145.218Z" fill="black" stroke="#FFA468"/>
<path d="M84.3096 130.541C86.9738 130.667 89.0514 132.861 89.0605 135.498L89.0547 135.755C88.9297 138.418 86.7342 140.496 84.0967 140.505L83.8408 140.499L83.585 140.48C81.0446 140.232 79.0992 138.094 79.0898 135.542L79.0957 135.286C79.2257 132.536 81.5596 130.411 84.3096 130.541Z" fill="black" stroke="#FFA468"/>
<path d="M132.625 173.493C135.289 173.619 137.367 175.813 137.376 178.45L137.37 178.707C137.245 181.37 135.051 183.448 132.413 183.458L132.157 183.452C129.493 183.326 127.415 181.131 127.406 178.494L127.412 178.238C127.537 175.574 129.731 173.497 132.368 173.487L132.625 173.493Z" fill="black" stroke="#FFA468"/>
<path d="M146.993 234.027C149.742 234.156 151.867 236.49 151.737 239.24C151.611 241.904 149.417 243.981 146.78 243.991L146.524 243.985C143.86 243.859 141.782 241.664 141.773 239.027L141.779 238.771C141.905 236.108 144.099 234.031 146.736 234.021L146.993 234.027Z" fill="black" stroke="#FFA468"/>
<path d="M191.048 283.558C193.798 283.688 195.922 286.022 195.793 288.772C195.668 291.436 193.473 293.513 190.835 293.523L190.579 293.517C187.829 293.387 185.704 291.053 185.834 288.303C185.96 285.639 188.154 283.562 190.791 283.552L191.048 283.558Z" fill="black" stroke="#FFA468"/>
<path d="M264.095 336.284C266.845 336.414 268.97 338.748 268.84 341.498C268.714 344.162 266.519 346.239 263.881 346.249L263.625 346.243C260.962 346.117 258.885 343.922 258.875 341.285L258.881 341.029C259.011 338.278 261.345 336.154 264.095 336.284Z" fill="black" stroke="#FFA468"/>
<path d="M249.468 380.369C251.504 378.516 254.657 378.665 256.51 380.701C258.363 382.737 258.214 385.889 256.178 387.742C254.142 389.595 250.989 389.448 249.136 387.412C247.283 385.375 247.432 382.222 249.468 380.369Z" fill="black" stroke="#FFA468"/>
<path d="M274.345 418.485C277.095 418.615 279.219 420.949 279.09 423.699C278.965 426.363 276.77 428.44 274.132 428.45L273.876 428.444C271.212 428.318 269.135 426.123 269.125 423.486L269.131 423.23C269.261 420.48 271.595 418.355 274.345 418.485Z" fill="black" stroke="#FFA468"/>
<path d="M276.546 465.901C278.582 464.048 281.735 464.197 283.588 466.233C285.441 468.269 285.292 471.421 283.256 473.274C281.22 475.127 278.068 474.98 276.214 472.944C274.361 470.907 274.51 467.754 276.546 465.901Z" fill="black" stroke="#FFA468"/>
<path d="M265.894 523.634C267.93 521.781 271.083 521.93 272.936 523.966C274.788 526.002 274.64 529.154 272.604 531.007C270.568 532.86 267.415 532.712 265.562 530.676C263.709 528.64 263.857 525.487 265.894 523.634Z" fill="black" stroke="#FFA468"/>
<path d="M299.805 516.7C302.555 516.83 304.679 519.163 304.55 521.914C304.425 524.578 302.23 526.655 299.592 526.665L299.336 526.659C296.673 526.533 294.595 524.339 294.586 521.702L294.592 521.445C294.721 518.695 297.055 516.57 299.805 516.7Z" fill="black" stroke="#FFA468"/>
<path d="M346.728 471.947C349.392 472.073 351.468 474.267 351.479 476.904L351.473 477.161C351.343 479.91 349.008 482.034 346.258 481.906H346.259C343.594 481.78 341.517 479.585 341.508 476.948L341.514 476.692C341.644 473.942 343.978 471.817 346.728 471.947Z" fill="black" stroke="#FFA468"/>
<path d="M394.567 409.93C397.317 410.06 399.442 412.393 399.312 415.144C399.187 417.808 396.992 419.885 394.354 419.895L394.099 419.889C391.434 419.763 389.357 417.568 389.348 414.931L389.354 414.675C389.483 411.924 391.817 409.8 394.567 409.93Z" fill="black" stroke="#FFA468"/>
<path d="M379.911 374.076C382.575 374.201 384.653 376.395 384.662 379.032L384.656 379.289C384.531 381.953 382.336 384.03 379.697 384.04L379.441 384.034C376.778 383.908 374.701 381.713 374.691 379.076L374.697 378.82C374.827 376.071 377.161 373.947 379.911 374.076Z" fill="black" stroke="#FFA468"/>
<path d="M326.274 340.449C329.025 340.579 331.149 342.912 331.02 345.663C330.895 348.327 328.7 350.404 326.062 350.414L325.806 350.408C323.141 350.282 321.064 348.087 321.055 345.45L321.061 345.194C321.186 342.53 323.38 340.453 326.018 340.443L326.274 340.449Z" fill="black" stroke="#FFA468"/>
<path d="M261.817 309.169C264.48 309.295 266.557 311.488 266.567 314.126L266.562 314.383C266.436 317.047 264.241 319.124 261.604 319.134L261.349 319.128C258.598 318.998 256.474 316.664 256.604 313.914C256.729 311.249 258.923 309.172 261.561 309.163L261.817 309.169Z" fill="black" stroke="#FFA468"/>
<path d="M220.958 280.536C223.622 280.661 225.699 282.854 225.709 285.492L225.703 285.749C225.577 288.413 223.383 290.49 220.745 290.5L220.489 290.494C217.825 290.368 215.748 288.174 215.738 285.537L215.744 285.28C215.87 282.616 218.064 280.539 220.701 280.53L220.958 280.536Z" fill="black" stroke="#FFA468"/>
<path d="M249.632 260.211C251.668 258.358 254.821 258.507 256.674 260.543C258.527 262.579 258.378 265.732 256.342 267.585C254.306 269.438 251.153 269.29 249.3 267.254C247.447 265.218 247.596 262.064 249.632 260.211Z" fill="black" stroke="#FFA468"/>
<path d="M299.544 228.422C302.208 228.548 304.285 230.742 304.295 233.379L304.289 233.636C304.163 236.299 301.968 238.377 299.331 238.387L299.075 238.381C296.411 238.255 294.334 236.06 294.324 233.423L294.33 233.167C294.456 230.503 296.65 228.426 299.287 228.416L299.544 228.422Z" fill="black" stroke="#FFA468"/>
<path d="M358.567 191.047C361.231 191.173 363.308 193.367 363.318 196.004L363.312 196.261C363.186 198.925 360.992 201.002 358.354 201.011L358.099 201.005L357.843 200.986C355.302 200.738 353.357 198.6 353.348 196.048L353.354 195.792C353.479 193.128 355.673 191.051 358.311 191.041L358.567 191.047Z" fill="black" stroke="#FFA468"/>
<path d="M335.36 141.301C338.11 141.431 340.234 143.765 340.105 146.515C339.98 149.179 337.785 151.256 335.147 151.266L334.892 151.26C332.227 151.134 330.15 148.939 330.141 146.302L330.146 146.046C330.276 143.296 332.61 141.171 335.36 141.301Z" fill="black" stroke="#FFA468"/>
<path d="M296.013 135.884C298.763 136.014 300.887 138.347 300.758 141.098C300.633 143.762 298.438 145.839 295.8 145.849L295.544 145.843C292.88 145.717 290.803 143.522 290.793 140.885L290.799 140.629C290.925 137.965 293.119 135.888 295.756 135.878L296.013 135.884Z" fill="black" stroke="#FFA468"/>
<path d="M282.083 173.311C284.747 173.436 286.824 175.63 286.834 178.267L286.828 178.524C286.702 181.188 284.508 183.265 281.87 183.275L281.614 183.269C278.95 183.143 276.872 180.948 276.863 178.311L276.869 178.055C276.999 175.306 279.333 173.182 282.083 173.311Z" fill="black" stroke="#FFA468"/>
<path d="M241.083 144.279C243.833 144.409 245.957 146.743 245.828 149.493C245.703 152.157 243.509 154.234 240.87 154.244L240.614 154.238C237.95 154.112 235.873 151.917 235.863 149.28L235.869 149.024C235.995 146.36 238.189 144.283 240.826 144.273L241.083 144.279Z" fill="black" stroke="#FFA468"/>
<path d="M263.809 109.815C266.473 109.94 268.55 112.133 268.56 114.771L268.554 115.028C268.425 117.777 266.091 119.904 263.341 119.774C260.676 119.648 258.599 117.453 258.59 114.816L258.596 114.56C258.725 111.81 261.058 109.686 263.809 109.815Z" fill="black" stroke="#FFA468"/>
<path d="M288.298 63.7397C290.961 63.8658 293.039 66.0597 293.048 68.6968L293.042 68.9536C292.917 71.6178 290.722 73.6949 288.085 73.7046L287.829 73.6987C285.165 73.5728 283.088 71.3783 283.078 68.7407L283.084 68.4849C283.21 65.8205 285.404 63.743 288.041 63.7339L288.298 63.7397Z" fill="black" stroke="#FFA468"/>
<path d="M324.735 39.8457C327.399 39.9707 329.476 42.1645 329.486 44.8018L329.48 45.0586C329.35 47.8087 327.016 49.9328 324.266 49.8047H324.267C321.602 49.6788 319.525 47.4842 319.516 44.8467L319.521 44.5908C319.647 41.9264 321.841 39.849 324.479 39.8398L324.735 39.8457Z" fill="black" stroke="#FFA468"/>
<path d="M368.942 65.1309C371.607 65.2568 373.684 67.4508 373.693 70.0879L373.688 70.3447C373.562 73.0089 371.368 75.0861 368.729 75.0957L368.474 75.0898C365.723 74.9599 363.599 72.6258 363.729 69.876C363.854 67.2118 366.048 65.135 368.686 65.125L368.942 65.1309Z" fill="black" stroke="#FFA468"/>
<path d="M381.844 128.113C383.19 125.712 386.228 124.856 388.629 126.202C390.955 127.506 391.831 130.396 390.66 132.759L390.54 132.987C389.236 135.313 386.345 136.189 383.982 135.018L383.755 134.898C381.429 133.594 380.554 130.703 381.725 128.339L381.844 128.113Z" fill="black" stroke="#FFA468"/>
<path d="M407.142 143.876C408.488 141.475 411.526 140.619 413.927 141.965C416.328 143.311 417.184 146.349 415.838 148.75C414.492 151.151 411.454 152.007 409.053 150.661C406.652 149.315 405.796 146.277 407.142 143.876Z" fill="black" stroke="#FFA468"/>
<path d="M468.513 99.7937C469.817 97.4674 472.708 96.591 475.071 97.7625L475.298 97.8826C477.699 99.2287 478.555 102.267 477.209 104.668C475.905 106.994 473.013 107.87 470.65 106.699L470.424 106.579C468.097 105.275 467.221 102.384 468.393 100.02L468.513 99.7937Z" fill="black" stroke="#FFA468"/>
<path d="M496.243 28.8638C497.547 26.5375 500.438 25.6611 502.802 26.8325L503.028 26.9526C505.429 28.2987 506.285 31.3368 504.939 33.7378C503.635 36.0638 500.743 36.9402 498.381 35.769L498.154 35.6489C495.752 34.303 494.897 31.2649 496.243 28.8638Z" fill="black" stroke="#FFA468"/>
<path d="M432.43 0.536133C435.162 0.206244 437.646 2.154 437.977 4.88672C438.297 7.5342 436.479 9.94837 433.88 10.3965L433.626 10.4336C430.979 10.7531 428.565 8.93549 428.116 6.33691L428.079 6.08301C427.76 3.43574 429.577 1.0224 432.176 0.573242L432.43 0.536133Z" fill="black" stroke="#FFA468"/>
<path d="M376.926 7.24609C379.659 6.91618 382.143 8.86415 382.473 11.5967C382.792 14.2441 380.975 16.6574 378.376 17.1064L378.122 17.1436C375.475 17.4631 373.061 15.6454 372.612 13.0469L372.575 12.793C372.256 10.1454 374.074 7.73195 376.673 7.2832L376.926 7.24609Z" fill="black" stroke="#FFA468"/>
<path d="M294.078 39.9392C296.811 39.6093 299.295 41.5573 299.625 44.2898C299.955 47.0228 298.007 49.5068 295.274 49.8367C292.627 50.1562 290.214 48.3386 289.765 45.74L289.728 45.4861C289.408 42.8385 291.226 40.4251 293.825 39.9763L294.078 39.9392Z" fill="black" stroke="#FFA468"/>
<path d="M341.664 5.58521C344.397 5.25532 346.88 7.20307 347.211 9.93579C347.531 12.5833 345.714 14.9975 343.114 15.4456L342.86 15.4827C340.127 15.8125 337.643 13.8647 337.313 11.1321C336.994 8.48451 338.812 6.07106 341.411 5.62231L341.664 5.58521Z" fill="black" stroke="#FFA468"/>
<path d="M271.016 3.39307C273.748 3.06318 276.231 5.01093 276.562 7.74365C276.883 10.3911 275.065 12.8053 272.466 13.2534L272.212 13.2905C269.564 13.61 267.151 11.7924 266.702 9.19385L266.665 8.93994C266.346 6.29237 268.164 3.87892 270.763 3.43018L271.016 3.39307Z" fill="black" stroke="#FFA468"/>
<path d="M201.645 22.5122C204.292 22.1926 206.706 24.0107 207.154 26.6089L207.191 26.8628C207.512 29.5103 205.694 31.9244 203.095 32.3726L202.841 32.4097C200.108 32.7395 197.624 30.7917 197.294 28.0591C196.974 25.4118 198.792 22.9985 201.391 22.5493L201.645 22.5122Z" fill="black" stroke="#FFA468"/>
<path d="M138.402 68.9202C141.05 68.6006 143.464 70.4187 143.912 73.0168L143.949 73.2708C144.27 75.9182 142.452 78.3324 139.853 78.7805L139.599 78.8176C136.951 79.1371 134.538 77.3195 134.089 74.7209L134.052 74.467C133.722 71.7342 135.67 69.2502 138.402 68.9202Z" fill="black" stroke="#FFA468"/>
<path d="M87.8984 79.5251C90.5459 79.2055 92.9599 81.0237 93.4082 83.6218L93.4453 83.8757C93.7752 86.6097 91.8275 89.0927 89.0947 89.4226C86.4473 89.7421 84.0339 87.9245 83.585 85.3259L83.5479 85.072C83.2283 82.4244 85.0467 80.011 87.6455 79.5623L87.8984 79.5251Z" fill="black" stroke="#FFA468"/>
<path d="M31.4062 68.2891C34.0539 67.9694 36.4672 69.7879 36.916 72.3867L36.9531 72.6396C37.283 75.3727 35.3352 77.8566 32.6025 78.1865C29.8696 78.5164 27.3855 76.5686 27.0557 73.8359C26.7259 71.1031 28.6738 68.6191 31.4062 68.2891Z" fill="black" stroke="#FFA468"/>
<path d="M304.653 103.371C307.317 103.496 309.394 105.689 309.404 108.327L309.398 108.583C309.272 111.248 307.078 113.326 304.44 113.334L304.185 113.329L303.929 113.31C301.388 113.062 299.443 110.924 299.434 108.372L299.439 108.116C299.565 105.451 301.759 103.374 304.396 103.365L304.653 103.371Z" fill="black" stroke="#FFA468"/>
<path d="M344.415 117.409C347.079 117.535 349.156 119.729 349.166 122.366L349.16 122.623C349.035 125.286 346.84 127.364 344.202 127.373L343.946 127.367L343.69 127.348C341.15 127.1 339.205 124.962 339.195 122.41L339.201 122.154C339.331 119.403 341.665 117.279 344.415 117.409Z" fill="black" stroke="#FFA468"/>
<path d="M322.817 80.5217C325.482 80.6468 327.559 82.8407 327.568 85.4778L327.562 85.7346C327.433 88.4845 325.097 90.6096 322.348 90.4797C319.684 90.3538 317.607 88.1593 317.598 85.5217L317.604 85.2659C317.729 82.6025 319.923 80.525 322.561 80.5159L322.817 80.5217Z" fill="black" stroke="#FFA468"/>
<path d="M458.591 369.679C460.057 367.366 463.123 366.678 465.438 368.144C467.752 369.61 468.439 372.676 466.973 374.991C465.507 377.305 462.441 377.992 460.126 376.526H460.127C457.885 375.105 457.17 372.184 458.46 369.899L458.591 369.679Z" fill="black" stroke="#FFA468"/>
<path d="M509.819 367.6C512.416 367.045 514.971 368.631 515.648 371.166L515.708 371.414C516.263 374.011 514.677 376.566 512.142 377.243L511.894 377.303C509.297 377.857 506.742 376.272 506.064 373.736L506.005 373.488C505.451 370.892 507.036 368.337 509.571 367.659L509.819 367.6Z" fill="black" stroke="#FFA468"/>
<path d="M519.565 436.764C522.244 436.191 524.881 437.899 525.453 440.578C526.025 443.258 524.318 445.895 521.639 446.467C518.96 447.039 516.323 445.332 515.751 442.652C515.179 439.972 516.887 437.336 519.565 436.764Z" fill="black" stroke="#FFA468"/>
<path d="M538.589 502.226C541.184 501.671 543.74 503.257 544.417 505.792L544.477 506.04C545.031 508.637 543.445 511.192 540.91 511.869L540.662 511.929C538.066 512.483 535.511 510.898 534.834 508.363L534.774 508.114C534.202 505.435 535.91 502.798 538.589 502.226Z" fill="black" stroke="#FFA468"/>
<path d="M569.815 499.6C572.495 499.028 575.132 500.736 575.704 503.414C576.259 506.01 574.673 508.565 572.138 509.242L571.89 509.302C569.294 509.857 566.739 508.272 566.061 505.737L566.001 505.489C565.447 502.892 567.032 500.337 569.567 499.659L569.815 499.6Z" fill="black" stroke="#FFA468"/>
<path d="M612.921 439.324C615.517 438.769 618.072 440.355 618.75 442.89L618.81 443.138C619.382 445.818 617.674 448.455 614.995 449.027C612.4 449.581 609.844 447.996 609.166 445.459L609.106 445.211C608.552 442.616 610.138 440.061 612.673 439.383L612.921 439.324Z" fill="black" stroke="#FFA468"/>
<path d="M627.464 384.899C630.06 384.344 632.615 385.93 633.293 388.465L633.353 388.713C633.925 391.393 632.217 394.03 629.538 394.602C626.943 395.156 624.387 393.571 623.709 391.036L623.649 390.788C623.095 388.191 624.681 385.636 627.216 384.958L627.464 384.899Z" fill="black" stroke="#FFA468"/>
<path d="M649.354 356.358C652.033 355.786 654.67 357.494 655.242 360.172C655.815 362.851 654.107 365.488 651.428 366.06C648.749 366.632 646.112 364.924 645.54 362.246C644.968 359.567 646.676 356.93 649.354 356.358Z" fill="black" stroke="#FFA468"/>
<path d="M619.761 348.855C622.357 348.3 624.912 349.886 625.59 352.421L625.649 352.669C626.204 355.266 624.618 357.821 622.083 358.498L621.835 358.558C619.239 359.112 616.684 357.527 616.006 354.991L615.946 354.743C615.392 352.147 616.978 349.592 619.513 348.914L619.761 348.855Z" fill="black" stroke="#FFA468"/>
<path d="M587.519 290.526C590.197 289.954 592.834 291.662 593.406 294.34C593.961 296.936 592.375 299.491 589.84 300.168L589.592 300.228C586.996 300.783 584.441 299.198 583.764 296.663L583.704 296.415C583.132 293.735 584.84 291.098 587.519 290.526Z" fill="black" stroke="#FFA468"/>
<path d="M548.448 280.139C551.045 279.584 553.6 281.17 554.277 283.705L554.337 283.953C554.891 286.55 553.306 289.105 550.771 289.782L550.522 289.842C547.926 290.396 545.371 288.811 544.693 286.275L544.634 286.027C544.079 283.431 545.665 280.876 548.2 280.198L548.448 280.139Z" fill="black" stroke="#FFA468"/>
<path d="M508.065 262.292C510.662 261.737 513.217 263.323 513.895 265.858L513.954 266.106C514.509 268.703 512.923 271.258 510.388 271.935L510.14 271.995C507.46 272.568 504.823 270.86 504.251 268.18C503.697 265.584 505.282 263.029 507.817 262.351L508.065 262.292Z" fill="black" stroke="#FFA468"/>
<path d="M457.081 273.187C459.761 272.614 462.397 274.322 462.97 277.001C463.524 279.598 461.939 282.153 459.403 282.83L459.155 282.89C456.56 283.445 454.004 281.859 453.326 279.323L453.267 279.075C452.712 276.479 454.298 273.924 456.833 273.246L457.081 273.187Z" fill="black" stroke="#FFA468"/>
<path d="M427.589 323.014C430.185 322.459 432.74 324.045 433.418 326.58L433.478 326.828C434.032 329.425 432.446 331.98 429.911 332.657L429.663 332.717C427.067 333.271 424.511 331.686 423.834 329.151L423.774 328.903C423.22 326.306 424.806 323.751 427.341 323.073L427.589 323.014Z" fill="black" stroke="#FFA468"/>
<path d="M830.343 524.691C831.751 522.341 834.797 521.577 837.147 522.985C839.498 524.393 840.261 527.439 838.854 529.79C837.445 532.14 834.399 532.904 832.049 531.496C829.699 530.087 828.935 527.041 830.343 524.691Z" fill="black" stroke="#FFA468"/>
<path d="M824.487 476.12C825.851 473.843 828.754 473.055 831.07 474.288L831.292 474.414H831.293C833.644 475.822 834.406 478.869 832.998 481.219C831.59 483.569 828.543 484.333 826.193 482.925C823.843 481.517 823.079 478.47 824.487 476.12Z" fill="black" stroke="#FFA468"/>
<path d="M883.187 443.016C884.595 440.666 887.641 439.902 889.991 441.31C892.341 442.718 893.105 445.765 891.697 448.115C890.289 450.465 887.243 451.229 884.893 449.821C882.543 448.413 881.779 445.366 883.187 443.016Z" fill="black" stroke="#FFA468"/>
<path d="M941.397 455.149C942.806 452.799 945.852 452.035 948.202 453.443C950.552 454.851 951.316 457.897 949.908 460.248C948.5 462.598 945.454 463.362 943.104 461.954C940.754 460.545 939.989 457.499 941.397 455.149Z" fill="black" stroke="#FFA468"/>
<path d="M972.683 499.986C974.091 497.636 977.138 496.872 979.488 498.28C981.838 499.688 982.601 502.735 981.193 505.085C979.785 507.435 976.739 508.199 974.389 506.791C972.039 505.383 971.275 502.336 972.683 499.986Z" fill="black" stroke="#FFA468"/>
<path d="M957.413 547.301C958.821 544.951 961.868 544.187 964.218 545.595C966.495 546.959 967.283 549.861 966.05 552.178L965.924 552.4V552.401C964.516 554.751 961.469 555.514 959.119 554.106C956.769 552.698 956.005 549.651 957.413 547.301Z" fill="black" stroke="#FFA468"/>
<path d="M921.21 544.621C922.618 542.271 925.665 541.507 928.015 542.915C930.365 544.323 931.129 547.37 929.721 549.72C928.313 552.07 925.266 552.834 922.916 551.426C920.566 550.018 919.802 546.971 921.21 544.621Z" fill="black" stroke="#FFA468"/>
<path d="M880.194 515.606C881.602 513.256 884.649 512.492 886.999 513.9C889.349 515.308 890.113 518.355 888.705 520.705C887.297 523.055 884.25 523.819 881.9 522.411C879.55 521.002 878.786 517.956 880.194 515.606Z" fill="black" stroke="#FFA468"/>
<path d="M1068.31 157.015C1069.72 154.665 1072.76 153.901 1075.11 155.309C1077.46 156.717 1078.23 159.764 1076.82 162.114C1075.41 164.464 1072.36 165.228 1070.01 163.82C1067.74 162.456 1066.95 159.555 1068.18 157.238L1068.31 157.015Z" fill="black" stroke="#FFA468"/>
<path d="M975.226 126.24C976.634 123.89 979.68 123.126 982.03 124.534C984.307 125.898 985.096 128.8 983.862 131.117L983.736 131.339V131.34C982.328 133.69 979.282 134.453 976.932 133.045C974.582 131.637 973.818 128.59 975.226 126.24Z" fill="black" stroke="#FFA468"/>
<path d="M804.354 85.9531C805.763 83.6031 808.809 82.8393 811.159 84.2471C813.509 85.6551 814.273 88.7017 812.865 91.0518C811.457 93.4019 808.411 94.1659 806.061 92.7578C803.711 91.3497 802.946 88.3031 804.354 85.9531Z" fill="black" stroke="#FFA468"/>
<path d="M714.3 105.847C715.708 103.497 718.754 102.733 721.104 104.141C723.455 105.549 724.219 108.595 722.811 110.946C721.402 113.296 718.356 114.06 716.006 112.652C713.656 111.243 712.892 108.197 714.3 105.847Z" fill="black" stroke="#FFA468"/>
<path d="M637.71 130.675C639.118 128.325 642.165 127.561 644.515 128.969C646.865 130.377 647.629 133.424 646.221 135.774C644.813 138.124 641.766 138.888 639.416 137.48C637.066 136.072 636.302 133.025 637.71 130.675Z" fill="black" stroke="#FFA468"/>
<path d="M571.96 108.802C573.368 106.452 576.415 105.688 578.765 107.096C581.115 108.504 581.879 111.551 580.471 113.901C579.063 116.251 576.016 117.015 573.666 115.607C571.316 114.199 570.552 111.152 571.96 108.802Z" fill="black" stroke="#FFA468"/>
<path d="M496.944 155.403C498.352 153.053 501.4 152.289 503.75 153.697C506.1 155.105 506.864 158.152 505.456 160.502C504.092 162.778 501.19 163.567 498.873 162.334L498.65 162.208C496.3 160.8 495.536 157.753 496.944 155.403Z" fill="black" stroke="#FFA468"/>
<path d="M480.007 203.782C481.415 201.431 484.461 200.668 486.812 202.076C489.162 203.484 489.926 206.531 488.518 208.881C487.109 211.231 484.063 211.995 481.713 210.587C479.436 209.223 478.648 206.321 479.881 204.004L480.007 203.782Z" fill="black" stroke="#FFA468"/>
<path d="M447.714 242.054C449.078 239.777 451.98 238.989 454.297 240.222L454.52 240.348C456.87 241.756 457.633 244.802 456.226 247.153C454.862 249.429 451.959 250.218 449.643 248.985L449.42 248.859C447.069 247.451 446.306 244.404 447.714 242.054Z" fill="black" stroke="#FFA468"/>
<path d="M490.257 245.786C491.665 243.435 494.711 242.672 497.062 244.08C499.412 245.488 500.176 248.535 498.768 250.885C497.359 253.235 494.313 253.999 491.963 252.592C489.686 251.228 488.898 248.325 490.131 246.009L490.257 245.786Z" fill="black" stroke="#FFA468"/>
<path d="M553.726 253.107C555.134 250.757 558.18 249.993 560.53 251.401C562.88 252.809 563.644 255.855 562.236 258.206C560.828 260.556 557.782 261.32 555.432 259.912C553.082 258.503 552.318 255.457 553.726 253.107Z" fill="black" stroke="#FFA468"/>
<path d="M604.479 294.708C605.888 292.358 608.934 291.594 611.284 293.002C613.634 294.41 614.398 297.457 612.99 299.807C611.582 302.157 608.536 302.921 606.186 301.513C603.836 300.105 603.071 297.058 604.479 294.708Z" fill="black" stroke="#FFA468"/>
<path d="M628.089 337.799C629.497 335.448 632.543 334.685 634.894 336.093C637.244 337.501 638.008 340.548 636.6 342.898C635.191 345.248 632.145 346.012 629.795 344.604C627.518 343.24 626.73 340.338 627.963 338.021L628.089 337.799Z" fill="black" stroke="#FFA468"/>
<path d="M681.636 309.948C683.044 307.598 686.09 306.834 688.44 308.242C690.791 309.65 691.554 312.697 690.146 315.047C688.738 317.397 685.692 318.161 683.342 316.753C680.992 315.345 680.228 312.298 681.636 309.948Z" fill="black" stroke="#FFA468"/>
<path d="M720.733 359.18C722.141 356.83 725.188 356.066 727.538 357.474C729.815 358.838 730.603 361.74 729.37 364.057L729.244 364.279V364.28C727.836 366.63 724.789 367.393 722.439 365.985C720.089 364.577 719.325 361.53 720.733 359.18Z" fill="black" stroke="#FFA468"/>
<path d="M750.339 322.566C751.747 320.216 754.794 319.452 757.144 320.86C759.494 322.268 760.258 325.314 758.85 327.665C757.442 330.015 754.395 330.779 752.045 329.371C749.695 327.962 748.931 324.916 750.339 322.566Z" fill="black" stroke="#FFA468"/>
<path d="M779.308 344.029C780.716 341.679 783.762 340.915 786.112 342.323C788.462 343.731 789.226 346.778 787.818 349.128C786.41 351.478 783.364 352.242 781.014 350.834C778.737 349.47 777.949 346.568 779.182 344.252L779.308 344.029Z" fill="black" stroke="#FFA468"/>
<path d="M785.081 393.046C786.489 390.696 789.537 389.932 791.887 391.34C794.237 392.748 795 395.795 793.593 398.145C792.229 400.421 789.326 401.21 787.01 399.977L786.787 399.851C784.436 398.443 783.673 395.396 785.081 393.046Z" fill="black" stroke="#FFA468"/>
<path d="M845.55 419.29C846.958 416.94 850.004 416.176 852.354 417.584C854.631 418.948 855.42 421.85 854.187 424.167L854.061 424.389V424.39C852.652 426.74 849.606 427.503 847.256 426.095C844.906 424.687 844.142 421.64 845.55 419.29Z" fill="black" stroke="#FFA468"/>
<path d="M901.476 409.044C902.884 406.693 905.93 405.93 908.28 407.338C910.63 408.746 911.394 411.793 909.986 414.144C908.578 416.493 905.532 417.257 903.182 415.85C900.905 414.486 900.117 411.583 901.35 409.267L901.476 409.044Z" fill="black" stroke="#FFA468"/>
<path d="M957.358 431.61C958.766 429.26 961.814 428.496 964.164 429.904C966.514 431.312 967.278 434.359 965.87 436.709C964.506 438.985 961.604 439.774 959.287 438.541L959.064 438.415C956.714 437.007 955.95 433.96 957.358 431.61Z" fill="black" stroke="#FFA468"/>
<path d="M930.687 398.764C932.095 396.414 935.141 395.65 937.491 397.058C939.841 398.466 940.605 401.513 939.197 403.863C937.789 406.213 934.743 406.977 932.393 405.569C930.043 404.161 929.279 401.114 930.687 398.764Z" fill="black" stroke="#FFA468"/>
<path d="M864.483 390.955C865.891 388.605 868.939 387.841 871.289 389.249C873.639 390.657 874.403 393.704 872.995 396.054C871.631 398.33 868.729 399.119 866.412 397.886L866.189 397.76C863.839 396.351 863.075 393.305 864.483 390.955Z" fill="black" stroke="#FFA468"/>
<path d="M826.769 378.946C828.177 376.596 831.223 375.832 833.573 377.24C835.923 378.648 836.687 381.695 835.279 384.045C833.871 386.395 830.825 387.159 828.475 385.751C826.125 384.343 825.361 381.296 826.769 378.946Z" fill="black" stroke="#FFA468"/>
<path d="M802.261 385.95C803.669 383.6 806.715 382.836 809.065 384.244C811.416 385.652 812.179 388.699 810.771 391.049C809.363 393.399 806.317 394.163 803.967 392.755C801.617 391.346 800.853 388.3 802.261 385.95Z" fill="black" stroke="#FFA468"/>
<path d="M791.818 358.008C793.226 355.658 796.274 354.894 798.624 356.302C800.901 357.666 801.688 360.568 800.455 362.885L800.33 363.107V363.108C798.922 365.458 795.875 366.221 793.524 364.813H793.523C791.249 363.448 790.461 360.547 791.693 358.231L791.818 358.008Z" fill="black" stroke="#FFA468"/>
<path d="M814.343 353.841C815.751 351.491 818.797 350.727 821.147 352.135C823.498 353.543 824.261 356.59 822.854 358.94C821.445 361.29 818.399 362.054 816.049 360.646C813.699 359.238 812.935 356.191 814.343 353.841Z" fill="black" stroke="#FFA468"/>
<path d="M810.335 322.699C811.743 320.349 814.791 319.585 817.141 320.993C819.49 322.401 820.254 325.448 818.847 327.798C817.483 330.074 814.58 330.863 812.264 329.63L812.041 329.504C809.69 328.096 808.927 325.049 810.335 322.699Z" fill="black" stroke="#FFA468"/>
<path d="M852.757 306.865C854.165 304.515 857.211 303.751 859.562 305.159C861.912 306.567 862.676 309.614 861.268 311.964C859.859 314.314 856.813 315.078 854.463 313.67C852.113 312.262 851.349 309.215 852.757 306.865Z" fill="black" stroke="#FFA468"/>
<path d="M862.12 264.463C863.528 262.112 866.575 261.349 868.925 262.757C871.275 264.165 872.039 267.212 870.631 269.562C869.223 271.912 866.176 272.676 863.826 271.269C861.55 269.905 860.761 267.002 861.994 264.686L862.12 264.463Z" fill="black" stroke="#FFA468"/>
<path d="M911.331 242.119C912.739 239.769 915.786 239.005 918.136 240.413C920.486 241.821 921.25 244.868 919.842 247.218C918.434 249.568 915.387 250.332 913.037 248.924C910.687 247.516 909.923 244.469 911.331 242.119Z" fill="black" stroke="#FFA468"/>
<path d="M919.425 200.21C920.833 197.86 923.879 197.096 926.229 198.504C928.58 199.912 929.344 202.959 927.936 205.309C926.527 207.659 923.481 208.423 921.131 207.015C918.781 205.606 918.017 202.56 919.425 200.21Z" fill="black" stroke="#FFA468"/>
<path d="M968.761 206.644C970.169 204.294 973.215 203.53 975.565 204.938C977.916 206.346 978.679 209.393 977.271 211.743C975.863 214.093 972.817 214.857 970.467 213.449C968.117 212.041 967.353 208.994 968.761 206.644Z" fill="black" stroke="#FFA468"/>
<path d="M1017.38 185.088C1018.79 182.738 1021.83 181.974 1024.18 183.382C1026.53 184.79 1027.3 187.837 1025.89 190.187C1024.48 192.537 1021.43 193.301 1019.08 191.893C1016.81 190.529 1016.02 187.628 1017.25 185.311L1017.38 185.088Z" fill="black" stroke="#FFA468"/>
</svg>
