<svg width="100" height="12" viewBox="0 0 100 12" fill="none" xmlns="http://www.w3.org/2000/svg">
<path d="M12.9668 0.786621C12.0781 0.786621 11.3626 1.50207 11.3626 2.39076V8.40629C11.3626 9.29498 12.0781 10.0104 12.9668 10.0104H15.1056V11.2135H17.1108V10.0104H19.3833C20.272 10.0104 20.9875 9.29498 20.9875 8.40629V2.39076C20.9875 1.50207 20.272 0.786621 19.3833 0.786621H12.9668ZM13.3678 2.39076H18.8486V8.27261H17.1108V7.33686H15.1056V8.27261H13.3678V2.39076ZM1.8715 0.786621C0.982802 0.786621 0.267356 1.50207 0.267356 2.39076V4.52962C0.267356 5.41831 0.982802 6.13376 1.8715 6.13376H8.02069V8.27261H0V8.40629C0 9.29498 0.715446 10.0104 1.60414 10.0104H8.15437C9.04307 10.0104 9.75851 9.29498 9.75851 8.40629V6.00008C9.75851 5.11138 9.04307 4.39594 8.15437 4.39594H2.00517V2.39076H7.75334V3.19283H9.62483V2.39076C9.62483 1.50207 8.90939 0.786621 8.02069 0.786621H1.8715ZM22.5916 0.786621V8.40629C22.5916 9.29498 23.3071 10.0104 24.1958 10.0104H29.9439C30.8326 10.0104 31.5481 9.29498 31.5481 8.40629V0.786621H29.5429V8.27261H24.5968V0.786621H24.1958H22.5916ZM36.561 0.920299L31.9491 10.0104H33.9543L34.9736 8.00525H40.1536L41.1729 10.0104H43.1781L38.5662 0.920299L38.4993 0.786621H36.6278L36.561 0.920299ZM37.5636 2.8962L39.3432 6.40111H35.7841L37.5636 2.8962ZM44.1138 0.786621V10.0104H46.119V6.53479H47.3889L50.7309 10.0104H53.4045L50.0625 6.53479H51.0651C51.9538 6.53479 52.6692 5.81934 52.6692 4.93065V2.39076C52.6692 1.50207 51.9538 0.786621 51.0651 0.786621H45.718H44.1138ZM46.119 2.39076H50.1293C50.4256 2.39076 50.664 2.62924 50.664 2.92547V4.39594C50.664 4.69217 50.4256 4.93065 50.1293 4.93065H46.119V2.39076ZM54.407 0.786621V10.0104H62.1604V8.27261H56.4122V2.39076H62.1604V0.786621H54.407Z" fill="white"/>
<path d="M58.1499 4.396H61.4919V6.13382H58.1499V4.396Z" fill="#E20A16"/>
<path d="M66.438 0.786621V10.0104H74.1913V8.27261H68.4432V2.39076H74.1913V0.786621H66.438Z" fill="white"/>
<path d="M70.1812 4.396H73.5231V6.13382H70.1812V4.396Z" fill="#E20A16"/>
<path d="M75.7959 0.786621V10.0104H77.6674V3.48532L82.4798 9.2252L82.6135 9.38401L83.1399 10.0104H84.485V0.786621H82.4798V6.99438L77.6674 1.2545L77.2748 0.786621H75.7959ZM86.0891 0.786621H88.228V10.0104H86.0891V0.786621ZM89.2891 0.786621L93.3036 5.24399L89.264 10.0104H91.6702L94.5443 6.62248L97.5939 10.0104H100L95.7098 5.24399L99.4904 0.786621H97.0842L94.469 3.86964L91.6953 0.786621H89.2891Z" fill="white"/>
</svg>
