<svg width="90" height="100" viewBox="0 0 90 100" fill="none" xmlns="http://www.w3.org/2000/svg">
<path d="M56.8608 99.9636C56.8608 99.9258 57.2229 99.0393 57.6651 97.993C58.1072 96.9471 58.4693 95.9809 58.4693 95.8459C58.4693 95.7113 57.7451 93.7101 56.8608 91.3996C55.9765 89.0888 55.2523 87.1156 55.2523 87.0148C55.2523 86.8933 55.6766 86.8318 56.5111 86.8318H57.7695L58.7885 90.008C59.3489 91.7548 59.8311 93.1122 59.8602 93.0234C59.8893 92.935 60.3358 91.5241 60.8526 89.8872L61.7918 86.9122L63.1056 86.8653C63.8283 86.8398 64.4197 86.8489 64.4197 86.886C64.4197 86.9835 60.3285 97.8285 59.8598 98.9741L59.4646 99.9389L58.1625 99.9858C57.4467 100.011 56.8608 100.001 56.8608 99.9636ZM3.1974 96.4824C1.91096 96.212 0.999362 95.5162 0.354507 94.312C0.0535504 93.7505 0.00878906 93.4059 0.00878906 91.6566C0.00878906 89.4523 0.184559 88.877 1.15876 87.8915C2.2192 86.8187 4.40341 86.4406 6.48208 86.9701L7.32636 87.1855V89.2787L6.88421 89.1648C6.01009 88.9392 4.82082 88.8362 4.15595 88.9287C2.9332 89.0986 2.34075 89.9891 2.34075 91.6566C2.34075 93.2771 2.88116 94.1323 4.07443 94.4005C4.64941 94.5296 5.45002 94.4525 6.89221 94.1293L7.34274 94.0282L7.29434 95.038C7.24594 96.045 7.24412 96.0486 6.64803 96.2542C5.8365 96.5344 4.01693 96.6545 3.1974 96.4824ZM19.0509 96.4886C17.6946 96.2419 16.9038 95.6425 16.3878 94.4689C16.1549 93.9397 16.0945 93.2159 16.0425 90.3297L15.9795 86.8318H18.405L18.4545 90.1161C18.5025 93.3127 18.5138 93.411 18.8832 93.804C19.6194 94.5864 21.4764 94.4532 21.9146 93.5864C22.0576 93.3036 22.1184 92.2428 22.1202 90.008L22.1224 86.8318H24.5347V90.0997C24.5347 93.8426 24.3739 94.7014 23.5114 95.5639C22.689 96.3863 20.7275 96.7932 19.0513 96.4882L19.0509 96.4886ZM40.0546 96.5723C39.9661 96.5366 39.6324 96.4642 39.3136 96.4111C38.3867 96.2568 37.3521 95.4671 36.8292 94.514C36.4165 93.7625 36.3576 93.4761 36.3052 91.9782C36.2553 90.5601 36.2997 90.1459 36.5821 89.3948C37.2528 87.6135 38.5691 86.771 40.698 86.7612C41.4054 86.7575 42.3647 86.8522 42.8287 86.9701L43.6729 87.1855V89.2787L43.2308 89.1648C42.3567 88.9392 41.1678 88.8362 40.5025 88.9287C39.2798 89.0986 38.6873 89.9891 38.6873 91.6566C38.6873 94.2269 40.0142 94.9525 43.2348 94.1439L43.6729 94.034V96.1214L42.9258 96.3095C42.1194 96.5126 40.3166 96.6775 40.0546 96.5723ZM76.2276 86.7703C75.1289 86.7677 74.7865 86.8365 74.015 87.2143C72.3908 88.0087 71.7703 89.2365 71.7703 91.6562C71.7703 94.4721 72.8221 96.0137 75.0579 96.4762C75.9353 96.6582 77.6701 96.5235 78.4118 96.2164C79.9835 95.5653 80.8241 93.9761 80.8241 91.6566C80.8241 89.8053 80.4424 88.7223 79.4777 87.8329C78.5948 87.0192 77.8452 86.7739 76.2276 86.7703ZM76.2192 88.7831C76.3138 88.7853 76.4117 88.7911 76.5136 88.8013C77.8499 88.9294 78.4096 89.7726 78.4096 91.6562C78.4096 92.8316 78.1774 93.6089 77.689 94.0675C77.1271 94.5955 75.7916 94.6916 75.0954 94.2538C74.4458 93.8451 74.2304 93.1901 74.2304 91.6274C74.2304 89.5888 74.8043 88.7507 76.2192 88.7831ZM9.45489 91.8574L9.49747 87.3944L10.3439 87.1138C10.8094 86.9595 11.9131 86.7856 12.7967 86.7281L14.4027 86.6225V88.7383L13.4783 88.8388C12.9692 88.8941 12.3902 88.9731 12.1915 89.0142L11.8294 89.0895V96.3205H9.41231L9.45489 91.8574ZM26.4646 92.2916C26.4646 87.9166 26.5264 87.5571 27.3438 87.1851C28.6648 86.5832 32.0405 86.5519 33.1751 87.1306C34.6759 87.8966 34.8277 88.4159 34.8277 92.777V96.3205H32.5761V93.2887C32.5761 91.5867 32.5019 90.0448 32.4073 89.7726C32.19 89.1499 31.6711 88.9225 30.4673 88.9225C28.7933 88.9225 28.877 88.719 28.877 92.788V96.3205H26.4646V92.2916ZM45.4423 89.8068V83.2935H48.0155V86.9584L48.6185 86.8187C49.4785 86.6185 50.2343 86.6389 51.1903 86.8867C52.3377 87.1844 53.0747 87.7332 53.5991 88.6808C54.0394 89.4771 54.0445 89.52 54.1013 92.903L54.1587 96.3201H51.7143L51.7129 93.4656C51.7129 91.8956 51.6365 90.3395 51.5444 90.0084C51.3286 89.2303 50.7438 88.9225 49.4832 88.9225C47.9002 88.9225 48.0148 88.6266 48.0148 92.7192V96.3205H45.4416V89.8068H45.4423ZM65.9048 91.8574L65.9477 87.3944L66.7938 87.1138C67.2596 86.9595 68.363 86.7856 69.2466 86.7281L70.8529 86.6225V88.7383L69.9278 88.8388C69.4195 88.8941 68.8405 88.9731 68.6414 89.0142L68.2797 89.0895V96.3205H65.8622L65.9048 91.8574ZM82.5931 89.8068V83.2935H85.1664V96.3205H82.5931V89.8068ZM87.5787 89.8068V83.2935H89.9911V96.3205H87.5787V89.8068Z" fill="white"/>
<path d="M41.341 75.6207C40.0532 75.5006 36.6644 74.9137 35.4071 74.5927C24.5395 71.8178 15.3362 64.3762 10.4655 54.4253C7.7955 48.9703 6.68266 44.0916 6.68702 37.86C6.69139 31.621 7.82134 26.6449 10.4481 21.2946C12.4158 17.2879 14.6786 14.1488 17.8912 10.9704C23.9009 5.02589 31.5128 1.34527 40.135 0.216407C42.9539 -0.152602 48.921 -0.0325103 51.5535 0.446036C57.029 1.44207 61.9444 3.3981 66.3495 6.33343C75.502 12.4326 81.4378 21.7597 82.9855 32.4726C83.3166 34.7663 83.5088 39.5398 83.2853 39.9383C83.1638 40.1559 83.1005 39.9281 83.0208 38.9848C82.6256 34.3111 80.6037 28.6595 77.8143 24.4316C69.3358 11.5807 53.5169 6.12854 38.8708 11.0094C27.5662 14.7766 19.0703 24.334 16.7383 35.9069C15.5854 41.6294 15.9312 47.2388 17.7791 52.7761C21.0372 62.542 28.8355 70.3436 38.7256 73.7317C41.0579 74.5308 44.0533 75.1968 46.0283 75.3551C48.3937 75.545 47.7976 75.7255 44.8794 75.703C43.2873 75.691 41.6951 75.6535 41.341 75.6207Z" fill="#F78B24"/>
<path d="M49.4627 70.8992C37.2377 70.0087 27.1085 60.8934 24.9946 48.8799C24.6099 46.6935 24.536 42.6061 24.8443 40.594C26.6773 28.6478 35.8665 19.5842 47.8545 17.8996C50.2844 17.5583 54.6142 17.6776 56.9415 18.1507C58.9655 18.5619 61.2094 19.2927 62.9722 20.1137L64.3391 20.7505L63.0527 21.3579C58.4095 23.5505 55.544 28.6791 56.2165 33.5923C56.8901 38.5124 60.2924 42.3735 65.1768 43.7619C66.9352 44.2619 69.6238 44.2615 71.3834 43.7619C73.6578 43.1152 75.4417 42.058 77.0651 40.3942C77.6132 39.8323 78.0968 39.4305 78.1398 39.5008C78.1831 39.5714 78.3083 40.3458 78.4182 41.2221C78.6897 43.3834 78.5303 47.4952 78.0957 49.5484C76.7118 56.0869 73.2244 61.5754 67.8771 65.6305C62.8161 69.4683 56.1208 71.384 49.4627 70.8992Z" fill="#F78B24"/>
</svg>
