<svg width="360" height="360" viewBox="0 0 360 360" fill="none" xmlns="http://www.w3.org/2000/svg">
<path d="M238.595 0.423752C237.559 0.659169 235.959 0.988753 235.064 1.13C232.38 1.64792 229.979 3.06042 229.791 4.23751C229.696 4.94376 229.273 5.36752 228.566 5.46168C227.625 5.60293 227.484 5.46168 227.625 4.2846C227.766 3.06043 227.625 2.96626 225.977 2.82501C222.304 2.49542 215.289 6.21502 215.289 8.42794C215.289 10.4996 211.24 12.5713 208.838 11.6296C207.708 11.2059 207.661 11.1117 207.991 7.76877L208.321 4.2846L206.578 2.87209C204.836 1.41251 204.789 1.4125 200.034 1.60084C193.113 1.83626 191.418 1.83626 187.651 1.50667C185.391 1.31834 183.413 1.45959 181.53 1.93042C179.411 2.49543 178.14 2.54251 175.974 2.16584C172.584 1.60084 167.97 1.93042 165.569 2.96626C164.392 3.43709 161.755 3.71959 157.423 3.86084C153.892 3.95501 150.502 4.23751 149.843 4.47293C149.137 4.75543 146.594 4.70834 143.487 4.47293C138.637 4.04918 138.119 4.04918 136.047 4.99085C134.164 5.83835 133.835 6.16793 134.07 6.92127C134.211 7.43919 134.117 7.9571 133.835 8.14544C133.599 8.28669 133.364 9.04002 133.364 9.84044C133.364 10.735 133.128 11.2059 132.657 11.2059C132.281 11.2059 131.951 10.9704 131.951 10.6879C131.951 10.3584 130.868 10.2642 128.797 10.4054C127.007 10.5467 125.36 10.4996 125.124 10.2642C124.842 10.0288 119.003 9.74627 112.176 9.65211C105.302 9.55794 98.9457 9.27544 98.0511 8.99294C97.0624 8.75752 94.9907 8.71044 92.872 8.94585C90.9415 9.18127 86.6099 9.55794 83.2199 9.79336C79.8769 10.0288 76.534 10.4996 75.8278 10.7821C75.1215 11.0646 73.5678 12.43 72.2965 13.7484L70.0365 16.2438L66.0344 16.5734C63.3036 16.8088 61.7498 17.1855 61.2319 17.7034C60.7611 18.1742 60.0077 18.8805 59.4898 19.3513C58.2186 20.5755 58.0302 27.3084 58.8777 41.8101C59.3956 50.5676 59.6311 65.8227 59.7252 98.0277C59.8194 122.323 59.9606 142.522 60.149 142.945C60.3844 143.557 60.5256 143.557 61.2319 142.898C61.7027 142.474 62.8327 141.815 63.8215 141.392C64.7631 141.015 65.5636 140.45 65.5636 140.214C65.5636 139.932 66.4582 139.744 67.494 139.744C68.8594 139.744 70.1777 139.32 71.7786 138.331C73.0027 137.531 74.4153 136.919 74.839 136.919C75.2628 136.919 76.0161 136.542 76.4869 136.118C77.1461 135.553 77.4757 135.459 77.8994 135.883C78.2761 136.259 78.229 136.495 77.5228 136.73C77.0519 136.919 75.8748 137.672 74.9332 138.425C73.9444 139.132 72.3436 140.12 71.3548 140.591C68.9536 141.627 59.631 148.501 59.1602 149.537C58.9719 150.008 58.6894 162.532 58.5952 177.41C58.454 198.457 58.5952 207.638 59.1602 218.608C59.584 226.377 60.149 240.549 60.3844 250.154C60.6669 259.712 60.9965 268.281 61.1377 269.129C61.5144 271.012 63.9156 272.284 66.5052 271.86C67.494 271.719 68.3886 271.86 68.8594 272.236C69.2361 272.566 70.4602 273.084 71.5432 273.366C74.0857 274.12 75.9219 276.239 75.9219 278.546C75.9219 279.487 76.2986 280.711 76.7694 281.276C77.5228 282.218 81.7603 283.819 83.4553 283.819C84.444 283.819 88.7757 285.09 90.8945 285.985C91.742 286.361 92.919 286.644 93.5311 286.644C94.1432 286.644 95.4616 286.974 96.4503 287.397C97.7686 287.962 100.076 288.198 104.643 288.292C108.692 288.339 111.47 288.622 112.176 288.998C112.882 289.375 114.201 289.469 115.849 289.328C118.768 288.998 120.369 287.821 120.84 285.702C121.169 283.913 122.487 283.584 126.113 284.29C127.667 284.619 132.987 284.949 138.025 285.043L147.112 285.231L149.466 283.066C151.538 281.088 151.915 280.947 153.28 281.276C154.128 281.465 156.576 281.606 158.742 281.559C162.367 281.512 162.791 281.606 163.591 282.642C164.345 283.631 164.721 283.725 167.17 283.489C168.629 283.348 170.042 283.019 170.324 282.783C170.607 282.548 171.078 282.783 171.548 283.395L172.302 284.431L173.196 283.442C174.373 282.03 175.08 282.171 175.692 283.866C176.115 285.137 176.351 285.279 177.716 285.137C179.223 284.996 179.411 284.761 180.259 281.559C180.494 280.617 187.368 280.853 190.617 281.889C194.572 283.16 196.079 283.866 197.35 285.09C199.139 286.832 202.011 287.915 206.908 288.81C211.428 289.61 211.475 289.61 215.383 288.527C220.468 287.068 224.941 287.021 227.672 288.386C228.755 288.904 230.403 289.61 231.297 289.846C234.216 290.74 243.539 291.776 251.684 292.106L259.594 292.388L261.289 290.834C263.455 288.716 263.691 288.198 264.256 284.29C264.632 281.747 265.056 280.523 266.045 279.393C266.751 278.546 268.634 276.286 270.282 274.355C271.883 272.425 273.437 270.589 273.719 270.259C274.332 269.553 285.49 269.506 289.069 270.259C291.282 270.73 291.705 270.683 293.73 269.647C297.45 267.764 297.873 266.822 298.156 259.618C298.391 253.497 298.438 253.356 300.039 250.861C301.64 248.365 301.687 248.177 301.546 244.033C301.452 241.726 301.216 239.043 301.028 238.148C300.651 236.547 300.651 230.097 301.169 203.306C301.405 192.571 301.405 145.3 301.216 121.617C301.169 118.227 301.122 110.74 301.075 104.902C300.981 92.5661 301.357 56.0764 301.687 42.7518C301.922 35.548 301.781 32.5347 301.216 29.0976C300.792 26.6492 300.275 23.2592 300.039 21.6113C299.851 19.9634 299.427 18.4096 299.145 18.1271C298.862 17.8446 298.627 16.903 298.627 16.1025C298.627 15.255 298.438 14.4546 298.203 14.2663C297.967 14.125 297.591 13.3717 297.45 12.5713C296.979 10.5467 294.954 9.79336 290.057 9.79336C286.667 9.79336 285.773 9.60502 283.372 8.38085C281.535 7.43919 279.887 6.96835 278.522 6.96835C276.168 6.96835 271.459 8.19252 270.377 9.08711C270 9.41669 266.939 11.3 263.549 13.3246C260.207 15.3021 256.911 17.4209 256.252 17.9859C254.698 19.3984 251.684 21.0934 250.743 21.0934C250.178 21.0934 250.084 20.8109 250.366 19.775C250.507 19.0688 250.79 17.7034 250.931 16.7146C251.355 13.5129 255.263 10.2642 256.11 12.43C256.487 13.4659 255.545 14.3134 254.698 13.6071C254.18 13.1834 253.897 13.2304 253.427 13.7484C252.673 14.7371 253.238 15.4434 254.745 15.4434C257.099 15.4434 258.135 14.9255 258.135 13.7955C258.135 12.2417 259.594 11.2059 261.76 11.2059C262.937 11.2059 264.114 10.8763 264.727 10.3584C266.657 8.8046 264.632 7.62752 262.655 9.08711C261.289 10.1229 259.5 9.98169 259.218 8.85169C259.077 8.2396 258.559 7.91002 257.899 7.91002C256.958 7.91002 256.252 7.1096 256.252 6.07376C256.252 5.88543 257.193 5.27335 258.323 4.70834C261.337 3.20167 261.807 2.44834 260.583 1.22417C259.642 0.282504 259.547 0.235419 258.37 1.03584C257.57 1.55376 257.24 2.11875 257.382 2.58959C257.758 3.48417 255.969 5.55585 254.839 5.55585C254.415 5.55585 253.662 5.88543 253.144 6.2621C252.673 6.63877 251.826 6.96835 251.261 6.96835C250.696 6.96835 249.471 7.48627 248.53 8.14544C247.588 8.80461 246.505 9.32252 246.129 9.32252C245.564 9.32252 245.564 9.08711 245.987 8.14544C246.27 7.48627 246.694 6.96835 246.929 6.96835C247.588 6.96835 247.353 5.93252 246.505 5.27335C245.705 4.70835 245.705 4.66126 246.599 4.33168C247.117 4.14335 247.776 3.67251 248.059 3.24876C248.389 2.82501 248.906 2.68376 249.471 2.91918C250.319 3.24876 250.272 3.29584 249.236 4.14334C248.153 4.94376 248.153 4.99084 249.001 5.17918C250.837 5.60293 254.839 3.24876 254.839 1.69501C254.839 0.659171 253.662 0.565003 253.238 1.55376C252.814 2.63667 252.014 2.40126 252.014 1.13V0L246.27 0.0470863C243.068 0.0470863 239.631 0.235418 238.595 0.423752ZM234.028 5.17918C233.887 5.50876 233.51 5.79126 233.181 5.79126C232.851 5.79126 232.474 5.50876 232.38 5.17918C232.239 4.84959 232.569 4.61418 233.181 4.61418C233.793 4.61418 234.122 4.84959 234.028 5.17918ZM235.535 9.27544C235.488 10.5938 232.992 13.7955 231.815 13.9367C230.544 14.125 229.885 13.3717 229.885 11.6296C229.885 10.3584 230.591 9.79336 232.286 9.79336C232.851 9.79336 233.369 9.32252 233.651 8.56919C234.075 7.53335 234.264 7.43919 234.829 7.91002C235.205 8.2396 235.535 8.85169 235.535 9.27544ZM240.714 17.3267C240.714 17.5621 240.384 17.7975 240.008 17.7975C239.631 17.7975 239.301 17.5621 239.301 17.3267C239.301 17.0442 239.631 16.8559 240.008 16.8559C240.384 16.8559 240.714 17.0442 240.714 17.3267ZM202.482 18.8334C202.2 19.6809 201.164 19.8221 201.164 19.0217C201.164 18.598 201.493 18.2684 201.917 18.2684C202.341 18.2684 202.576 18.5038 202.482 18.8334ZM97.2036 20.4813C97.6745 20.905 98.0511 21.4701 98.0511 21.7526C98.0511 22.3176 94.6141 24.7188 91.9303 26.0842C91.0357 26.508 89.1053 27.7321 87.6928 28.8151C85.0561 30.7926 83.2199 31.9226 82.7019 31.9226C82.2311 31.9226 83.0786 29.8038 83.8319 29.1917C84.2557 28.8622 86.139 27.1671 88.0695 25.4251C91.5536 22.2705 95.0849 19.6809 95.8853 19.6809C96.1207 19.6809 96.7328 20.0105 97.2036 20.4813ZM244.01 22.0351C242.362 23.0709 240.949 21.7996 242.174 20.34C242.691 19.728 242.88 19.728 243.727 20.6225C244.575 21.4701 244.622 21.6584 244.01 22.0351ZM229.414 23.4005C229.414 23.8713 228.99 24.7659 228.519 25.4251C227.436 26.7905 222.54 29.2859 221.598 28.9092C220.421 28.4384 220.892 26.8376 222.587 25.5192C226.448 22.6001 229.414 21.6584 229.414 23.4005ZM274.614 25.7546C274.614 26.9317 273.955 27.6851 272.919 27.6851C271.601 27.6851 271.507 27.3555 272.589 26.1784C273.39 25.2838 274.614 25.0484 274.614 25.7546ZM80.4419 32.158C81.1953 32.7701 81.2424 32.9113 80.6303 33.3351C79.5003 34.0884 78.2761 33.9001 78.2761 32.9584C78.2761 31.3576 79.0294 31.0751 80.4419 32.158ZM210.345 32.2051C210.769 32.3934 211.522 33.3822 212.04 34.418C212.935 36.113 212.982 36.5368 212.464 38.9851C211.758 42.2809 212.558 49.9084 213.782 51.6505C214.206 52.2626 214.818 53.1572 215.101 53.6751C215.383 54.193 216.184 55.1347 216.796 55.841C219.621 58.8543 220.421 61.0672 220.751 66.6702C221.033 71.2843 220.986 72.1789 220.233 73.5443C219.479 74.9568 219.432 75.4277 219.903 77.0285C220.845 80.1831 220.186 84.3735 217.361 93.1311C216.607 95.5794 216.513 97.1802 217.125 97.604C217.361 97.7452 217.879 97.2744 218.255 96.5681C222.634 87.9519 223.811 85.4565 224.046 84.2323C224.235 83.4789 224.753 82.4431 225.224 82.0194C225.741 81.5956 226.118 80.9364 226.118 80.6069C226.118 80.2773 226.401 79.4298 226.777 78.6764C231.344 69.7777 233.181 64.8339 233.181 61.7264C233.181 60.1726 233.934 59.231 235.111 59.231C235.535 59.231 236.194 58.8072 236.524 58.2893C236.994 57.5831 238.077 57.2535 240.431 56.9239C243.727 56.4531 244.904 56.7355 248.247 58.7131C248.624 58.9485 250.037 59.5606 251.308 60.0785C252.909 60.6906 254.133 61.6322 255.074 62.9035C255.875 63.9864 256.722 64.8339 256.958 64.8339C257.24 64.8339 258.088 64.3631 258.888 63.7981C263.408 60.6435 268.634 57.0651 269.388 56.6414C269.906 56.3589 270.565 55.9351 270.894 55.6526C272.072 54.8051 274.143 54.0518 274.143 54.5226C274.143 54.758 273.107 55.9822 271.789 57.2535C270.377 58.666 269.435 59.9843 269.435 60.5964C269.435 62.1501 268.634 63.3272 267.41 63.6568C266.751 63.7981 265.904 64.6456 265.386 65.6343C264.915 66.6231 264.02 67.8943 263.408 68.5535C262.843 69.2127 262.514 69.8718 262.655 70.0131C262.843 70.1543 263.079 70.0131 263.173 69.6835C263.502 68.836 265.668 68.9772 265.668 69.8247C265.668 70.2014 265.339 70.531 264.962 70.531C264.538 70.531 263.502 71.2373 262.608 72.0848C261.101 73.5443 261.007 73.7798 260.724 78.2998C260.395 82.961 259.877 84.4206 258.135 86.1156C256.817 87.434 254.509 88.4227 252.155 88.7523C250.884 88.8935 249.33 89.3173 248.624 89.6469C247.918 90.0235 246.599 90.306 245.658 90.306C244.716 90.306 242.88 90.9181 241.326 91.7185C239.866 92.4719 238.407 93.1311 238.077 93.1311C236.429 93.1311 231.909 96.6152 228.755 100.288C225.506 104.054 222.351 108.574 222.351 109.375C222.351 109.61 221.928 110.222 221.457 110.74C219.95 112.341 216.607 119.121 217.078 119.592C217.549 120.063 223.34 117.52 224.235 116.437C224.564 116.061 225.082 115.731 225.412 115.731C226.401 115.731 229.367 111.964 229.885 110.034C230.544 107.727 232.004 105.985 234.028 105.09C235.911 104.337 237.512 104.666 239.631 106.314C240.29 106.832 241.373 107.256 241.985 107.256C244.151 107.256 246.364 109.704 248.954 114.978C249.942 117.002 250.272 118.415 250.319 120.581C250.319 123.641 249.566 127.031 248.577 128.067C247.729 129.009 246.835 130.468 246.552 131.363C246.364 131.834 245.469 132.446 244.528 132.728C243.115 133.152 242.315 133.999 239.584 138.002C236.476 142.616 236.382 142.851 236.665 144.97C236.9 146.712 236.759 147.371 236.006 148.313C235.488 148.972 234.593 149.631 234.028 149.82C233.369 149.961 232.427 151.044 231.58 152.55C230.779 153.916 229.932 155.281 229.696 155.564C228.99 156.223 222.446 159.283 220.845 159.707C220.139 159.848 218.255 161.12 216.654 162.485C215.054 163.803 213.17 165.357 212.464 165.875C211.758 166.393 210.063 167.947 208.65 169.359C207.285 170.725 205.213 172.608 204.083 173.55C202.247 175.056 202.058 175.386 202.2 177.128C202.341 178.87 202.482 179.058 203.659 179.2C204.413 179.294 205.354 179.058 205.778 178.682C206.531 178.07 212.087 175.857 215.054 175.056C217.502 174.397 222.634 171.619 225.694 169.265C228.19 167.429 229.791 167.24 231.768 168.559C234.264 170.254 234.169 171.478 231.439 172.937C225.318 176.233 219.903 179.67 219.574 180.424C219.103 181.554 217.643 182.495 216.749 182.26C216.231 182.119 214.865 182.448 213.782 182.966C212.652 183.531 210.486 184.473 208.933 185.179C203.188 187.675 202.671 188.004 201.917 189.558C201.493 190.405 201.258 191.347 201.446 191.583C201.823 192.195 204.648 191.63 207.661 190.311C209.074 189.699 211.004 188.993 211.993 188.71C212.982 188.428 214.912 187.345 216.278 186.215C221.881 181.648 223.105 181.271 226.636 183.108C228.425 184.002 228.519 184.143 228.237 185.556C227.766 187.628 227.342 187.957 224.941 188.004C223.105 188.051 222.54 188.334 220.751 190.076C218.867 191.912 218.632 192.006 218.208 191.253C217.737 190.405 217.69 190.405 216.843 191.206C216.325 191.63 215.666 192.006 215.336 192.006C215.006 192.006 213.735 192.665 212.511 193.513C211.334 194.313 208.556 195.914 206.343 197.091C204.13 198.221 202.011 199.398 201.635 199.728C201.258 200.01 200.175 200.623 199.281 201.093C197.538 201.988 196.22 203.542 196.691 204.248C196.832 204.436 200.599 204.625 205.072 204.672C213.406 204.672 218.444 203.965 220.044 202.553C220.421 202.176 221.033 201.894 221.363 201.894C221.645 201.894 222.163 201.376 222.446 200.717C223.058 199.398 223.199 199.351 226.118 200.152C229.979 201.188 232.051 203.259 230.638 204.625C230.167 205.095 228.472 205.331 224.611 205.472C217.69 205.708 211.805 206.838 210.11 208.25C209.733 208.58 208.886 208.956 208.226 209.098C206.814 209.427 199.846 211.216 198.716 211.593C195.278 212.629 203.094 218.703 210.534 220.727C216.184 222.328 226.589 221.81 236.665 219.503C241.467 218.373 246.741 215.642 247.682 213.806C248.341 212.488 248.012 201.282 247.259 199.963C246.505 198.692 246.034 179.906 246.599 174.727C246.882 172.137 247.023 171.76 247.729 171.996C248.2 172.137 248.859 171.949 249.189 171.525C249.519 171.148 250.178 170.819 250.649 170.819C251.355 170.819 251.449 171.148 251.261 173.267C251.025 176.092 251.826 179.2 252.579 178.446C252.862 178.164 253.238 175.433 253.427 172.372C253.992 163.662 254.839 156.223 255.592 153.633C257.382 147.23 257.711 142.192 256.204 144.499C255.451 145.629 254.368 143.604 254.368 141.062C254.368 139.037 254.462 138.802 255.451 138.802C256.016 138.802 256.722 138.614 257.005 138.425C257.617 138.049 258.982 134.376 259.171 132.681C259.265 131.881 259.594 131.504 260.254 131.504C260.772 131.457 261.478 131.316 261.854 131.08C263.126 130.28 264.397 132.399 264.585 135.6C264.915 140.591 264.962 140.12 262.561 150.808C261.289 156.317 261.431 171.807 262.749 177.222C263.267 179.341 263.926 181.507 264.209 182.025C264.491 182.542 264.727 183.343 264.727 183.767C264.727 184.567 273.719 198.315 275.791 200.623C276.45 201.376 277.863 202.27 278.993 202.647C281.818 203.636 283.795 206.178 284.172 209.333C284.313 210.698 284.784 212.252 285.208 212.817C285.726 213.57 285.914 215.03 285.914 218.138C285.914 224.023 285.726 224.494 283.607 224.494C280.641 224.494 279.982 225.436 278.993 231.415C278.852 232.357 277.674 234.146 275.65 236.359C273.955 238.242 272.401 239.843 272.213 239.937C271.977 240.031 270.424 241.02 268.634 242.197C266.892 243.327 265.197 244.269 264.821 244.269C264.162 244.269 261.902 245.399 260.489 246.435C259.689 247 255.969 248.036 250.366 249.213C246.788 249.966 245.375 250.39 240.102 252.038C237.418 252.885 224.894 253.026 222.351 252.226C221.457 251.944 219.526 251.567 218.114 251.331C213.17 250.625 209.403 249.589 206.108 248.036C204.318 247.188 201.635 245.964 200.222 245.305C196.361 243.516 190.288 238.76 188.122 235.794C186.333 233.393 185.721 232.216 183.555 227.131C182.048 223.693 181.389 212.958 182.283 208.156C183.461 202.27 183.743 197.609 184.026 181.648C184.308 166.11 184.402 164.321 185.203 162.815C185.721 161.92 186.097 160.931 186.097 160.602C186.097 159.942 188.451 158.577 189.581 158.577C191.182 158.577 193.725 160.649 194.855 162.862C195.749 164.651 196.267 165.169 197.115 165.169C198.857 165.169 211.098 156.647 218.349 150.337C219.385 149.443 220.562 148.454 221.033 148.125C222.069 147.324 223.576 143.463 224.282 139.979C225.224 134.847 225.506 133.811 225.883 133.152C226.118 132.822 226.448 131.739 226.636 130.845C226.824 129.903 227.154 128.679 227.295 128.067C227.954 125.948 226.071 127.031 222.351 130.892C219.338 134.047 218.444 135.271 217.879 137.248C217.408 138.802 216.89 139.744 216.466 139.744C215.666 139.744 215.524 140.497 216.231 140.921C216.796 141.297 216.843 142.098 216.231 143.039C215.854 143.652 215.713 143.604 215.054 142.804C214.3 141.909 214.3 141.909 214.536 143.369C214.724 144.64 214.536 145.064 213.123 146.288C212.229 147.089 211.193 147.748 210.769 147.748C210.392 147.748 208.744 149.019 207.096 150.526C203.236 154.104 201.117 155.14 196.597 155.752C194.572 155.987 192.359 156.317 191.653 156.505C190.711 156.694 190.193 156.505 189.44 155.658C188.875 155.093 188.028 154.151 187.51 153.633C184.402 150.337 185.438 142.333 189.44 138.331C191.936 135.836 192.359 134.612 191.418 132.257C190.57 130.044 191.088 127.973 192.548 127.973C193.018 127.973 194.054 127.549 194.902 127.078C195.702 126.56 196.785 126.278 197.303 126.419C198.574 126.749 199.092 125.666 199.422 121.852C199.798 118.321 198.574 104.007 197.633 100.194C196.503 95.6265 196.032 92.519 195.702 87.9519C195.514 85.5035 195.137 82.961 194.761 82.3019C193.631 80.0889 192.689 77.1227 192.689 75.7573C192.689 75.051 192.171 73.8268 191.559 73.1206C190.382 71.7552 189.77 69.8247 189.817 67.4706V63.186C189.817 61.1614 190.005 60.1726 190.523 59.7018C190.947 59.3722 191.276 58.5247 191.276 57.7714C191.276 57.018 191.465 56.406 191.7 56.406C191.936 56.406 192.312 55.9351 192.501 55.323C192.689 54.758 193.819 53.063 194.996 51.5564C196.173 50.0497 197.68 48.1193 198.386 47.2718C199.045 46.3772 200.222 45.1059 201.023 44.3526C201.823 43.5993 202.859 42.0455 203.33 40.8684C204.978 36.7251 207.143 33.0997 208.273 32.5347C209.639 31.8284 209.403 31.8755 210.345 32.2051ZM148.666 34.0413C150.502 34.6534 152.338 35.2184 152.762 35.2184C153.186 35.2184 154.128 35.5009 154.881 35.8776C155.587 36.2072 157.047 36.9134 158.083 37.3843C160.672 38.6084 164.91 43.0343 166.51 46.1889L167.829 48.8726H172.396C175.362 48.8726 177.246 49.0609 177.716 49.4376C178.376 49.9555 178.799 52.498 179.082 57.3476C179.176 58.9014 178.375 61.8676 177.763 62.1972C177.387 62.4326 177.246 62.9506 177.387 63.4685C177.528 63.9393 177.246 65.1635 176.681 66.1522C176.163 67.141 175.739 68.5064 175.739 69.2597C175.739 70.7193 173.903 72.7439 171.925 73.4502C171.266 73.6856 169.948 74.8627 169.006 76.0868C167.405 78.2527 167.311 78.5352 167.028 83.2435C166.84 85.9744 166.416 90.1648 166.04 92.6131C165.051 98.6869 165.051 98.734 172.255 95.1086C177.198 92.6131 179.788 92.001 182.189 92.8485C185.25 93.8844 185.108 94.6848 179.317 106.314C176.398 112.2 174.891 114.601 171.784 118.227L169.43 120.957L171.219 122.652C172.16 123.594 173.196 124.865 173.479 125.572C173.714 126.231 174.044 130.327 174.185 134.659L174.468 142.474L171.03 146.288C169.1 148.36 167.264 150.902 166.934 151.844C165.475 155.94 163.685 170.348 164.674 170.348C164.768 170.348 165.663 169.83 166.605 169.171C168.394 167.947 169.383 167.711 169.806 168.37C170.089 168.841 168.488 172.467 167.782 172.89C167.499 173.079 167.264 173.879 167.264 174.68C167.264 175.621 166.84 176.516 165.851 177.41C164.439 178.729 164.439 178.823 164.721 182.213C164.863 184.096 165.192 187.345 165.428 189.417C165.663 191.488 165.851 194.737 165.851 196.715C165.851 198.645 166.087 200.999 166.322 201.894C166.605 202.788 167.028 204.389 167.264 205.425C167.499 206.461 168.017 208.485 168.441 209.898C170.136 215.783 170.136 216.301 168.394 219.927C167.546 221.716 166.416 223.505 165.851 223.882C164.957 224.541 164.863 224.965 165.004 230.756C165.098 235.841 164.957 237.253 164.298 238.431C163.168 240.549 161.143 242.856 160.437 242.856C159.401 242.856 159.118 243.704 159.024 247.329C158.977 249.966 158.695 251.19 157.8 252.791C156.576 254.957 150.361 262.631 149.843 262.631C148.807 262.631 144.523 257.688 142.969 254.721L141.18 251.284L142.074 249.636C142.969 247.989 142.875 247.282 141.274 242.621C141.038 241.821 140.52 239.749 140.144 237.913C139.579 235.041 139.579 234.57 140.191 233.911C140.803 233.346 141.085 233.298 141.886 233.863C143.534 234.852 144.146 233.769 142.875 232.027C142.31 231.274 141.839 230.521 141.839 230.379C141.839 229.673 144.287 230.332 146.218 231.556C148.43 232.969 150.926 233.393 151.491 232.498C152.009 231.651 153.186 219.079 152.998 216.49C152.715 212.535 151.255 202.318 150.785 200.481C150.502 199.587 150.314 197.185 150.314 195.208C150.314 193.23 150.125 191.441 149.843 191.3C148.995 190.782 146.877 192.665 145.04 195.538C143.957 197.233 142.31 199.022 140.803 200.058L138.402 201.8L136.707 200.999C131.904 198.786 129.22 197.138 129.032 196.385C128.608 194.784 129.597 192.665 131.81 190.264C133.693 188.287 134.776 187.628 138.072 186.356C145.088 183.767 148.43 182.119 148.807 181.271C149.137 180.33 148.007 176.94 147.206 176.61C146.783 176.469 145.229 177.646 142.922 179.953C139.814 183.06 139.249 183.484 138.637 182.919C138.119 182.354 138.119 182.025 138.496 181.224C139.202 179.953 138.778 179.294 137.319 179.294C136.66 179.294 135.388 178.964 134.447 178.587C131.575 177.363 131.198 177.552 130.162 180.8C127.808 188.334 126.301 197.327 126.301 203.777C126.301 207.732 126.442 208.58 127.667 211.075C130.445 216.866 130.915 219.315 130.115 223.081C129.503 226.001 127.384 229.249 125.171 230.568C123.9 231.368 123.147 231.509 121.64 231.274C120.557 231.086 119.568 230.756 119.427 230.568C119.003 229.861 116.414 230.097 116.131 230.803C115.849 231.556 113.353 232.592 112.93 232.168C112.459 231.651 113.589 230.191 114.577 230.05C116.272 229.814 116.743 228.496 115.802 226.895C115.331 226.095 114.719 223.505 114.389 221.104C113.918 217.949 113.447 216.254 112.694 215.218C111.8 214.041 111.705 213.618 112.129 212.77C112.459 212.252 112.882 211.781 113.118 211.781C113.353 211.781 113.73 210.934 113.871 209.898C114.06 208.862 114.389 207.873 114.577 207.732C114.813 207.591 115.001 207.073 115.001 206.508C115.001 205.99 115.284 204.907 115.66 204.107C116.037 203.259 116.461 202.082 116.555 201.423C116.696 200.764 117.591 197.468 118.532 194.125C119.615 190.311 120.416 186.215 120.651 183.296C120.887 180.706 121.357 177.41 121.734 175.998C122.111 174.585 122.77 172.137 123.194 170.583C123.994 167.664 124.182 167.146 126.725 161.873C128.702 157.871 130.586 154.528 133.74 149.678C136.283 145.723 136.471 144.405 134.305 145.629C133.646 145.959 132.516 146.618 131.716 146.995C130.962 147.371 129.55 148.125 128.655 148.595C126.113 150.008 117.873 153.869 117.402 153.869C116.367 153.869 112.788 156.364 109.916 159.095C103.937 164.792 94.1903 172.184 92.4953 172.231C91.6949 172.278 89.6703 174.444 89.3878 175.621C88.8699 177.834 87.1749 179.152 83.2199 180.471C80.3007 181.46 78.9353 181.695 77.099 181.46C72.9086 180.989 69.5186 177.505 68.624 172.749C68.4357 171.902 67.9177 170.583 67.3998 169.877C64.7161 166.299 70.3661 161.967 79.4532 160.696C82.8903 160.225 84.2557 159.519 87.787 156.364C90.8945 153.633 95.2261 148.737 95.2261 147.983C95.2261 147.795 96.9682 145.912 99.1341 143.793C101.771 141.156 105.82 138.096 111.988 133.952C116.932 130.657 121.405 127.502 121.828 127.031C122.676 126.089 122.629 125.619 121.169 123.264C120.18 121.617 119.568 117.097 119.851 113.189C120.227 108.81 119.898 108.245 117.544 109.139C116.885 109.422 115.566 109.61 114.577 109.61C113.589 109.61 111.8 109.893 110.622 110.269C108.975 110.787 107.279 110.834 103.654 110.552C99.2282 110.222 98.7103 110.034 96.3561 108.433C94.9436 107.444 93.8136 106.456 93.8136 106.22C93.8136 105.938 94.4257 104.949 95.132 104.007C95.8853 103.066 96.827 101.559 97.2507 100.57C97.7216 99.6286 99.0399 97.8865 100.217 96.6623C101.677 95.1556 102.571 93.649 103.089 92.0011C104.031 88.7523 104.36 88.2344 105.396 87.999C106.903 87.7635 114.53 82.961 118.297 79.9948C120.227 78.441 123.335 75.9927 125.171 74.5802C128.232 72.226 128.608 71.7552 129.55 68.8831C130.115 67.1881 130.727 64.6927 130.868 63.3272L131.104 60.8789L128.09 57.8185C125.218 54.8993 122.064 49.673 122.064 47.7897C122.064 46.0005 123.806 43.4109 127.714 39.503C131.104 36.0659 132.187 35.2184 133.317 35.2184C134.07 35.2184 135.435 34.8888 136.33 34.5122C137.272 34.1355 139.061 33.8059 140.285 33.8059C141.509 33.8059 142.875 33.5705 143.251 33.3351C144.287 32.6759 145.04 32.7701 148.666 34.0413ZM274.52 61.491C274.614 61.8206 274.379 62.056 273.955 62.056C273.531 62.056 273.202 61.7264 273.202 61.3026C273.202 60.5022 274.237 60.6435 274.52 61.491ZM273.578 70.8606C273.39 71.8964 271.318 72.3202 271.318 71.3314C271.318 70.4368 271.789 70.0602 272.825 70.0602C273.437 70.0602 273.672 70.3427 273.578 70.8606ZM253.427 144.876C253.427 145.394 253.238 145.912 253.003 146.053C252.485 146.382 252.061 145.394 252.391 144.546C252.72 143.652 253.427 143.887 253.427 144.876ZM249.989 156.082C249.848 156.552 249.754 156.176 249.754 155.281C249.754 154.387 249.848 154.01 249.989 154.434C250.084 154.905 250.084 155.658 249.989 156.082ZM253.427 154.669C253.427 154.905 253.191 155.375 252.956 155.752C252.579 156.317 252.485 156.27 252.485 155.375C252.485 154.81 252.72 154.34 252.956 154.34C253.238 154.34 253.427 154.481 253.427 154.669ZM251.543 165.216C251.543 167.287 251.402 167.994 250.978 167.852C250.649 167.758 250.46 167.335 250.554 167.005C250.649 166.628 250.837 165.451 250.931 164.321C251.308 161.496 251.543 161.873 251.543 165.216ZM237.889 182.354C237.889 182.731 237.23 183.39 236.429 183.814C235.205 184.426 234.734 184.473 233.84 183.955C232.098 183.06 232.474 182.307 234.97 181.836C237.418 181.318 237.889 181.413 237.889 182.354Z" fill="white"/>
<path d="M149.278 93.3195C148.054 93.8374 146.076 95.9561 146.076 96.7095C146.076 96.9449 145.37 97.8395 144.476 98.7811C142.828 100.476 140.991 103.348 139.673 106.314C139.014 107.68 139.014 108.339 139.438 110.364C139.767 111.729 140.285 113.047 140.615 113.33C142.027 114.507 149.561 109.187 150.031 106.691C150.126 106.079 150.549 104.102 150.973 102.265C151.773 98.6399 151.915 96.4741 151.444 94.1199C151.114 92.519 151.067 92.519 149.278 93.3195ZM145.841 149.773C144.805 150.338 143.722 151.326 143.44 151.938C143.11 152.503 142.168 153.775 141.274 154.716C139.673 156.458 138.072 158.718 138.072 159.33C138.072 159.707 145.653 159.048 146.594 158.53C147.112 158.248 147.442 157.165 147.63 154.905C147.818 153.115 148.101 150.997 148.242 150.196C148.619 148.407 148.336 148.36 145.841 149.773ZM114.86 293.989C114.483 294.366 114.907 295.119 115.519 295.119C115.755 295.119 115.943 294.79 115.943 294.413C115.943 293.707 115.378 293.471 114.86 293.989ZM129.362 307.549C125.077 309.527 122.488 313.811 122.393 319.132C122.299 323.652 123.241 326.335 125.83 329.019C129.691 332.974 136.095 334.151 144.193 332.409L147.724 331.609L147.866 325.064C147.96 320.12 147.818 318.425 147.395 318.096C147.065 317.907 144.523 317.719 141.698 317.719H136.66L136.142 318.99C135.388 320.968 136.142 322.616 137.837 322.804C141.133 323.087 141.368 323.275 141.368 325.253C141.368 326.9 141.18 327.23 140.097 327.654C139.343 327.936 137.696 328.03 136.283 327.842C131.622 327.277 129.503 323.699 130.209 317.625C130.398 316.307 130.821 314.753 131.245 314.094C132.281 312.587 134.729 311.127 136.33 311.127C138.072 311.127 140.285 312.305 140.662 313.435C140.897 314.188 141.462 314.376 143.769 314.517C145.323 314.565 146.924 314.47 147.301 314.282C149.09 313.293 147.112 309.291 143.958 307.502C142.31 306.56 141.415 306.419 136.895 306.419C132.422 306.419 131.386 306.56 129.362 307.549ZM187.745 307.643C184.967 309.009 183.743 310.233 182.284 313.058C181.389 314.8 181.201 315.883 181.201 319.602C181.154 323.369 181.342 324.405 182.236 326.053C185.579 332.409 192.548 334.528 202.812 332.362L206.579 331.609L206.72 325.3C206.814 321.062 206.673 318.802 206.296 318.378C205.919 317.908 204.46 317.719 200.929 317.719C198.245 317.719 195.749 317.86 195.326 318.002C194.384 318.378 194.29 321.627 195.184 322.333C195.514 322.616 196.597 322.898 197.633 322.993C199.516 323.134 199.516 323.134 199.657 325.347L199.799 327.513L197.962 327.842C195.561 328.219 192.736 327.701 191.324 326.618C187.18 323.369 187.51 314.706 191.889 312.069C194.431 310.515 197.586 311.08 199.045 313.34C199.704 314.282 200.128 314.423 203.094 314.423C206.955 314.423 207.379 313.952 206.061 311.08C205.449 309.668 204.554 308.773 202.859 307.785C200.599 306.513 200.128 306.419 195.279 306.466C190.759 306.466 189.817 306.607 187.745 307.643ZM44.6115 307.973C44.4703 308.302 44.4232 314.047 44.4703 320.78L44.6115 333.021H51.2032L51.4386 328.313L51.6741 323.605L54.3107 323.463C56.7591 323.322 56.9474 323.416 57.5124 324.64C57.842 325.347 58.2657 327.418 58.4541 329.16C58.6424 331.138 59.0662 332.55 59.4899 332.833C59.8666 333.068 61.5145 333.21 63.2095 333.163L66.2699 333.021L66.2228 331.609C65.9403 325.865 65.0928 322.945 63.2566 321.297C61.9383 320.12 61.9853 319.744 63.6803 318.896C66.4112 317.484 66.6466 311.598 64.1041 309.197C62.4091 307.596 60.8082 307.361 52.0036 307.361C46.6361 307.361 44.7528 307.502 44.6115 307.973ZM57.7478 313.058C59.2074 314.235 59.3487 315.93 58.0303 317.248C56.8062 318.472 52.192 318.614 51.7211 317.437C51.2503 316.165 51.3916 313.246 52.0036 312.634C52.9453 311.692 56.3353 311.928 57.7478 313.058ZM216.937 312.493C211.664 313.858 209.639 316.825 209.639 323.134C209.639 326.571 209.78 327.418 210.769 328.972C212.37 331.468 214.253 332.739 217.408 333.304C222.917 334.34 228.472 331.609 229.791 327.23C231.533 321.392 229.555 315.506 225.082 313.199C223.387 312.305 219.009 311.928 216.937 312.493ZM222.493 317.248C224.094 318.52 224.894 322.051 224.188 325.205C223.576 328.078 222.493 329.113 219.997 329.208C218.538 329.208 217.832 328.972 216.843 327.936C215.619 326.759 215.524 326.383 215.524 322.851C215.524 319.179 215.572 319.038 217.078 317.672C218.867 316.071 220.751 315.883 222.493 317.248ZM257.193 312.87C254.274 313.858 252.909 315.082 251.685 317.625C250.225 320.638 250.225 325.488 251.59 328.172C252.767 330.479 253.097 330.808 255.451 332.268C258.135 333.916 263.691 333.916 266.61 332.268C272.119 329.255 273.39 320.262 269.011 315.224C266.469 312.399 261.478 311.363 257.193 312.87ZM263.079 316.872C264.68 317.578 265.668 320.026 265.668 323.134C265.668 327.607 262.702 330.243 259.312 328.831C255.451 327.183 255.216 319.085 259.03 317.013C260.536 316.165 261.525 316.165 263.079 316.872ZM69.0949 313.058C68.7183 313.623 69.707 315.647 72.6733 320.309C73.3324 321.345 74.0387 322.522 74.227 322.898C74.4154 323.275 74.8391 324.123 75.2158 324.782C75.6395 325.488 75.922 327.277 75.922 329.302C75.922 333.021 76.1104 333.257 78.9354 333.257C81.0541 333.257 81.572 332.503 81.572 329.443C81.572 326.948 82.1841 324.923 83.5966 322.663C84.8679 320.638 86.5158 317.907 86.9866 317.013C87.3162 316.495 87.7871 315.6 88.1637 315.082C89.1525 313.529 88.4933 312.54 86.4216 312.54C84.0675 312.587 83.4554 313.105 81.525 316.777C80.6304 318.472 79.5945 319.885 79.2179 319.932C78.747 320.026 77.9466 318.896 76.8637 316.73C75.9691 314.894 74.8391 313.199 74.4154 312.964C73.3324 312.399 69.4716 312.446 69.0949 313.058ZM91.9304 313.246C91.5537 313.717 91.4125 315.883 91.5537 320.874C91.695 326.524 91.8833 328.172 92.5896 329.631C93.1075 330.667 93.8137 331.562 94.2375 331.703C94.6612 331.891 95.3675 332.315 95.8383 332.692C96.4504 333.257 97.8158 333.445 101.018 333.445C104.737 333.445 105.679 333.257 107.374 332.315C110.34 330.667 110.717 329.443 110.811 320.921C110.858 316.872 110.717 313.34 110.575 313.058C110.105 312.352 106.762 312.399 106.15 313.105C105.914 313.435 105.585 316.777 105.49 320.45C105.349 327.183 105.349 327.23 104.031 328.36C103.325 328.972 102.289 329.49 101.771 329.49C100.453 329.49 98.2396 328.266 97.8629 327.371C97.7217 326.948 97.5804 323.746 97.5804 320.309C97.5804 315.224 97.4392 313.858 96.8271 313.293C95.8854 312.352 92.6837 312.305 91.9304 313.246ZM158.271 313.34C157.894 313.811 156.858 315.977 156.011 318.19C154.222 322.851 151.915 328.595 150.973 330.808C150.078 332.88 150.408 333.257 152.903 333.257C155.116 333.257 155.493 333.021 156.953 330.526L157.847 328.972L161.52 329.113C165.098 329.255 165.145 329.255 165.899 330.808C166.275 331.703 166.934 332.598 167.311 332.833C168.253 333.398 172.302 333.351 172.726 332.739C172.867 332.456 172.679 331.468 172.302 330.526C171.878 329.537 170.56 326.241 169.383 323.134C166.322 315.271 165.757 313.905 165.004 313.199C164.015 312.21 159.118 312.352 158.271 313.34ZM162.273 319.697C163.262 321.345 163.686 324.358 162.932 324.829C161.991 325.441 159.354 325.347 159.166 324.688C159.071 324.405 159.26 323.181 159.683 322.004C160.06 320.827 160.437 319.555 160.484 319.226C160.719 318.331 161.52 318.567 162.273 319.697ZM231.862 313.105C231.062 313.905 231.156 316.165 232.051 316.495C232.474 316.636 233.557 316.777 234.546 316.777C235.488 316.777 236.524 317.013 236.853 317.342C237.23 317.719 237.418 320.026 237.418 324.688C237.418 328.454 237.654 331.844 237.889 332.362C238.266 333.021 238.878 333.257 240.432 333.257C241.562 333.257 242.692 332.974 243.021 332.645C243.304 332.268 243.586 329.066 243.633 324.499L243.775 317.013L246.129 316.872C248.765 316.683 249.66 316.165 249.66 314.706C249.66 312.728 248.954 312.54 240.479 312.54C234.829 312.54 232.239 312.728 231.862 313.105ZM275.132 313.199C274.755 313.623 274.614 316.73 274.708 323.416L274.85 333.021H280.029L280.17 328.407C280.217 325.912 280.5 323.84 280.735 323.84C280.97 323.84 282.195 325.488 283.466 327.465C287.044 333.115 287.327 333.351 290.481 333.163C291.941 333.068 293.212 332.786 293.306 332.503C293.4 332.221 292.082 329.867 290.34 327.324C288.645 324.782 287.233 322.192 287.233 321.58C287.233 320.968 287.845 319.791 288.598 318.99C290.764 316.636 292.506 314.094 292.506 313.293C292.506 312.681 291.941 312.54 289.916 312.54C286.997 312.54 286.95 312.587 283.466 317.154C282.195 318.755 281.018 320.073 280.735 320.073C280.453 320.073 280.264 318.708 280.264 316.872C280.264 314.988 280.029 313.435 279.699 313.105C278.946 312.352 275.791 312.399 275.132 313.199ZM296.79 312.964C296.273 313.293 296.178 314.894 296.178 320.45C296.225 328.784 296.649 330.196 299.615 332.174C301.452 333.351 301.923 333.492 305.878 333.445C310.963 333.351 313.176 332.362 314.682 329.443C315.483 327.795 315.577 326.806 315.483 320.168L315.341 312.775L313.317 312.634C310.068 312.399 309.927 312.681 309.927 320.309V327.042L308.42 328.313C307.196 329.349 306.584 329.537 305.266 329.302C302.346 328.831 301.923 327.795 301.923 320.638C301.923 317.201 301.687 313.952 301.452 313.435C300.934 312.493 298.062 312.163 296.79 312.964ZM253.191 343.05C249.048 344.51 247.07 349.406 248.624 354.397C249.848 358.352 253.003 360 257.382 359.058C260.112 358.493 261.619 356.704 262.42 353.314C263.597 347.9 261.101 343.427 256.487 342.956C255.216 342.815 253.709 342.862 253.191 343.05ZM257.382 345.545C258.888 346.252 260.254 349.595 259.877 351.713C259.406 354.586 258.653 355.857 256.958 356.657C255.357 357.411 255.169 357.411 253.756 356.657C251.826 355.621 251.072 353.926 251.072 350.96C251.12 346.393 253.945 343.992 257.382 345.545ZM99.5108 344.368C97.5333 346.016 97.4392 348.7 99.3225 350.442C100.029 351.101 100.97 351.619 101.347 351.619C102.854 351.619 106.526 353.267 106.809 354.068C107.75 357.128 102.43 358.305 100.876 355.386C100.358 354.444 98.3338 354.068 97.8629 354.868C97.3921 355.621 98.4279 357.646 99.6521 358.446C101.488 359.671 105.679 359.529 107.656 358.164C109.304 357.081 109.822 356.092 109.822 354.162C109.822 352.373 108.174 350.96 104.549 349.689C102.148 348.841 101.065 348.229 100.923 347.617C100.547 345.593 104.69 344.698 106.291 346.44C106.762 346.958 107.656 347.382 108.268 347.382C109.775 347.382 109.728 345.593 108.08 344.227C107.091 343.333 106.291 343.144 103.89 343.144C101.394 343.144 100.735 343.333 99.5108 344.368ZM128.844 343.85C128.326 345.216 129.032 345.922 131.104 346.063L133.128 346.205L133.364 352.561C133.552 357.222 133.741 358.917 134.211 358.87C134.494 358.823 135.012 358.776 135.247 358.729C135.53 358.729 135.718 356.469 135.718 353.079C135.718 349.971 135.859 347.146 136.001 346.723C136.189 346.205 136.895 345.969 138.308 345.969C140.426 345.969 141.651 345.075 141.18 343.85C140.803 342.815 129.22 342.815 128.844 343.85ZM160.06 343.427C159.636 343.85 159.636 353.314 160.013 355.292C160.201 356.281 160.908 357.175 162.132 358.023C163.733 359.106 164.298 359.247 166.84 359.058C169.477 358.87 169.901 358.682 171.36 357.128L172.961 355.386L172.82 349.359L172.679 343.38H170.324L170.089 349.077C169.806 355.763 169.289 356.798 166.322 356.798C163.45 356.798 163.026 355.857 162.65 349.171C162.367 343.803 162.226 343.38 161.378 343.238C160.813 343.144 160.248 343.238 160.06 343.427ZM193.725 343.709C193.348 344.086 193.16 346.393 193.16 350.96C193.16 359.341 193.16 359.341 198.433 359.058C201.164 358.87 202.482 358.588 203.424 357.881C207.379 354.962 207.332 347.382 203.377 344.51C201.682 343.285 201.117 343.144 197.868 343.144C195.702 343.144 194.054 343.38 193.725 343.709ZM201.258 346.063C204.177 347.57 204.13 354.256 201.211 355.857C200.034 356.469 196.597 356.469 196.22 355.857C196.032 355.574 195.891 353.22 195.891 350.631C195.844 347.005 195.985 345.781 196.503 345.451C197.209 345.028 199.94 345.357 201.258 346.063ZM225.694 344.039C225.412 344.557 225.177 347.711 225.177 351.337C225.177 356.469 225.318 357.834 225.93 358.399C226.824 359.341 227.248 359.341 227.954 358.493C228.331 358.07 228.472 355.527 228.378 350.631C228.237 343.568 228.19 343.38 227.201 343.238C226.542 343.144 225.977 343.427 225.694 344.039Z" fill="white"/>
</svg>
