<svg width="525" height="413" viewBox="0 0 525 413" fill="none" xmlns="http://www.w3.org/2000/svg">
<path d="M422.736 11.5244C416.371 11.5244 411.215 16.6846 411.215 23.0529C411.215 29.4184 416.371 34.5731 422.736 34.5731H479.49C485.857 34.5731 491.013 29.4184 491.013 23.0529C491.013 16.686 485.857 11.5244 479.49 11.5244H422.736Z" fill="url(#paint0_linear_329_781)"/>
<path d="M156.598 352.125H11.5229C5.15743 352.125 0 357.285 0 363.654C0 370.019 5.15743 375.175 11.5229 375.175H53.1827C57.1446 375.175 60.3573 378.391 60.3573 382.35C60.3573 386.309 57.1446 389.524 53.1827 389.524H43.3687C37.0031 389.524 31.8429 394.685 31.8429 401.05C31.8429 407.414 37.0031 412.574 43.3687 412.574H116.068C122.435 412.574 127.594 407.414 127.594 401.05C127.594 394.685 122.436 389.524 116.068 389.524H102.438C98.4793 389.524 95.2721 386.309 95.2721 382.35C95.2721 378.391 98.4793 375.175 102.438 375.175H156.596C162.962 375.175 168.119 370.019 168.119 363.654C168.121 357.285 162.963 352.125 156.598 352.125Z" fill="url(#paint1_linear_329_781)"/>
<path d="M368.402 280.889H513.477C519.843 280.889 525 275.729 525 269.361C525 262.995 519.843 257.839 513.477 257.839H482.683C478.721 257.839 475.509 254.623 475.509 250.664C475.509 246.705 478.721 243.49 482.683 243.49H492.497C498.863 243.49 504.023 238.33 504.023 231.964C504.023 225.6 498.863 220.44 492.497 220.44H441.774C435.407 220.44 430.248 225.6 430.248 231.964C430.248 238.33 435.406 243.49 441.774 243.49H449.874C453.833 243.49 457.04 246.705 457.04 250.664C457.04 254.623 453.833 257.839 449.874 257.839H368.404C362.038 257.839 356.881 262.995 356.881 269.361C356.879 275.729 362.038 280.889 368.402 280.889Z" fill="url(#paint2_linear_329_781)"/>
<path d="M188.715 133.435H43.6401C37.2746 133.435 32.1172 138.595 32.1172 144.963C32.1172 151.329 37.2746 156.485 43.6401 156.485H74.434C78.3959 156.485 81.6086 159.7 81.6086 163.659C81.6086 167.618 78.3959 170.834 74.434 170.834H64.62C58.2545 170.834 53.0942 175.994 53.0942 182.36C53.0942 188.724 58.2545 193.884 64.62 193.884H115.343C121.71 193.884 126.869 188.724 126.869 182.36C126.869 175.994 121.712 170.834 115.343 170.834H107.244C103.285 170.834 100.077 167.618 100.077 163.659C100.077 159.7 103.285 156.485 107.244 156.485H188.715C195.08 156.485 200.238 151.329 200.238 144.963C200.238 138.595 195.08 133.435 188.715 133.435Z" fill="url(#paint3_linear_329_781)"/>
<path d="M262.5 342.853C356.897 342.853 433.421 266.33 433.421 171.933C433.421 77.5363 356.897 1.0127 262.5 1.0127C168.104 1.0127 91.5801 77.5363 91.5801 171.933C91.5801 266.33 168.104 342.853 262.5 342.853Z" fill="url(#paint4_linear_329_781)"/>
<path d="M19.9571 0C13.5916 0 8.43555 5.16021 8.43555 11.5285C8.43555 17.894 13.5916 23.0501 19.9571 23.0501H62.6882C69.0537 23.0501 74.2112 17.894 74.2112 11.5285C74.2112 5.16161 69.0551 0 62.6882 0H19.9571Z" fill="url(#paint5_linear_329_781)"/>
<path d="M400.082 362.191C393.717 362.191 388.56 367.352 388.56 373.72C388.56 380.085 393.717 385.24 400.082 385.24H418.914C425.28 385.24 430.437 380.085 430.437 373.72C430.437 367.352 425.281 362.191 418.914 362.191H400.082Z" fill="url(#paint6_linear_329_781)"/>
<defs>
<linearGradient id="paint0_linear_329_781" x1="444.351" y1="11.5244" x2="444.351" y2="34.5731" gradientUnits="userSpaceOnUse">
<stop stop-color="#2F324B"/>
<stop offset="1" stop-color="#505477"/>
</linearGradient>
<linearGradient id="paint1_linear_329_781" x1="69.8106" y1="352.125" x2="69.8106" y2="412.574" gradientUnits="userSpaceOnUse">
<stop stop-color="#2F324B"/>
<stop offset="1" stop-color="#505477"/>
</linearGradient>
<linearGradient id="paint2_linear_329_781" x1="426.691" y1="220.44" x2="426.691" y2="280.889" gradientUnits="userSpaceOnUse">
<stop stop-color="#2F324B"/>
<stop offset="1" stop-color="#505477"/>
</linearGradient>
<linearGradient id="paint3_linear_329_781" x1="101.928" y1="133.435" x2="101.928" y2="193.884" gradientUnits="userSpaceOnUse">
<stop stop-color="#2F324B"/>
<stop offset="1" stop-color="#505477"/>
</linearGradient>
<linearGradient id="paint4_linear_329_781" x1="233.528" y1="1.0127" x2="233.528" y2="342.853" gradientUnits="userSpaceOnUse">
<stop stop-color="#2F324B"/>
<stop offset="1" stop-color="#505477"/>
</linearGradient>
<linearGradient id="paint5_linear_329_781" x1="35.7485" y1="0" x2="35.7485" y2="23.0501" gradientUnits="userSpaceOnUse">
<stop stop-color="#2F324B"/>
<stop offset="1" stop-color="#505477"/>
</linearGradient>
<linearGradient id="paint6_linear_329_781" x1="405.949" y1="362.191" x2="405.949" y2="385.24" gradientUnits="userSpaceOnUse">
<stop stop-color="#2F324B"/>
<stop offset="1" stop-color="#505477"/>
</linearGradient>
</defs>
</svg>
