<svg width="137" height="201" viewBox="0 0 137 201" fill="none" xmlns="http://www.w3.org/2000/svg">
<path d="M75.4838 96.9073L105.783 157.976L114.855 138.284L136.348 142.105L104.037 83.125L75.4838 96.9073Z" fill="#FE5629"/>
<path d="M108.5 152.078L88.0461 110.323L86.5515 111.055L107.602 154.028L108.5 152.078Z" fill="#EED078"/>
<path d="M131.508 141.244L132.014 140.962L102.794 88.626L101.34 89.437L130.129 140.999L131.508 141.244Z" fill="#EED078"/>
<path d="M60.8644 96.9073L30.5652 157.976L21.493 138.284L0 142.105L32.3116 83.125L60.8644 96.9073Z" fill="#FE5629"/>
<path d="M27.8484 152.078L48.3022 110.323L49.7968 111.055L28.7463 154.028L27.8484 152.078Z" fill="#EED078"/>
<path d="M4.83978 141.244L4.33374 140.962L33.5541 88.626L35.0074 89.437L6.21866 140.999L4.83978 141.244Z" fill="#EED078"/>
<path d="M84.5799 104.387L85.2303 200.274L68.222 181.358L50.7909 199.842L52.8806 105.292L84.5799 104.387Z" fill="#FE5629"/>
<path d="M79.7966 193.939L80.2302 107.674L82.4766 107.595L82.0304 196.375L79.7966 193.939Z" fill="#EED078"/>
<path d="M54.7162 195.679L54.137 195.647L56.4806 111.398L58.1433 111.49L55.8345 194.493L54.7162 195.679Z" fill="#EED078"/>
<path d="M6.68311 63.2074L14.1079 56.0598L8.77049 47.2427L17.7963 42.2654L14.9397 32.3635L24.949 29.9012L24.7495 19.597L35.0552 19.7966L37.5178 9.78847L47.421 12.6449L52.3988 3.62032L61.217 8.9572L68.3653 1.5332L75.5139 8.9572L84.3323 3.62032L89.3101 12.6449L99.2136 9.78872L101.676 19.7968L111.982 19.5972L111.782 29.9015L121.791 32.3638L118.935 42.2657L127.96 47.243L122.623 56.0598L130.048 63.2074L122.623 70.3547L127.96 79.172L118.935 84.1494L121.791 94.0513L111.782 96.5136L111.981 106.818L101.676 106.618L99.2131 116.626L89.3098 113.77L84.3321 122.794L75.5139 117.458L68.3653 124.882L61.217 117.458L52.3985 122.794L47.4208 113.77L37.5173 116.626L35.0549 106.618L24.7493 106.817L24.9487 96.5131L14.9395 94.0508L17.796 84.1491L8.77049 79.1718L14.1079 70.3547L6.68311 63.2074Z" fill="#FFCE45"/>
<path d="M10.6381 63.2069L17.587 56.5176L12.5916 48.2657L21.0386 43.6078L18.3654 34.3406L27.7329 32.0362L27.5463 22.3927L37.191 22.5793L39.4957 13.2131L48.7639 15.8862L53.4227 7.44055L61.6755 12.435L68.3654 5.4873L75.0555 12.435L83.3085 7.44055L87.9673 15.8862L97.2355 13.2133L99.5402 22.5795L109.185 22.393L108.998 32.0364L118.366 34.3411L115.692 43.608L124.139 48.2659L119.144 56.5176L126.093 63.2069L119.144 69.8961L124.139 78.1478L115.692 82.806L118.366 92.0732L108.998 94.3776L109.185 104.021L99.54 103.834L97.2353 113.2L87.9671 110.527L83.3083 118.973L75.0555 113.979L68.3654 120.926L61.6755 113.979L53.4224 118.973L48.7639 110.527L39.4954 113.2L37.1907 103.834L27.5458 104.021L27.7326 94.377L18.3651 92.0727L21.0386 82.8057L12.5916 78.1478L17.587 69.8961L10.6381 63.2069Z" fill="#FEA211"/>
<path d="M99.833 94.6712C117.214 77.293 117.214 49.1172 99.833 31.7389C82.4524 14.3606 54.2728 14.3606 36.8922 31.7389C19.5116 49.1172 19.5116 77.2929 36.8922 94.6712C54.2728 112.049 82.4524 112.05 99.833 94.6712Z" fill="#FFB019"/>
<path d="M68.3655 109.369C42.9086 109.369 22.1975 88.6612 22.1975 63.2077C22.1975 37.7539 42.9083 17.0459 68.3655 17.0459C93.8226 17.0459 114.533 37.7539 114.533 63.2077C114.533 88.6612 93.8226 109.369 68.3655 109.369ZM68.3655 17.8656C43.3606 17.8656 23.0176 38.2062 23.0176 63.2077C23.0176 88.2092 43.3606 108.549 68.3655 108.549C93.3703 108.549 113.713 88.2092 113.713 63.2077C113.713 38.2062 93.3706 17.8656 68.3655 17.8656Z" fill="#EED078"/>
<path d="M68.3654 105.828C44.8607 105.828 25.7384 86.7082 25.7384 63.2069C25.7384 39.7057 44.8607 20.5859 68.3654 20.5859C91.87 20.5859 110.992 39.7057 110.992 63.2069C110.992 86.7082 91.87 105.828 68.3654 105.828ZM68.3654 24.2045C46.8565 24.2045 29.3577 41.7009 29.3577 63.2072C29.3577 84.7134 46.8565 102.21 68.3654 102.21C89.8743 102.21 107.373 84.7134 107.373 63.2072C107.373 41.7009 89.8743 24.2045 68.3654 24.2045Z" fill="#CE7E1B"/>
<path d="M51.2337 90.3908C51.2337 90.3908 43.5103 91.9517 42.0139 83.9746C42.0139 83.9746 49.2784 85.2811 51.2337 90.3908Z" fill="#FFE266"/>
<path d="M54.1015 90.8489C54.1015 90.8489 48.8755 90.0614 49.6771 81.584C49.6771 81.584 54.1941 84.0903 54.1015 90.8489Z" fill="#FFE266"/>
<path d="M45.2969 82.5605C45.2969 82.5605 37.4178 82.4819 37.6126 74.3682C37.6126 74.3682 44.4471 77.156 45.2969 82.5605Z" fill="#FFE266"/>
<path d="M48.0067 83.6053C48.0067 83.6053 43.0584 81.7486 45.6053 73.623C45.6053 73.623 49.5026 77.0136 48.0067 83.6053Z" fill="#FFE266"/>
<path d="M41.1041 74.1239C41.1041 74.1239 33.3827 72.554 35.1118 64.624C35.1118 64.624 41.2938 68.6565 41.1041 74.1239Z" fill="#FFE266"/>
<path d="M43.5664 75.6636C43.5664 75.6636 39.06 72.9029 43.1003 65.4072C43.1003 65.4072 46.2848 69.4744 43.5664 75.6636Z" fill="#FFE266"/>
<path d="M38.5328 65.197C38.5328 65.197 31.6243 61.408 35.6276 54.3477C35.6276 54.3477 40.3356 60.0316 38.5328 65.197Z" fill="#FFE266"/>
<path d="M40.4284 67.397C40.4284 67.397 36.9432 63.4245 43.0254 57.4639C43.0254 57.4639 44.8599 62.2925 40.4284 67.397Z" fill="#FFE266"/>
<path d="M38.9981 55.7343C38.9981 55.7343 33.5606 50.0322 39.5138 44.5146C39.5138 44.5146 42.28 51.3572 38.9981 55.7343Z" fill="#FFE266"/>
<path d="M40.1386 58.4048C40.1386 58.4048 38.0197 53.5636 45.6208 49.7236C45.6208 49.7236 45.9075 54.8811 40.1386 58.4048Z" fill="#FFE266"/>
<path d="M86.1079 90.3908C86.1079 90.3908 93.8314 91.9517 95.3277 83.9746C95.3277 83.9746 88.0632 85.2811 86.1079 90.3908Z" fill="#FFE266"/>
<path d="M83.2402 90.8489C83.2402 90.8489 88.4662 90.0614 87.6645 81.584C87.6645 81.584 83.1475 84.0903 83.2402 90.8489Z" fill="#FFE266"/>
<path d="M92.0447 82.5605C92.0447 82.5605 99.9238 82.4819 99.729 74.3682C99.729 74.3682 92.8945 77.156 92.0447 82.5605Z" fill="#FFE266"/>
<path d="M89.3346 83.6053C89.3346 83.6053 94.2829 81.7486 91.7361 73.623C91.7361 73.623 87.8385 77.0136 89.3346 83.6053Z" fill="#FFE266"/>
<path d="M96.2374 74.1239C96.2374 74.1239 103.959 72.554 102.23 64.624C102.23 64.624 96.0478 68.6565 96.2374 74.1239Z" fill="#FFE266"/>
<path d="M93.7749 75.6636C93.7749 75.6636 98.2814 72.9029 94.241 65.4072C94.241 65.4072 91.0566 69.4744 93.7749 75.6636Z" fill="#FFE266"/>
<path d="M98.8087 65.197C98.8087 65.197 105.717 61.408 101.714 54.3477C101.714 54.3477 97.006 60.0316 98.8087 65.197Z" fill="#FFE266"/>
<path d="M96.9132 67.397C96.9132 67.397 100.398 63.4245 94.3162 57.4639C94.3162 57.4639 92.4817 62.2925 96.9132 67.397Z" fill="#FFE266"/>
<path d="M98.3431 55.7343C98.3431 55.7343 103.781 50.0322 97.8274 44.5146C97.8274 44.5146 95.0612 51.3572 98.3431 55.7343Z" fill="#FFE266"/>
<path d="M97.2027 58.4048C97.2027 58.4048 99.3216 53.5636 91.7205 49.7236C91.7205 49.7236 91.4338 54.8811 97.2027 58.4048Z" fill="#FFE266"/>
<path d="M68.3653 110.502C42.2831 110.502 21.0637 89.2861 21.0637 63.2074C21.0637 37.1287 42.2831 15.9121 68.3653 15.9121C94.4476 15.9121 115.667 37.1284 115.667 63.2074C115.667 89.2861 94.4476 110.502 68.3653 110.502ZM68.3653 20.7374C44.9444 20.7374 25.8899 39.7893 25.8899 63.2074C25.8899 86.6252 44.9444 105.677 68.3653 105.677C91.7863 105.677 110.841 86.6252 110.841 63.2074C110.841 39.7893 91.7866 20.7374 68.3653 20.7374Z" fill="#FCD575"/>
<path d="M46.9643 20.0675L49.6194 13.3613L52.1046 20.1604L56.7575 22.8151L52.0117 25.3L49.3566 33.8278L46.8714 25.207L42.2185 22.5526L46.9643 20.0675Z" fill="white"/>
<path d="M68.9011 97.3749C70.8998 97.3749 72.5201 95.7548 72.5201 93.7563C72.5201 91.7578 70.8998 90.1377 68.9011 90.1377C66.9023 90.1377 65.282 91.7578 65.282 93.7563C65.282 95.7548 66.9023 97.3749 68.9011 97.3749Z" fill="#FFE266"/>
<path d="M77.9491 95.566C79.4483 95.566 80.6636 94.3508 80.6636 92.8519C80.6636 91.3529 79.4483 90.1377 77.9491 90.1377C76.4499 90.1377 75.2346 91.3529 75.2346 92.8519C75.2346 94.3508 76.4499 95.566 77.9491 95.566Z" fill="#FFE266"/>
<path d="M58.9483 95.566C60.4474 95.566 61.6628 94.3508 61.6628 92.8519C61.6628 91.3529 60.4474 90.1377 58.9483 90.1377C57.4491 90.1377 56.2338 91.3529 56.2338 92.8519C56.2338 94.3508 57.4491 95.566 58.9483 95.566Z" fill="#FFE266"/>
<path d="M67.9963 28.9385L69.5674 33.7732H74.6519L70.5385 36.7615L72.1096 41.5965L67.9963 38.6083L63.8829 41.5965L65.454 36.7615L61.3407 33.7732H66.4252L67.9963 28.9385Z" fill="#FFE266"/>
</svg>
