<svg width="36" height="36" viewBox="0 0 36 36" fill="none" xmlns="http://www.w3.org/2000/svg">
<g clip-path="url(#clip0_1628_1520)">
<path d="M11.25 0H24.75V2.25H20.25V18H18V2.25H11.25V0Z" fill="white"/>
<path d="M6.75 2.25H11.25V4.5H6.75V2.25Z" fill="white"/>
<path d="M24.75 2.25H29.25V4.5H24.75V2.25Z" fill="white"/>
<path d="M4.5 4.5H6.75V6.75H4.5V4.5Z" fill="white"/>
<path d="M29.25 4.5H31.5V6.75H29.25V4.5Z" fill="white"/>
<path d="M2.25 6.75H4.5V11.25H2.25V6.75Z" fill="white"/>
<path d="M31.5 6.75H33.75V11.25H31.5V6.75Z" fill="white"/>
<path d="M0 11.25H2.25V24.75H0V11.25Z" fill="white"/>
<path d="M33.75 11.25H36V24.75H33.75V11.25Z" fill="white"/>
<path d="M15.75 18H18V20.25H15.75V18Z" fill="white"/>
<path d="M13.5 20.25H15.75V22.5H13.5V20.25Z" fill="white"/>
<path d="M11.25 22.5H13.5V24.75H11.25V22.5Z" fill="white"/>
<path d="M2.25 24.75H4.5V29.25H2.25V24.75Z" fill="white"/>
<path d="M31.5 24.75H33.75V29.25H31.5V24.75Z" fill="white"/>
<path d="M4.5 29.25H6.75V31.5H4.5V29.25Z" fill="white"/>
<path d="M29.25 29.25H31.5V31.5H29.25V29.25Z" fill="white"/>
<path d="M6.75 31.5H11.25V33.75H6.75V31.5Z" fill="white"/>
<path d="M24.75 31.5H29.25V33.75H24.75V31.5Z" fill="white"/>
<path d="M11.25 33.75H24.75V36H11.25V33.75Z" fill="white"/>
</g>
<defs>
<clipPath id="clip0_1628_1520">
<rect width="36" height="36" fill="white"/>
</clipPath>
</defs>
</svg>
