<svg width="36" height="36" viewBox="0 0 36 36" fill="none" xmlns="http://www.w3.org/2000/svg">
<path d="M35.9999 16.3635H31.0908V17.9999H27.8181V19.6363H24.5454V21.2726H22.909V22.909H21.2726V24.5454H19.6363V27.8181H17.9999V31.0908H16.3635V35.9999H13.0908V29.4545H14.7272V26.1817H16.3635V22.909H17.9999V21.2726H19.6363V19.6363H21.2726V17.9999H22.909V16.3635H26.1817V14.7272H29.4545V13.0908H35.9999V16.3635ZM19.6363 35.9999V32.7272H21.2726V27.8181H22.909V26.1817H24.5454V24.5454H26.1817V22.909H27.8181V21.2726H32.7272V19.6363H35.9999V22.909H34.3635V24.5454H29.4545V26.1817H27.8181V27.8181H26.1817V29.4545H24.5454V34.3635H22.909V35.9999H19.6363Z" fill="white"/>
</svg>
