<svg width="36" height="36" viewBox="0 0 36 36" fill="none" xmlns="http://www.w3.org/2000/svg">
<path d="M9.8184 3.27295H26.182V4.90931H27.8184V6.54568H29.4548V8.18204H31.0911V9.8184H32.7275V19.6366H31.0911V21.2729H29.4548V22.9093H27.8184V24.5457H26.182V26.182H24.5457V27.8184H22.9093V29.4548H21.2729V31.0911H19.6366V32.7275H16.3639V31.0911H14.7275V29.4548H13.0911V27.8184H11.4548V26.182H9.8184V24.5457H8.18204V22.9093H6.54568V21.2729H4.90931V19.6366H3.27295V9.8184H4.90931V8.18204H6.54568V6.54568H8.18204V4.90931H9.8184V3.27295ZM24.5457 8.18204V6.54568H22.9093V9.8184H24.5457V11.4548H27.8184V9.8184H26.182V8.18204H24.5457ZM19.6366 9.8184V6.54568H16.3639V9.8184H14.7275V11.4548H21.2729V9.8184H19.6366ZM13.0911 9.8184V6.54568H11.4548V8.18204H9.8184V9.8184H8.18204V11.4548H11.4548V9.8184H13.0911ZM6.54568 18.0002H8.18204V19.6366H9.8184V21.2729H11.4548V22.9093H13.0911V19.6366H11.4548V14.7275H6.54568V18.0002ZM16.3639 19.6366V26.182H19.6366V19.6366H21.2729V14.7275H14.7275V19.6366H16.3639ZM22.9093 19.6366V22.9093H24.5457V21.2729H26.182V19.6366H27.8184V18.0002H29.4548V14.7275H24.5457V19.6366H22.9093Z" fill="white"/>
</svg>
