<svg width="36" height="36" viewBox="0 0 36 36" fill="none" xmlns="http://www.w3.org/2000/svg">
<path d="M20.4124 17.0272L15.5876 12.2024L0 27.7898V34.5603H36V1.43945L20.4124 17.0272ZM11.8763 19.0628L14.4742 16.4649V32.3335H11.8763V19.0628ZM9.64948 32.3335H7.05155V23.8876L9.64948 21.2896V32.3335ZM16.701 16.465L19.299 19.0629V32.3335H16.701V16.465ZM21.5258 19.0629L24.1237 16.465V32.3335H21.5258V19.0629ZM26.3505 14.2382L28.9485 11.6402V32.3335H26.3505V14.2382ZM2.2268 28.7122L4.82474 26.1143V32.3335H2.2268V28.7122ZM33.7732 32.3335H31.1753V9.41342L33.7732 6.81548V32.3335Z" fill="white"/>
</svg>
