<svg width="36" height="36" viewBox="0 0 36 36" fill="none" xmlns="http://www.w3.org/2000/svg">
<path d="M19.6362 32.7275H16.3635V31.0911H14.7271V29.4548H13.0908V27.8184H11.4544V26.182H9.81805V24.5457H8.18168V22.9093H6.54532V21.2729H4.90896V19.6366H3.27259V16.3639H1.63623V8.18204H3.27259V6.54568H4.90896V4.90931H6.54532V3.27295H14.7271V4.90931H16.3635V6.54568H19.6362V4.90931H21.2726V3.27295H29.4544V4.90931H31.0908V6.54568H32.7271V8.18204H34.3635V16.3639H32.7271V19.6366H31.0908V21.2729H29.4544V22.9093H27.818V24.5457H26.1817V26.182H24.5453V27.8184H22.909V29.4548H21.2726V31.0911H19.6362V32.7275ZM8.18168 18.0002V19.6366H9.81805V21.2729H11.4544V22.9093H13.0908V24.5457H14.7271V26.182H16.3635V27.8184H19.6362V26.182H21.2726V24.5457H22.909V22.9093H24.5453V21.2729H26.1817V19.6366H27.818V18.0002H29.4544V14.7275H31.0908V9.8184H29.4544V8.18204H27.818V6.54568H22.909V8.18204H21.2726V9.8184H19.6362V11.4548H16.3635V9.8184H14.7271V8.18204H13.0908V6.54568H8.18168V8.18204H6.54532V9.8184H4.90896V14.7275H6.54532V18.0002H8.18168Z" fill="white"/>
</svg>
