<svg width="36" height="36" viewBox="0 0 36 36" fill="none" xmlns="http://www.w3.org/2000/svg">
<path d="M28.3499 33.75C27.3374 33.75 26.3249 33.4125 25.5374 32.7375L15.8624 24.3C15.0749 23.625 14.0624 23.2875 12.9374 23.4C11.9249 23.5125 10.9124 24.075 10.2374 24.8625C9.89995 25.3125 9.11245 25.425 8.66245 25.0875C8.21245 24.75 8.09995 23.9625 8.43745 23.5125C9.44995 22.1625 11.0249 21.2625 12.5999 21.15C14.2874 20.925 15.9749 21.4875 17.2124 22.6125L26.8874 31.05C27.6749 31.725 28.7999 31.725 29.5874 30.9375C30.3749 30.15 30.3749 28.9125 29.5874 28.125L27.5624 26.1C27.1124 25.65 27.1124 24.975 27.5624 24.525C28.0124 24.075 28.6874 24.075 29.1374 24.525L31.1624 26.55C32.8499 28.2375 32.8499 30.825 31.1624 32.5125C30.5999 33.3 29.4749 33.75 28.3499 33.75Z" fill="white"/>
<path d="M10.6875 7.31255C12.6 5.40005 13.725 3.48755 14.0625 1.57505C11.5875 0.675052 8.66253 1.12505 6.63753 3.15005C4.61253 5.17505 4.05003 8.10005 5.06253 10.6876C6.86253 10.3501 8.88753 9.22505 10.6875 7.31255Z" fill="white"/>
<path d="M16.65 3.14995C16.5375 3.03745 16.3125 2.81245 16.2 2.69995C15.6375 4.72495 14.4 6.86245 12.375 8.88745C10.4625 10.8 8.325 12.15 6.1875 12.7125C6.3 12.825 6.525 13.05 6.6375 13.1625C7.7625 14.2875 9.1125 14.85 10.575 14.85C12.2625 14.85 14.175 13.95 15.8625 12.2625C18.7875 9.22495 19.125 5.73745 16.65 3.14995Z" fill="white"/>
<path d="M30.7124 24.0749C29.8124 20.4749 25.0874 13.9499 20.3624 8.7749C19.9124 10.5749 19.0124 12.3749 17.3249 13.9499C15.7499 15.5249 13.9499 16.5374 12.1499 16.9874C17.3249 21.7124 23.8499 26.4374 27.4499 27.3374C27.5624 27.3374 27.6749 27.3374 27.6749 27.3374C28.0124 27.3374 28.2374 27.2249 28.4624 26.9999L30.3749 25.0874C30.7124 24.8624 30.8249 24.4124 30.7124 24.0749ZM20.8124 17.5499C20.5874 17.7749 20.2499 17.8874 20.0249 17.8874C19.7999 17.8874 19.4624 17.7749 19.2374 17.5499L18.2249 16.5374C17.7749 16.0874 17.7749 15.4124 18.2249 14.9624C18.6749 14.5124 19.3499 14.5124 19.7999 14.9624L20.8124 15.9749C21.2624 16.4249 21.2624 17.2124 20.8124 17.5499Z" fill="white"/>
</svg>
