<svg width="36" height="36" viewBox="0 0 36 36" fill="none" xmlns="http://www.w3.org/2000/svg">
<g clip-path="url(#clip0_1637_1553)">
<path d="M20.8593 5.25928C20.9167 5.25898 20.974 5.26527 21.03 5.27803L27.825 6.9374C27.9937 6.97821 28.1419 7.07876 28.2422 7.22043C28.3425 7.36211 28.3881 7.53532 28.3706 7.70803L27.1312 20.0624C27.1139 20.2398 27.0312 20.4043 26.8991 20.524C26.767 20.6436 26.595 20.7096 26.4168 20.7093H23.8556C23.6742 20.7093 23.4995 20.6407 23.3667 20.5172C23.2338 20.3937 23.1526 20.2245 23.1393 20.0437L22.4831 11.0624C22.4788 11.007 22.4539 10.9553 22.4133 10.9174C22.3727 10.8795 22.3193 10.8583 22.2637 10.858C22.2415 10.8582 22.2194 10.8614 22.1981 10.8674C22.1566 10.88 22.1198 10.9045 22.0921 10.9378C22.0645 10.9711 22.0472 11.0118 22.0425 11.0549L21.4087 20.0305C21.3959 20.2118 21.3149 20.3814 21.182 20.5053C21.0491 20.6291 20.8741 20.698 20.6925 20.698H19.035C18.8652 20.6982 18.7008 20.6382 18.5711 20.5287C18.4413 20.4192 18.3546 20.2673 18.3262 20.0999L17.0625 12.7124C17.0544 12.6604 17.0281 12.6129 16.9883 12.5786C16.9484 12.5442 16.8976 12.5252 16.845 12.5249C16.8228 12.5254 16.8008 12.5285 16.7793 12.5343H16.7681C16.7237 12.5498 16.6854 12.5791 16.6587 12.6179C16.6321 12.6566 16.6185 12.7029 16.62 12.7499L16.71 19.9668C16.7115 20.0619 16.694 20.1564 16.6585 20.2448C16.6231 20.3331 16.5704 20.4135 16.5035 20.4812C16.4367 20.5489 16.357 20.6027 16.2691 20.6392C16.1813 20.6758 16.087 20.6945 15.9918 20.6943H14.5181C14.355 20.6939 14.1968 20.638 14.0697 20.5357C13.9426 20.4335 13.8541 20.291 13.8187 20.1318L12.4012 14.1318C12.3868 14.0864 12.3583 14.0469 12.3199 14.0189C12.2814 13.9909 12.235 13.9759 12.1875 13.9762C12.1651 13.9764 12.143 13.9802 12.1218 13.9874H12.1068C12.0593 14.0024 12.0181 14.0329 11.9899 14.074C11.9617 14.1151 11.9481 14.1645 11.9512 14.2143L12.3468 19.9293C12.3541 20.0282 12.3408 20.1276 12.3077 20.2211C12.2746 20.3147 12.2226 20.4003 12.1547 20.4727C12.0869 20.5451 12.0048 20.6027 11.9136 20.6418C11.8225 20.6809 11.7242 20.7007 11.625 20.6999H10.3125C10.1488 20.7 9.98993 20.6444 9.86212 20.5421C9.7343 20.4399 9.64514 20.2971 9.60933 20.1374L7.82996 11.953C7.79537 11.7942 7.81566 11.6284 7.88752 11.4826C7.95938 11.3369 8.07856 11.2198 8.22558 11.1505L20.5537 5.32678C20.6494 5.28214 20.7537 5.25909 20.8593 5.25928ZM18.6468 26.5143H18.6843L26.1637 26.8987C26.2612 26.9037 26.3565 26.9286 26.4441 26.9717C26.5316 27.0149 26.6094 27.0754 26.6727 27.1496C26.7361 27.2239 26.7836 27.3102 26.8125 27.4034C26.8413 27.4966 26.8509 27.5947 26.8406 27.6918L26.5875 30.103C26.5694 30.2798 26.4867 30.4436 26.3552 30.563C26.2236 30.6824 26.0526 30.749 25.875 30.7499C25.8163 30.7494 25.7578 30.7425 25.7006 30.7293L18.9075 29.0418C18.7956 29.0137 18.6921 28.9591 18.6057 28.8828C18.5192 28.8065 18.4523 28.7105 18.4106 28.603L17.9812 27.4949C17.9389 27.3862 17.9237 27.2688 17.9369 27.1529C17.9501 27.037 17.9914 26.926 18.0571 26.8297C18.1228 26.7333 18.211 26.6544 18.3141 26.5997C18.4172 26.5451 18.532 26.5164 18.6487 26.5162M20.8612 3.01115C20.4231 3.01185 19.9905 3.10848 19.5937 3.29428L7.26371 9.11615C6.65397 9.39959 6.15921 9.88263 5.86123 10.4854C5.56325 11.0882 5.4799 11.7746 5.62496 12.4312L7.40246 20.6118C7.5492 21.2744 7.91749 21.8672 8.44655 22.2923C8.9756 22.7173 9.63379 22.9493 10.3125 22.9499H11.625C12.1291 22.9495 12.6247 22.8205 13.065 22.5749C13.5082 22.8215 14.0071 22.9506 14.5143 22.9499H15.9881C16.5234 22.9519 17.0491 22.808 17.5087 22.5337C17.9693 22.8074 18.4954 22.9512 19.0312 22.9499H20.6887C21.2494 22.953 21.7994 22.797 22.275 22.4999C22.7476 22.7998 23.2958 22.9592 23.8556 22.9593H26.4168C27.1533 22.9613 27.8641 22.6887 28.4102 22.1946C28.9563 21.7004 29.2986 21.0204 29.37 20.2874L30.6093 7.9349C30.6795 7.22197 30.4908 6.50758 30.0777 5.92232C29.6646 5.33706 29.0546 4.92001 28.3593 4.7474L21.5625 3.09178C21.3327 3.03713 21.0974 3.00944 20.8612 3.00928V3.01115ZM18.6468 24.2643C18.1637 24.2641 17.6879 24.3819 17.2606 24.6074C16.8334 24.8328 16.4676 25.1592 16.1951 25.5581C15.9226 25.957 15.7515 26.4163 15.6968 26.8963C15.6421 27.3763 15.7054 27.8624 15.8812 28.3124L16.3125 29.4224C16.485 29.8655 16.7613 30.2608 17.1182 30.575C17.4752 30.8892 17.9023 31.1131 18.3637 31.228L25.1568 32.9155C25.5687 33.0182 25.9978 33.0313 26.4151 32.9539C26.8324 32.8765 27.2283 32.7104 27.576 32.4669C27.9236 32.2234 28.215 31.9081 28.4303 31.5424C28.6457 31.1766 28.7801 30.7689 28.8243 30.3468L29.0775 27.9374C29.1198 27.5365 29.0799 27.1312 28.9603 26.7462C28.8408 26.3613 28.644 26.0047 28.382 25.6983C28.12 25.392 27.7983 25.1422 27.4366 24.9643C27.0749 24.7864 26.6807 24.6841 26.2781 24.6637L18.8006 24.2774H18.6468V24.2643Z" fill="white"/>
</g>
<defs>
<clipPath id="clip0_1637_1553">
<rect width="36" height="36" fill="white"/>
</clipPath>
</defs>
</svg>
