<svg width="36" height="36" viewBox="0 0 36 36" fill="none" xmlns="http://www.w3.org/2000/svg">
<g clip-path="url(#clip0_1637_1556)">
<path d="M18 35.4375C27.6305 35.4375 35.4375 27.6305 35.4375 18C35.4375 8.36953 27.6305 0.5625 18 0.5625C8.36953 0.5625 0.5625 8.36953 0.5625 18C0.5625 27.6305 8.36953 35.4375 18 35.4375Z" stroke="white" stroke-width="1.125"/>
<path d="M18 33.1875C26.3878 33.1875 33.1875 26.3878 33.1875 18C33.1875 9.61218 26.3878 2.8125 18 2.8125C9.61218 2.8125 2.8125 9.61218 2.8125 18C2.8125 26.3878 9.61218 33.1875 18 33.1875Z" stroke="white" stroke-width="1.125"/>
<path d="M3.375 22.1625C4.10625 21.9938 4.8375 21.9375 5.625 21.9375C11.1937 21.9375 15.75 26.1 15.75 31.2188C15.75 31.8375 15.6938 32.4 15.5813 32.9625" stroke="white" stroke-width="1.125"/>
<path d="M33.1312 16.65C29.2499 14.0063 23.9062 12.375 17.9999 12.375C12.0937 12.375 6.7499 14.0063 2.86865 16.65" stroke="white" stroke-width="1.125"/>
<path d="M20.4187 32.9625C20.3062 32.4 20.25 31.7812 20.25 31.2188C20.25 26.1 24.8063 21.9375 30.375 21.9375C31.1625 21.9375 31.8938 21.9938 32.625 22.1625" stroke="white" stroke-width="1.125"/>
<path d="M18 19.6875C18.932 19.6875 19.6875 18.932 19.6875 18C19.6875 17.068 18.932 16.3125 18 16.3125C17.068 16.3125 16.3125 17.068 16.3125 18C16.3125 18.932 17.068 19.6875 18 19.6875Z" stroke="white" stroke-width="1.125"/>
</g>
<defs>
<clipPath id="clip0_1637_1556">
<rect width="36" height="36" fill="white"/>
</clipPath>
</defs>
</svg>
