<svg width="36" height="36" viewBox="0 0 36 36" fill="none" xmlns="http://www.w3.org/2000/svg">
<path d="M9 18H10.5V19.5H19.5V18H21V16.5H22.5V7.5H21V6H19.5V4.5H10.5V6H9V7.5H7.5V16.5H9V18ZM10.5 10.5H12V9H13.5V7.5H16.5V9H18V10.5H19.5V13.5H18V15H16.5V16.5H13.5V15H12V13.5H10.5V10.5Z" fill="white"/>
<path d="M24 22.5H22.5V21H6V22.5H4.5V24H3V31.5H6V27H7.5V25.5H9V24H19.5V25.5H21V27H22.5V31.5H25.5V24H24V22.5Z" fill="white"/>
<path d="M27 18H28.5V16.5H30V7.5H28.5V6H27V4.5H25.5H24V9H25.5V10.5H27V12V13.5H25.5V15H24V19.5H27V18Z" fill="white"/>
<path d="M31.5 24V22.5H30V21H27V25.5H28.5V27H30V31.5H33V24H31.5Z" fill="white"/>
</svg>
