<svg width="36" height="36" viewBox="0 0 36 36" fill="none" xmlns="http://www.w3.org/2000/svg">
<path d="M31.5291 4.99318V3.49243H22.5246V4.99318H21.0239V9.49543H19.5231V12.4969H16.5216V13.9977H13.5201V12.4969H4.51564V13.9977H3.01489V23.0022H4.51564V24.5029H13.5201V23.0022H16.5216V24.5029H19.5231V27.5044H21.0239V32.0067H22.5246V33.5074H31.5291V32.0067H33.0299V23.0022H31.5291V21.5014H24.0254V23.0022H22.5246V21.5014H19.5231V20.0007H18.0224V16.9992H19.5231V15.4984H22.5246V13.9977H24.0254V15.4984H31.5291V13.9977H33.0299V4.99318H31.5291ZM30.0284 10.9962H28.5276V12.4969H25.5261V10.9962H24.0254V7.99468H25.5261V6.49393H28.5276V7.99468H30.0284V10.9962ZM10.5186 20.0007V21.5014H7.51714V20.0007H6.01639V16.9992H7.51714V15.4984H10.5186V16.9992H12.0194V20.0007H10.5186ZM25.5261 24.5029H28.5276V26.0037H30.0284V29.0052H28.5276V30.5059H25.5261V29.0052H24.0254V26.0037H25.5261V24.5029Z" fill="white"/>
</svg>
