<svg width="125" height="125" viewBox="0 0 125 125" fill="none" xmlns="http://www.w3.org/2000/svg">
<g clip-path="url(#clip0_1150_1062)">
<path d="M38.1944 57.2917L34.7222 68.0555H41.6666L38.1944 57.2917Z" fill="white"/>
<path d="M105.208 10.4167H49.6527V27.7778H63.5416V34.7222H18.4028C12.5 34.7222 7.98608 39.2361 7.98608 45.1389V83.3333C7.98608 89.2361 12.5 93.75 18.4028 93.75H21.875V111.458L43.75 93.75H67.0139V69.4444H105.208C111.111 69.4444 115.625 64.9305 115.625 59.0278V20.8333C115.625 14.9305 111.111 10.4167 105.208 10.4167ZM45.4861 79.5139L43.75 73.9583H32.9861L30.9027 79.5139H22.5694L34.0277 48.6111H42.3611L53.8194 79.5139H45.4861ZM98.2639 52.0833V59.0278C93.75 59.0278 88.8889 57.6389 84.7222 55.5555C80.5555 57.6389 75.6944 58.6805 70.8333 59.0278L70.4861 52.0833C72.9166 52.0833 75.3472 51.7361 77.7777 51.0417C74.6527 47.9167 72.5694 44.0972 71.5278 39.9305H78.8194C79.8611 43.0555 81.9444 45.4861 84.375 47.5694C88.1944 44.4444 90.625 39.9305 90.9722 34.7222H70.1389V27.7778H80.5555V20.8333H87.5V27.7778H98.9583L99.3055 31.25C99.6528 38.5417 96.875 45.8333 91.6666 51.0417C94.0972 51.7361 96.1805 52.0833 98.2639 52.0833Z" fill="white"/>
</g>
<defs>
<clipPath id="clip0_1150_1062">
<rect width="125" height="125" fill="white"/>
</clipPath>
</defs>
</svg>
