<svg width="119" height="125" viewBox="0 0 119 125" fill="none" xmlns="http://www.w3.org/2000/svg">
<path d="M1.43188 115.845C1.43188 120.903 5.52881 125 10.5872 125H109.46C114.515 125 118.615 120.903 118.615 115.845V57.5715H1.43188V115.845ZM52.1482 88.8672V75.6455C52.1482 75.4548 52.2512 75.2832 52.4114 75.1916C52.5754 75.1001 52.7737 75.104 52.9341 75.1992L75.0898 88.4248C75.2463 88.5164 75.3416 88.688 75.3416 88.8674C75.3416 89.0505 75.2461 89.2222 75.0898 89.3137L52.9341 102.539C52.7739 102.638 52.5754 102.642 52.4114 102.547C52.2512 102.455 52.1482 102.283 52.1482 102.093V88.8672Z" fill="white"/>
<path d="M16.8967 35.2859L28.2949 51.7617H44L32.6018 35.2859H16.8967Z" fill="white"/>
<path d="M45.0186 35.2859L56.4207 51.7617H72.1296L60.7275 35.2859H45.0186Z" fill="white"/>
<path d="M1.43198 51.7617H15.8744L4.47617 35.2859L12.6969 17.0059L7.4935 17.9709C2.52304 18.8904 -0.765288 23.6587 0.154145 28.6331L1.43198 35.5605V51.7617Z" fill="white"/>
<path d="M73.1443 35.2859L84.5427 51.7617H100.255L88.8533 35.2859H73.1443Z" fill="white"/>
<path d="M101.274 35.2859L112.668 51.7617H118.615V35.2859H101.274Z" fill="white"/>
<path d="M40.3533 11.9058L24.9075 14.7554L16.6907 33.0276L32.1365 30.178L40.3533 11.9058Z" fill="white"/>
<path d="M68.0137 6.79785L52.5679 9.65112L44.3472 27.9236L59.793 25.0703L68.0137 6.79785Z" fill="white"/>
<path d="M95.6741 1.69385L80.2244 4.54712L72.0076 22.8196L87.4534 19.9661L95.6741 1.69385Z" fill="white"/>
<path d="M115.388 7.36621C114.656 3.37988 111.436 0.526367 107.633 0L99.6641 17.7156L116.719 14.5723L115.388 7.36621Z" fill="white"/>
</svg>
