<svg width="125" height="125" viewBox="0 0 125 125" fill="none" xmlns="http://www.w3.org/2000/svg">
<path d="M109.375 19.5312C109.375 26 88.3906 31.25 62.5 31.25C36.6094 31.25 15.625 26 15.625 19.5312C15.625 13.0625 36.6094 7.8125 62.5 7.8125C88.3906 7.8125 109.375 13.0625 109.375 19.5312Z" fill="white"/>
<path d="M62.5 39.0625C36.7188 39.0625 15.625 33.5938 15.625 27.3438V50.7812C15.625 57.0313 36.7188 62.5 62.5 62.5C88.2812 62.5 109.375 57.0313 109.375 50.7812V27.3438C109.375 33.5938 88.2812 39.0625 62.5 39.0625Z" fill="white"/>
<path d="M62.5 70.3125C36.7188 70.3125 15.625 64.8438 15.625 58.5938V82.0312C15.625 88.2813 36.7188 93.75 62.5 93.75C88.2812 93.75 109.375 88.2813 109.375 82.0312V58.5938C109.375 64.8438 88.2812 70.3125 62.5 70.3125Z" fill="white"/>
<path d="M62.5 101.562C36.7188 101.562 15.625 96.0938 15.625 89.8438V113.281C15.625 119.531 36.7188 125 62.5 125C88.2812 125 109.375 119.531 109.375 113.281V89.8438C109.375 96.0938 88.2812 101.562 62.5 101.562Z" fill="white"/>
</svg>
