<svg width="125" height="125" viewBox="0 0 125 125" fill="none" xmlns="http://www.w3.org/2000/svg">
<path d="M93.7266 71.2969H83.1367C83.082 71.293 83.0391 71.2656 82.9844 71.2656C81.3672 71.2656 80.0547 72.5781 80.0547 74.1953C80.0547 74.2031 80.0547 74.2109 80.0547 74.2187C80.0547 78.5312 76.5586 82.0312 72.2422 82.0312C67.9258 82.0312 64.4297 78.5352 64.4297 74.2187C64.4297 74.2109 64.4297 74.2031 64.4297 74.1914C64.4297 72.5742 63.1172 71.2617 61.5 71.2617C61.4453 71.2617 61.4023 71.2891 61.3477 71.293H53.7031V66.0977C59.8906 64.7148 64.4453 59.2695 64.4453 52.7578C64.4453 46.2461 59.8906 40.8047 53.793 39.4375L53.7031 39.4219V31.2383C53.7031 29.6211 52.3906 28.3086 50.7734 28.3086H7.80859C6.19141 28.3086 4.87891 29.6211 4.87891 31.2383V74.1133L4.85938 74.207V117.176C4.85938 118.793 6.17187 120.105 7.78906 120.105L93.7227 120.121C95.3398 120.121 96.6523 118.809 96.6523 117.191V74.2226C96.6523 72.6055 95.3398 71.293 93.7227 71.293L93.7266 71.2969ZM10.7422 34.1719H47.8477V42.0234C47.8477 43.6406 49.1602 44.9531 50.7773 44.9531C55.0937 44.9531 58.5898 48.4492 58.5898 52.7656C58.5898 57.082 55.0937 60.5781 50.7773 60.5781C49.1602 60.5781 47.8477 61.8906 47.8477 63.5078V71.2812H42.6484C41.2773 65.0781 35.8281 60.5078 29.3086 60.5078C22.7891 60.5078 17.3398 65.0781 15.9844 71.1875L15.9687 71.2773H10.7422V34.1719ZM10.7227 77.1406H18.3672C18.4336 77.1445 18.4883 77.1797 18.5547 77.1797C20.1797 77.1562 21.4883 75.8398 21.5 74.2148C21.5117 69.9141 25 66.4297 29.3047 66.4297C33.6133 66.4297 37.1094 69.9219 37.1094 74.2344C37.1094 74.2422 37.1094 74.2461 37.1094 74.2539C37.1094 75.8711 38.4219 77.1836 40.0391 77.1836C40.1055 77.1836 40.1602 77.1484 40.2266 77.1445H47.8359V82.3476C41.6484 83.7344 37.0938 89.1836 37.0938 95.6914C37.0938 101.324 40.5039 106.164 45.375 108.25L45.4648 108.285C46.1328 108.574 46.9258 108.828 47.7461 109.012L47.8359 109.027V114.254H10.7266L10.7227 77.1406ZM90.7969 114.266H53.6914V106.609C53.6953 106.551 53.7266 106.5 53.7266 106.441C53.7031 104.816 52.3867 103.508 50.7656 103.496C46.4609 103.484 42.9766 99.9961 42.9766 95.6914C42.9766 91.3789 46.4727 87.8867 50.7813 87.8867C50.7891 87.8867 50.793 87.8867 50.8008 87.8867C52.418 87.8867 53.7305 86.5742 53.7305 84.957C53.7305 84.8984 53.6992 84.8476 53.6953 84.7891V77.1602H58.9219C60.3164 83.332 65.7539 87.8711 72.25 87.8711C78.7461 87.8711 84.1836 83.332 85.5586 77.25L85.5742 77.1602H90.8008L90.7969 114.266ZM117.164 4.88281H74.2031C72.5859 4.88281 71.2734 6.19531 71.2734 7.8125V18.3672C71.2695 18.4336 71.2344 18.4883 71.2344 18.5547C71.2344 20.1719 72.5469 21.4844 74.1641 21.4844C78.4805 21.4844 81.9766 24.9805 81.9766 29.2969C81.9766 33.6133 78.4805 37.1094 74.1641 37.1094C72.5469 37.1094 71.2344 38.4219 71.2344 40.0391C71.2344 40.1055 71.2695 40.1602 71.2734 40.2266V50.7812C71.2734 52.3984 72.5859 53.7109 74.2031 53.7109H82.3125C83.6953 59.8984 89.1406 64.4531 95.6523 64.4531C102.164 64.4531 107.605 59.8984 108.973 53.8008L108.988 53.7109H117.164C118.781 53.7109 120.094 52.3984 120.094 50.7812V7.8125C120.094 6.19531 118.781 4.88281 117.164 4.88281ZM114.234 47.8516H106.391C104.773 47.8516 103.461 49.1641 103.461 50.7812C103.461 55.0977 99.9648 58.5937 95.6484 58.5937C91.332 58.5937 87.8359 55.0977 87.8359 50.7812C87.8359 49.1641 86.5234 47.8516 84.9063 47.8516H77.1328V42.625C83.3008 41.2266 87.8359 35.793 87.8359 29.2969C87.8359 22.8008 83.3008 17.3672 77.2227 15.9883L77.1328 15.9727V10.7461H114.234V47.8516Z" fill="white"/>
</svg>
