<svg width="800" height="800" viewBox="0 0 800 800" fill="none" xmlns="http://www.w3.org/2000/svg">
<path d="M726.625 471.75L207.75 680.75L183.625 612.5C183.625 612.5 234.625 585.875 217.875 539.5C201.125 493.125 140.5 503.25 140.5 503.25L116.875 433L637.5 227.625L663.25 288.5C663.25 288.5 607.75 322.375 625 370.375C642.25 418.375 703.125 407.125 703.125 407.125L726.625 471.75Z" stroke="#ffffff" stroke-width="37.5"/>
<path d="M231.25 388L259.625 452.25" stroke="#ffffff" stroke-width="37.5" stroke-dasharray="112.5 50"/>
<path d="M272.875 483.125L296.875 537.375" stroke="#ffffff" stroke-width="37.5" stroke-dasharray="112.5 50"/>
<path d="M305.875 563L334.375 627.25" stroke="#ffffff" stroke-width="37.5" stroke-dasharray="112.5 50"/>
<path d="M117.5 431.75L519 133.875L561.25 184.625C561.25 184.625 517.875 233.25 548.75 274" stroke="#ffffff" stroke-width="37.5"/>
</svg>
