<svg width="800" height="800" viewBox="0 0 800 800" fill="none" xmlns="http://www.w3.org/2000/svg">
<path fill-rule="evenodd" clip-rule="evenodd" d="M202.213 175.781H216.406C216.406 176.758 216.536 177.734 216.797 178.711L232.356 237.891C236.784 254.818 244.336 270.768 255.664 282.031C266.015 292.383 279.297 298.828 295.898 298.828H358.138V332.096C358.138 337.37 362.435 341.667 367.643 341.667H439.909C445.182 341.667 449.414 337.37 449.414 332.161V298.828H514.648C531.445 298.828 545.182 292.253 555.794 281.641C567.122 270.312 574.609 254.362 578.255 237.305L590.69 178.841C590.95 177.865 591.08 176.823 591.08 175.781H597.786C631.901 175.781 659.83 203.711 659.83 237.826V687.174C659.83 721.094 632.226 748.893 598.437 749.219V773.763C598.437 788.216 586.653 800 572.2 800C557.747 800 545.963 788.216 545.963 773.763V749.219H254.036V773.763C254.036 788.216 242.252 800 227.799 800C213.346 800 201.562 788.216 201.562 773.763V749.219C167.708 748.893 140.169 721.094 140.169 687.174V237.826C140.169 203.711 168.099 175.781 202.213 175.781ZM248.047 653.711C241.731 653.711 236.588 648.568 236.588 642.253C236.588 635.937 241.731 630.794 248.047 630.794H553.645C559.961 630.794 565.104 635.937 565.104 642.253C565.104 648.568 559.961 653.711 553.645 653.711H248.047ZM248.047 542.773C241.731 542.773 236.588 537.63 236.588 531.315C236.588 525 241.731 519.857 248.047 519.857H553.645C559.961 519.857 565.104 525 565.104 531.315C565.104 537.63 559.961 542.773 553.645 542.773H248.047ZM248.047 431.836C241.731 431.836 236.588 426.693 236.588 420.378C236.588 414.062 241.731 408.919 248.047 408.919H553.645C559.961 408.919 565.104 414.062 565.104 420.378C565.104 426.693 559.961 431.836 553.645 431.836H248.047ZM565.429 187.305H242.708L254.492 232.031C258.007 245.312 263.606 257.552 271.875 265.755C278.06 271.94 286.002 275.846 295.833 275.846H514.648C524.804 275.846 533.138 271.81 539.583 265.365C547.656 257.292 553.125 245.443 555.859 232.552L565.429 187.305ZM243.489 0H558.854C562.5 0 565.494 2.99479 565.494 6.64062V49.349C565.494 52.9948 562.5 55.9896 558.854 55.9896H511.458V163.281H483.593V55.9245H321.744V163.216H293.88V55.9245H243.489C239.843 55.9245 236.849 52.9297 236.849 49.2839V6.64062C236.849 2.99479 239.843 0 243.489 0Z" fill="#ffffff"/>
</svg>
