<svg width="800" height="800" viewBox="0 0 800 800" fill="none" xmlns="http://www.w3.org/2000/svg">
<path d="M700 400H611.167L600 231.133C599.441 222.679 595.684 214.756 589.492 208.973C583.3 203.19 575.139 199.981 566.667 200H500C500 155.797 482.441 113.405 451.185 82.1488C419.928 50.8927 377.536 33.3333 333.333 33.3333C289.131 33.3333 246.738 50.8927 215.482 82.1488C184.226 113.405 166.667 155.797 166.667 200H100C91.5278 199.981 83.3664 203.19 77.1748 208.973C70.9832 214.756 67.2259 222.679 66.6668 231.133L33.3334 731.133C33.0319 735.692 33.6707 740.264 35.2103 744.566C36.7499 748.868 39.1574 752.807 42.2833 756.139C45.4091 759.471 49.1866 762.125 53.3812 763.936C57.5758 765.747 62.0979 766.677 66.6668 766.667H733.333C738.02 766.667 742.655 765.679 746.934 763.767C751.213 761.855 755.041 759.062 758.168 755.57C761.294 752.079 763.65 747.967 765.08 743.503C766.51 739.04 766.982 734.325 766.467 729.667L733.133 429.667C732.231 421.51 728.351 413.974 722.238 408.5C716.124 403.026 708.206 399.999 700 400ZM333.333 99.9999C359.855 99.9999 385.29 110.536 404.044 129.289C422.798 148.043 433.333 173.478 433.333 200H233.333C233.333 173.478 243.869 148.043 262.623 129.289C281.376 110.536 306.812 99.9999 333.333 99.9999ZM102.3 700L131.167 266.667H166.667V333.333C166.667 342.174 170.179 350.652 176.43 356.903C182.681 363.155 191.16 366.667 200 366.667C208.841 366.667 217.319 363.155 223.57 356.903C229.822 350.652 233.333 342.174 233.333 333.333V266.667H433.333V333.333C433.333 342.174 436.845 350.652 443.097 356.903C449.348 363.155 457.826 366.667 466.667 366.667C475.507 366.667 483.986 363.155 490.237 356.903C496.488 350.652 500 342.174 500 333.333V266.667H535.467L564.367 700H102.3ZM631.167 700L615.633 466.667H670.167L696.1 700H631.167Z" fill="#ffffff"/>
</svg>
