<svg width="800" height="800" viewBox="0 0 800 800" fill="none" xmlns="http://www.w3.org/2000/svg">
<path d="M400 425C413.807 425 425 413.807 425 400C425 386.193 413.807 375 400 375C386.193 375 375 386.193 375 400C375 413.807 386.193 425 400 425Z" fill="#ffffff"/>
<path d="M400 50C207.5 50 50 207.5 50 400C50 592.5 207.5 750 400 750C592.5 750 750 592.5 750 400C750 207.5 592.5 50 400 50ZM150 425C135 425 125 415 125 400C125 247.5 247.5 125 400 125C415 125 425 135 425 150C425 165 415 175 400 175C275 175 175 275 175 400C175 415 165 425 150 425ZM225 425C210 425 200 415 200 400C200 290 290 200 400 200C415 200 425 210 425 225C425 240 415 250 400 250C317.5 250 250 317.5 250 400C250 415 240 425 225 425ZM400 525C330 525 275 470 275 400C275 330 330 275 400 275C470 275 525 330 525 400C525 470 470 525 400 525Z" fill="#ffffff"/>
</svg>
