<svg width="800" height="800" viewBox="0 0 800 800" fill="none" xmlns="http://www.w3.org/2000/svg">
<g clip-path="url(#clip0_399_255)">
<path d="M700 710C700 680 800 620 800 555C800 480 730 420 645 395C680 355 700 310 700 255C700 115 555 0 370 0C195 0 0 105 0 255C0 360 80 435 115 465C110 525 85 550 85 550L25 600H100C180 600 245 575 285 545C285 550 285 550 285 555C285 655 395 735 535 735C545 735 555 735 565 735C585 760 650 805 735 805C740 800 700 780 700 710ZM370 50C525 50 650 145 650 255C650 365 520 460 360 460C350 460 330 460 320 460H305L300 470C285 490 225 530 145 545C150 525 150 495 150 455V440C100 400 45 330 45 260C45 150 205 50 370 50Z" fill="#505477"/>
</g>
<defs>
<clipPath id="clip0_399_255">
<rect width="800" height="800" fill="white"/>
</clipPath>
</defs>
</svg>
