<svg width="126" height="200" viewBox="0 0 126 200" fill="none" xmlns="http://www.w3.org/2000/svg">
<path d="M66.1246 89.1035H59.9053V132.633H66.1246V89.1035Z" fill="#FFE266"/>
<path d="M31.3459 151.797C31.3459 139.805 41.0685 130.084 53.0618 130.084H72.968C84.9614 130.084 94.6837 139.805 94.6837 151.797H31.3459V151.797Z" fill="#FFD733"/>
<g opacity="0.48">
<path d="M53.0617 130.084C44.8501 130.084 37.7047 134.642 34.0139 141.365H84.251C84.251 138.066 83.5113 134.941 82.1944 132.14C79.3937 130.824 76.2678 130.084 72.968 130.084H53.0617Z" fill="#FFFFFD"/>
</g>
<path d="M63.2879 0L82.6155 39.1566L125.833 45.4357L94.5606 75.915L101.943 118.952L63.2879 98.6329L24.6328 118.952L32.0153 75.915L0.742676 45.4357L43.9604 39.1566L63.2879 0Z" fill="#FFD733"/>
<path d="M94.5605 75.915L125.833 45.4359L82.6154 39.1566L63.2878 0V98.6329L101.943 118.952L94.5605 75.915Z" fill="#FFE266"/>
<path d="M101.943 118.952L62.3928 65.4727L94.5605 75.9148L101.943 118.952Z" fill="#FFD733"/>
<path d="M82.6155 39.1562L62.3928 65.4726L125.833 45.4356L82.6155 39.1562Z" fill="#FFD733"/>
<g opacity="0.48">
<path d="M62.3928 65.4726L43.9604 39.1562L0.742676 45.4354L62.3928 65.4726Z" fill="#FFFFFD"/>
</g>
<g opacity="0.48">
<path d="M62.3929 65.4727L32.0153 75.9148L24.6328 118.952L62.3929 65.4727Z" fill="#FFFFFD"/>
</g>
<path d="M28.4068 148.942H97.6232C99.9678 148.942 101.868 151.229 101.868 154.049V189.234C101.868 192.054 99.9678 194.34 97.6232 194.34H28.4068C26.0622 194.34 24.1616 192.054 24.1616 189.234V154.049C24.1616 151.229 26.0622 148.942 28.4068 148.942Z" fill="#FE5629"/>
<path d="M40.4347 158.254H85.8767C86.9527 158.254 87.825 159.638 87.825 161.345V186.473C87.825 188.18 86.9527 189.564 85.8767 189.564H40.4347C39.3587 189.564 38.4863 188.18 38.4863 186.473V161.345C38.4863 159.638 39.3587 158.254 40.4347 158.254Z" fill="#FCAB28"/>
<path d="M46.6987 158.254H62.3285C62.6987 158.254 62.9987 159.638 62.9987 161.345V186.473C62.9987 188.18 62.6987 189.564 62.3285 189.564H46.6987C46.3285 189.564 46.0286 188.18 46.0286 186.473V161.345C46.0286 159.638 46.3285 158.254 46.6987 158.254Z" fill="#FFD733"/>
<g opacity="0.35">
<path d="M27.7769 189.174H40.5675L71.6579 148.942H57.0112L27.7769 189.174Z" fill="white"/>
</g>
<path d="M37.3421 57.0309L40.4101 49.2812L43.2821 57.1383L48.6589 60.206L43.1747 63.0775L40.1067 72.9319L37.2347 62.9702L31.8579 59.9025L37.3421 57.0309Z" fill="white"/>
<path d="M50.2401 46.9564L51.5645 43.6113L52.804 47.0027L55.1249 48.3269L52.7578 49.5663L51.4336 53.8197L50.1939 49.52L47.873 48.1958L50.2401 46.9564Z" fill="white"/>
<path d="M25.3825 189.106H100.647C103.197 189.106 105.263 189.655 105.263 190.332V198.774C105.263 199.451 103.196 200 100.647 200H25.3825C22.833 200 20.7664 199.451 20.7664 198.774V190.332C20.7664 189.655 22.833 189.106 25.3825 189.106Z" fill="#CD3414"/>
<path d="M41.2471 132.633C41.2471 124.391 47.9298 117.709 56.1735 117.709H69.8562C78.0999 117.709 84.7827 124.391 84.7827 132.633H41.2471Z" fill="#FFD733"/>
<path opacity="0.48" d="M56.1736 117.709C50.4423 117.709 45.4681 120.941 42.9668 125.679H77.8276C77.8276 123.354 77.2951 121.152 76.3462 119.19C74.3837 118.241 72.1824 117.709 69.8563 117.709H56.1736Z" fill="#FFFFFD"/>
</svg>
