<svg width="87" height="201" viewBox="0 0 87 201" fill="none" xmlns="http://www.w3.org/2000/svg">
<path d="M0.116455 19.8387C0.116455 19.8387 16.1284 59.863 19.4992 82.6138C22.8702 105.364 24.977 140.333 24.977 140.333C24.977 140.333 27.9265 145.389 37.1967 145.389C46.4668 145.389 50.6803 139.912 50.6803 139.912C50.6803 139.912 51.9443 105.786 56.1581 81.7711C60.3717 57.7566 86.4965 0.0371094 86.4965 0.0371094C86.4965 0.0371094 25.3985 7.19922 0.116455 19.8387Z" fill="#FFD733"/>
<path d="M32.5615 143.704V159.292H41.8316V143.282C41.8316 143.282 31.9295 144.336 32.5615 143.704Z" fill="#FFD733"/>
<path d="M43.9385 150.655H30.8761C29.1306 150.655 27.7161 149.241 27.7161 147.496C27.7161 145.75 29.1306 144.336 30.8761 144.336H43.9385C45.6839 144.336 47.0985 145.75 47.0985 147.496C47.0985 149.241 45.6839 150.655 43.9385 150.655Z" fill="#FFE266"/>
<path d="M19.0779 178.672C19.0779 178.672 19.0779 162.662 32.5615 159.292H41.8317C41.8317 159.292 53.2085 159.713 56.1581 178.251C56.1581 178.251 51.1018 182.885 38.4609 182.885C25.82 182.885 19.0779 178.672 19.0779 178.672Z" fill="#FFD733"/>
<path d="M81.6467 0.65332C75.1055 1.52238 62.6898 3.29777 49.0346 5.89841C46.5725 20.481 41.0386 54.6098 38.461 81.3495C35.0899 116.318 37.197 142.439 37.197 142.439C37.197 142.439 46.8884 142.86 47.7311 136.12C47.7311 136.12 48.9951 99.0443 55.3157 65.7609C60.1024 40.553 74.7967 12.6916 81.6467 0.65332Z" fill="#FCAB28"/>
<path d="M29.479 182.119C29.4725 174.653 32.1399 160.977 32.1399 160.977C24.8039 165.123 22.5395 175.298 21.8716 180.002C23.6157 180.7 26.166 181.529 29.479 182.119Z" fill="#FFE266"/>
<path d="M10.9971 175.029L66.6624 176.64C68.5481 176.694 70.0425 177.917 70.0003 179.37L69.4756 197.502C69.4334 198.956 67.8709 200.09 65.9853 200.035L10.3199 198.424C8.43426 198.37 6.93988 197.147 6.98182 195.694L7.50654 177.562C7.54902 176.108 9.11173 174.975 10.9971 175.029Z" fill="#FCAB28"/>
<path d="M20.2707 179.351L57.1546 180.418C58.0281 180.444 58.7203 181.01 58.7007 181.683L58.414 191.592C58.3944 192.265 57.6706 192.79 56.7971 192.765L19.9132 191.698C19.0397 191.673 18.3475 191.107 18.3671 190.433L18.6538 180.525C18.6734 179.851 19.3972 179.326 20.2707 179.351Z" fill="#FFE266"/>
<path d="M25.3553 179.498L38.0414 179.865C38.3418 179.874 38.5694 180.427 38.5501 181.1L38.2634 191.008C38.2438 191.682 37.9845 192.22 37.6842 192.211L24.9981 191.844C24.6977 191.836 24.4699 191.283 24.4895 190.61L24.7762 180.701C24.7955 180.028 25.055 179.489 25.3553 179.498Z" fill="#FFD733"/>
<g opacity="0.35">
<path d="M12.9658 198.502L22.4192 198.776L46.7049 176.063L35.8421 175.749L12.9658 198.502Z" fill="white"/>
</g>
<g opacity="0.35">
<path d="M36.3037 199.176L60.3967 176.458L55.9569 176.33L31.6216 199.041L36.3037 199.176Z" fill="white"/>
</g>
<g opacity="0.48">
<path d="M24.1899 67.2908C27.73 94.9003 28.438 108.351 28.438 108.351C28.438 108.351 32.6861 84.2812 31.2702 53.1321C30.4236 34.5096 28.3122 19.6883 26.7506 10.7744C21.1524 12.194 15.7642 13.7448 10.9053 15.4222C14.5756 25.7221 21.6202 47.2504 24.1899 67.2908Z" fill="#FFFFFD"/>
</g>
<path d="M4.3645 32.511C10.244 29.5616 16.3976 27.1665 22.642 25.0856C28.8901 23.008 35.2412 21.2225 41.6748 19.8032C48.1103 18.4035 54.597 17.2023 61.1438 16.4748L63.5956 16.1824C64.4114 16.0757 65.2302 15.9929 66.052 15.9393L70.9738 15.5578C72.6125 15.4184 74.2599 15.3958 75.9032 15.3379C77.5465 15.2788 79.1898 15.2371 80.8318 15.208C74.2887 15.8677 67.7669 16.5423 61.2925 17.5699C54.8088 18.516 48.3758 19.7692 41.9841 21.1841L37.196 22.2773L32.4363 23.4888C29.2678 24.3151 26.1132 25.1978 22.9744 26.1352C16.7034 28.0294 10.4643 30.0631 4.3645 32.511Z" fill="#FCAB28"/>
<path d="M26.8499 21.6488L29.175 15.7764L31.3513 21.7302L35.4257 24.0548L31.2699 26.231L28.9449 33.6983L26.7685 26.1495L22.6941 23.825L26.8499 21.6488Z" fill="white"/>
<path d="M34.9293 40.4089L36.3564 36.8047L37.692 40.459L40.1928 41.8857L37.6422 43.2214L36.2154 47.8046L34.8795 43.1713L32.3787 41.7446L34.9293 40.4089Z" fill="white"/>
</svg>
