<svg width="134" height="201" viewBox="0 0 134 201" fill="none" xmlns="http://www.w3.org/2000/svg">
<path d="M35.7459 174.618H96.9627C99.0362 174.618 100.717 175.914 100.717 177.512V197.453C100.717 199.051 99.0365 200.347 96.9627 200.347H35.7459C33.6724 200.347 31.9915 199.051 31.9915 197.453V177.512C31.9912 175.914 33.6721 174.618 35.7459 174.618Z" fill="#CD3414"/>
<path d="M46.0731 179.071H86.6353C87.5959 179.071 88.3744 179.671 88.3744 180.412V191.309C88.3744 192.049 87.5959 192.649 86.6353 192.649H46.0731C45.1125 192.649 44.334 192.049 44.334 191.309V180.412C44.334 179.672 45.1125 179.071 46.0731 179.071Z" fill="#FCAB28"/>
<path d="M51.6645 179.071H65.6158C65.9462 179.071 66.2139 179.671 66.2139 180.412V191.309C66.2139 192.049 65.9459 192.649 65.6158 192.649H51.6645C51.3341 192.649 51.0664 192.049 51.0664 191.309V180.412C51.0661 179.672 51.3341 179.071 51.6645 179.071Z" fill="#FFD733"/>
<path opacity="0.35" d="M38.655 200.346H49.0511L75.0145 174.618H63.0683L38.655 200.346Z" fill="white"/>
<path opacity="0.35" d="M64.3202 200.346L90.0715 174.618H85.1889L59.1711 200.346H64.3202Z" fill="white"/>
<path d="M56.3796 57.4038V64.1373H74.8106V56.3408L56.3796 57.4038Z" fill="#FCAB28"/>
<path d="M23.8917 49.1441C23.2444 49.1441 22.5578 49.0381 21.844 48.824C20.9066 48.5429 20.3743 47.5549 20.6558 46.6176C20.9372 45.6804 21.9253 45.1491 22.8624 45.4296C23.3752 45.5834 24.3069 45.77 24.7882 45.2959C25.2689 44.8216 25.5515 43.5053 24.9027 41.2342C23.8033 37.3869 17.5642 30.7404 7.78479 22.9998C1.87439 18.3212 -1.1869 10.7812 0.664411 5.46133C1.79536 2.21094 4.66251 0.34668 8.53034 0.34668C11.492 0.34668 13.7487 1.13252 15.2379 2.68271C17.5679 5.10891 17.4222 8.71085 17.3159 11.3409C17.2773 12.2945 17.2375 13.2804 17.3494 13.7834C17.3589 13.826 17.3689 13.8487 17.372 13.8535C17.7563 14.2285 20.046 14.011 22.0659 13.2254C22.9778 12.8702 24.0051 13.3225 24.3599 14.2346C24.7146 15.1467 24.2625 16.1735 23.3503 16.5282C22.5294 16.8477 18.3037 18.3713 15.7395 17.0011C14.77 16.4833 14.1301 15.6365 13.889 14.5521C13.6771 13.5985 13.7221 12.4857 13.7742 11.1975C13.8638 8.98339 13.9652 6.47416 12.6814 5.13724C11.8865 4.30962 10.4899 3.89023 8.53034 3.89023C6.16366 3.89023 4.64334 4.81063 4.01202 6.62562C2.84872 9.96934 4.80138 16.1177 9.98483 20.2209C17.413 26.1005 26.622 34.3498 28.311 40.2606C29.2507 43.5493 28.8839 46.2332 27.278 47.8177C26.3887 48.6954 25.224 49.1441 23.8917 49.1441Z" fill="#FCAB28"/>
<path d="M109.277 49.1437C107.944 49.1437 106.78 48.6951 105.891 47.8177C104.285 46.2331 103.918 43.5493 104.858 40.2606C106.547 34.3501 115.756 26.1004 123.184 20.2209C128.368 16.1177 130.321 9.96902 129.157 6.62559C128.526 4.81059 127.005 3.8902 124.639 3.8902C122.679 3.8902 121.283 4.3099 120.488 5.13724C119.204 6.47416 119.305 8.98336 119.395 11.1974C119.447 12.4857 119.492 13.5984 119.28 14.552C119.039 15.6364 118.399 16.4832 117.43 17.0011C114.866 18.3704 110.64 16.8477 109.819 16.5282C108.907 16.1738 108.455 15.1466 108.809 14.2345C109.164 13.3225 110.19 12.8713 111.102 13.2248C113.127 14.0061 115.416 14.2242 115.801 13.8486C115.801 13.8486 115.811 13.826 115.82 13.7834C115.932 13.2804 115.892 12.2944 115.853 11.3408C115.747 8.71053 115.601 5.10859 117.931 2.68268C119.42 1.13249 121.677 0.34668 124.639 0.34668C128.507 0.34668 131.374 2.21091 132.505 5.4613C134.356 10.7812 131.295 18.3212 125.384 22.9998C115.605 30.7404 109.366 37.3869 108.266 41.2342C107.617 43.5052 107.9 44.8212 108.381 45.2959C108.861 45.77 109.794 45.5839 110.306 45.4296C111.244 45.1493 112.232 45.6804 112.513 46.6176C112.795 47.5549 112.262 48.5428 111.325 48.824C110.611 49.0378 109.924 49.1437 109.277 49.1437Z" fill="#FCAB28"/>
<path d="M21.29 2.11914H112.027V26.2179H21.9987L21.29 2.11914Z" fill="#FFD733"/>
<path d="M21.9985 26.2178C21.9985 26.2178 28.733 59.5307 65.9494 59.5307C103.166 59.5307 112.027 26.2178 112.027 26.2178H21.9985Z" fill="#FCAB28"/>
<g opacity="0.7">
<path d="M92.4564 26.2178H21.9985C21.9985 26.2178 23.5421 33.837 29.22 41.7881C35.1567 45.0491 42.6948 47.2454 52.2443 47.2454C74.1428 47.2451 86.2213 35.7122 92.4564 26.2178Z" fill="#FFCE45"/>
</g>
<path d="M56.3797 64.1377C56.3797 64.1377 50.7087 65.2009 50.3542 72.9974H82.2541C82.2541 72.9974 82.963 65.5551 74.8107 64.1377H56.3797Z" fill="#FFD733"/>
<path d="M46.8096 72.9971H85.7983C85.7983 72.9971 85.7983 118.36 71.6205 141.395H61.6963C61.6963 141.395 47.5185 118.714 46.8096 72.9971Z" fill="#FFD733"/>
<g opacity="0.48">
<path d="M46.8096 72.9971C47.2534 101.61 52.9725 121.197 57.1899 131.85C63.1161 131.238 68.26 127.35 70.4251 121.701C76.6259 105.522 78.6604 84.8332 79.3281 72.9973L46.8096 72.9971Z" fill="#FFFFFD"/>
</g>
<path d="M71.2661 141.396H61.6963V158.406H71.2661V141.396Z" fill="#FCAB28"/>
<path d="M73.5699 144.323H59.4586C58.5593 144.323 57.8303 143.595 57.8303 142.695C57.8303 141.796 58.5593 141.067 59.4586 141.067H73.5699C74.4693 141.067 75.1982 141.796 75.1982 142.695C75.1982 143.595 74.469 144.323 73.5699 144.323Z" fill="#FCAB28"/>
<path d="M90.4061 172.464C86.8618 157.783 71.2662 158.403 71.2662 158.403H61.6964C47.5186 158.403 43.6199 171.843 43.6199 171.843L90.4061 172.464Z" fill="#FFCE45"/>
<path d="M73.5699 159.916H59.4586C58.5593 159.916 57.8303 159.187 57.8303 158.288C57.8303 157.389 58.5593 156.66 59.4586 156.66H73.5699C74.4693 156.66 75.1982 157.389 75.1982 158.288C75.1982 159.187 74.469 159.916 73.5699 159.916Z" fill="#FCAB28"/>
<path d="M90.406 175.388H43.6197C41.6622 175.388 40.0754 173.801 40.0754 171.844C40.0754 169.887 41.6622 168.3 43.6197 168.3H90.406C92.3635 168.3 93.9503 169.887 93.9503 171.844C93.9503 173.801 92.3635 175.388 90.406 175.388Z" fill="#FFCE45"/>
<g opacity="0.48">
<path d="M61.5779 2.11914H39.8389V26.2179H61.5779V2.11914Z" fill="#FFFFFD"/>
</g>
<path d="M101.276 2.11914H89.4607V26.2179H101.276V2.11914Z" fill="#FFE266"/>
<path d="M37.2282 24.382L39.673 18.207L41.9612 24.4673L46.2454 26.9119L41.8756 29.1998L39.4311 37.0518L37.1425 29.1142L32.8584 26.67L37.2282 24.382Z" fill="white"/>
</svg>
