<svg width="144" height="201" viewBox="0 0 144 201" fill="none" xmlns="http://www.w3.org/2000/svg">
<path d="M60.8098 126.992L82.5942 200.115L100.488 174.444L130.053 185.335L106.712 114.545L60.8098 126.992Z" fill="#CD3414"/>
<g opacity="0.7">
<path d="M73.0746 147.392L70.7771 148.093L85.3379 195.816L87.6355 195.115L73.0746 147.392Z" fill="#FFCE45"/>
</g>
<g opacity="0.7">
<path d="M106.308 125.857L104.018 126.579L121.911 183.367L124.202 182.646L106.308 125.857Z" fill="#FFCE45"/>
</g>
<path d="M34.3577 119.212L11.0173 186.89L42.9157 175.999L59.2539 200.892L86.4842 128.547L34.3577 119.212Z" fill="#FE5629"/>
<g opacity="0.7">
<path d="M40.2245 116.496L18.4392 183.397L20.723 184.141L42.5083 117.239L40.2245 116.496Z" fill="#FFCE45"/>
</g>
<g opacity="0.7">
<path d="M79.1465 124.25L54.2454 195.041L56.5114 195.838L81.4126 125.046L79.1465 124.25Z" fill="#FFCE45"/>
</g>
<path d="M0.125 71.76C0.125 68.4894 8.09822 65.8215 8.54679 62.6749C9.00655 59.4498 2.10957 54.6549 3.00726 51.5932C3.9205 48.4782 12.3224 48.1683 13.6542 45.2573C15.0007 42.3137 9.74399 35.7599 11.482 33.0612C13.2307 30.3462 21.3776 32.4186 23.4853 29.9883C25.5971 27.5536 22.3924 19.7842 24.8277 17.6727C27.2581 15.5653 34.4953 19.8366 37.2104 18.0882C39.9095 16.3504 39.0156 7.99196 41.9596 6.64561C44.8711 5.31401 50.6058 11.4525 53.7212 10.5391C56.7834 9.64159 58.2924 1.3716 61.5178 0.911901C64.6649 0.463392 68.4306 7.97148 71.7017 7.97148C74.9727 7.97148 78.7384 0.463392 81.8855 0.911901C85.111 1.3716 86.6202 9.64159 89.6824 10.5391C92.7978 11.4523 98.5328 5.31401 101.444 6.64561C104.388 7.99196 103.494 16.3504 106.193 18.0882C108.909 19.8366 116.146 15.5653 118.576 17.6727C121.011 19.7842 117.807 27.5536 119.919 29.9883C122.026 32.4184 130.173 30.3462 131.922 33.0612C133.66 35.7599 128.403 42.3137 129.75 45.2573C131.081 48.1683 139.483 48.4782 140.397 51.5932C141.294 54.6549 134.397 59.4496 134.857 62.6746C135.305 65.8212 143.279 68.4888 143.279 71.7597C143.279 75.0303 135.305 77.6979 134.857 80.8448C134.397 84.0698 141.294 88.8647 140.396 91.9265C139.483 95.0415 131.081 95.3513 129.749 98.2624C128.403 101.206 133.66 107.76 131.922 110.458C130.173 113.173 122.026 111.101 119.918 113.531C117.807 115.966 121.011 123.735 118.576 125.847C116.146 127.954 108.908 123.683 106.193 125.431C103.494 127.169 104.388 135.528 101.444 136.874C98.5323 138.206 92.7975 132.067 89.6821 132.98C86.6199 133.878 85.111 142.148 81.8855 142.608C78.7384 143.056 74.9727 135.548 71.7017 135.548C68.4306 135.548 64.6649 143.056 61.5178 142.608C58.2924 142.148 56.7831 133.878 53.7209 132.98C50.6055 132.067 44.8708 138.206 41.9591 136.874C39.0151 135.528 39.909 127.169 37.2099 125.431C34.4945 123.683 27.2576 127.954 24.8269 125.847C22.3918 123.735 25.5965 115.966 23.4844 113.531C21.3767 111.101 13.2296 113.173 11.4812 110.458C9.74315 107.76 14.9999 101.206 13.6533 98.2624C12.3216 95.3513 3.91969 95.0415 3.00644 91.9265C2.10876 88.8647 9.00574 84.0701 8.54597 80.8451C8.09822 77.6981 0.125 75.0306 0.125 71.76Z" fill="#FCAB28"/>
<path d="M71.7019 129.325C103.498 129.325 129.275 103.553 129.275 71.7604C129.275 39.9681 103.498 14.1953 71.7019 14.1953C39.9053 14.1953 14.1292 39.9681 14.1292 71.7604C14.1292 103.553 39.9053 129.325 71.7019 129.325Z" fill="#FFCE45"/>
<path d="M71.702 130.491C56.0122 130.491 41.2613 124.382 30.1667 113.289C19.0723 102.196 12.9622 87.4474 12.9622 71.7594C12.9622 56.0714 19.072 41.3227 30.1667 30.2296C41.2613 19.1367 56.0122 13.0273 71.702 13.0273C87.3919 13.0273 102.143 19.1364 113.237 30.2296C124.332 41.3227 130.442 56.0714 130.442 71.7594C130.442 87.4474 124.332 102.196 113.237 113.289C102.143 124.382 87.3921 130.491 71.702 130.491ZM71.702 15.3613C40.5998 15.3613 15.2962 40.6616 15.2962 71.7597C15.2962 102.858 40.5998 128.158 71.702 128.158C102.804 128.158 128.108 102.858 128.108 71.7597C128.108 40.6616 102.804 15.3613 71.702 15.3613Z" fill="#FCAB28"/>
<path d="M71.702 112.989C94.4752 112.989 112.937 94.5304 112.937 71.7602C112.937 48.9901 94.4752 30.5312 71.702 30.5312C48.9288 30.5312 30.4675 48.9901 30.4675 71.7602C30.4675 94.5304 48.9288 112.989 71.702 112.989Z" fill="#FFD733"/>
<path d="M105.935 55.4243C105.935 52.7988 105.679 50.2344 105.21 47.7451C97.7264 37.3248 85.5118 30.5303 71.7025 30.5303C48.9292 30.5303 30.468 48.9893 30.468 71.7593C30.468 74.3848 30.7241 76.9492 31.1932 79.4385C38.6766 89.8588 50.8911 96.6533 64.7007 96.6533C87.4737 96.6533 105.935 78.1945 105.935 55.4243Z" fill="#FFE266"/>
<path d="M71.7018 114.19C48.3028 114.19 29.2664 95.1558 29.2664 71.7599C29.2664 48.364 48.3028 29.3301 71.7018 29.3301C95.1009 29.3301 114.137 48.364 114.137 71.7599C114.137 95.1558 95.1009 114.19 71.7018 114.19ZM71.7018 31.7318C49.6272 31.7318 31.6684 49.6882 31.6684 71.7599C31.6684 93.8316 49.6272 111.788 71.7018 111.788C93.7765 111.788 111.735 93.8316 111.735 71.7599C111.735 49.6882 93.7765 31.7318 71.7018 31.7318Z" fill="#FCAB28"/>
<path d="M43.2112 37.4658L46.844 28.29L50.2444 37.593L56.611 41.2253L50.1175 44.6253L46.4844 56.2933L43.0843 44.4981L36.7178 40.8658L43.2112 37.4658Z" fill="white"/>
</svg>
