<svg width="349" height="477" viewBox="0 0 349 477" fill="none" xmlns="http://www.w3.org/2000/svg">
<path d="M186.937 389.43C178.37 407.152 149.51 410.93 122.479 397.866C95.447 384.803 80.4796 359.847 89.0465 342.125C97.6148 324.403 126.473 320.625 153.504 333.689C180.537 346.752 195.504 371.709 186.937 389.43Z" fill="url(#paint0_linear_645_1731)"/>
<path d="M251.544 241.538H253.292V229.566H251.544V241.538Z" fill="#272747"/>
<path d="M196.911 263.069L236.506 228.975L233.866 225.911L194.271 260.005L196.911 263.069Z" fill="url(#paint1_linear_645_1731)"/>
<path d="M191.081 394.932H199.97V219.873H191.081V394.932Z" fill="url(#paint2_linear_645_1731)"/>
<path d="M191.081 229.565H258.53V219.873H191.081V229.565Z" fill="url(#paint3_linear_645_1731)"/>
<path d="M247.342 297.288H257.494C263.575 297.288 268.504 292.36 268.504 286.28V255.387C268.504 249.307 263.575 244.379 257.494 244.379H247.342C241.261 244.379 236.331 249.307 236.331 255.387V286.28C236.331 292.36 241.262 297.288 247.342 297.288Z" fill="url(#paint4_linear_645_1731)"/>
<path d="M246.58 244.338H258.256V240.303H246.58V244.338Z" fill="#272747"/>
<path d="M246.58 301.322H258.256V297.288H246.58V301.322Z" fill="#272747"/>
<path opacity="0.6" d="M259.836 297.251H257.99C261.261 295.87 263.566 292.645 263.566 288.878V252.79C263.566 249.193 261.465 246.088 258.429 244.613H260.134C262.721 246.415 264.422 249.406 264.422 252.79V288.878C264.422 292.389 262.59 295.476 259.836 297.251Z" fill="#D35E67"/>
<path opacity="0.6" d="M241.268 252.79V288.878C241.268 292.646 243.574 295.871 246.844 297.251H244.998C242.244 295.476 240.413 292.389 240.413 288.878V252.79C240.413 249.406 242.114 246.414 244.701 244.613H246.405C243.371 246.088 241.268 249.193 241.268 252.79Z" fill="#D35E67"/>
<path opacity="0.6" d="M247.108 252.79V288.878C247.108 292.637 248.469 295.863 250.403 297.251H249.141C247.407 295.479 246.253 292.392 246.253 288.878V252.79C246.253 249.394 247.337 246.411 248.973 244.613H250.148C248.35 246.093 247.108 249.199 247.108 252.79Z" fill="#D35E67"/>
<path opacity="0.6" d="M251.894 297.251L252.081 244.613H252.937L252.748 297.251H251.894Z" fill="#D35E67"/>
<path opacity="0.6" d="M258.583 288.878C258.583 292.392 257.429 295.479 255.694 297.251H254.419C256.36 295.867 257.727 292.642 257.727 288.878V252.79C257.727 249.195 256.482 246.092 254.681 244.613H255.861C257.498 246.411 258.582 249.394 258.582 252.79V288.878H258.583Z" fill="#D35E67"/>
<path d="M251.269 229.565H253.128L249.631 219.873H247.773L251.269 229.565Z" fill="#272747"/>
<path d="M253.566 229.565H251.708L255.204 219.873H257.063L253.566 229.565Z" fill="#272747"/>
<path d="M213.425 413.943C217.467 401.898 205.85 387.136 187.478 380.973C169.105 374.809 150.934 379.577 146.892 391.623C142.849 403.668 154.466 418.429 172.838 424.593C191.211 430.756 209.382 425.988 213.425 413.943Z" fill="#323654"/>
<path d="M197.937 60.4039C236.317 60.4039 267.43 46.882 267.43 30.202C267.43 13.5219 236.317 0 197.937 0C159.558 0 128.445 13.5219 128.445 30.202C128.445 46.882 159.558 60.4039 197.937 60.4039Z" fill="url(#paint5_linear_645_1731)"/>
<path d="M304.383 91.7561C328.758 91.7561 348.518 83.1679 348.518 72.5738C348.518 61.9798 328.758 53.3916 304.383 53.3916C280.008 53.3916 260.248 61.9798 260.248 72.5738C260.248 83.1679 280.008 91.7561 304.383 91.7561Z" fill="url(#paint6_linear_645_1731)"/>
<path d="M144.677 83.0467C147.947 82.6491 151.228 82.0656 154.388 80.9871C157.533 79.8933 160.632 78.5301 163.542 76.7488C166.445 74.9637 169.218 72.89 171.818 70.5612C174.386 68.1964 176.794 65.6085 179.033 62.8462C183.491 57.2985 187.235 51.0737 190.398 44.5373C193.525 37.9816 196.149 31.1182 197.996 24.0137C196.978 31.2939 195.151 38.4805 192.748 45.503C190.304 52.5113 187.21 59.3683 183.175 65.7893C181.145 68.9902 178.882 72.077 176.363 74.9983C173.806 77.8876 170.976 80.5819 167.879 83.0146C164.775 85.4448 161.336 87.4877 157.724 89.2279C154.093 90.954 150.225 92.1454 146.285 93.0777L144.677 83.0467Z" fill="#252577"/>
<path d="M82.3343 108.494C127.806 108.494 164.669 89.6756 164.669 66.4618C164.669 43.2481 127.806 24.4297 82.3343 24.4297C36.8623 24.4297 -9.15527e-05 43.2481 -9.15527e-05 66.4618C-9.15527e-05 89.6756 36.8623 108.494 82.3343 108.494Z" fill="url(#paint7_linear_645_1731)"/>
<path d="M131.369 159.593C184.18 159.593 226.992 137.737 226.992 110.777C226.992 83.8167 184.18 61.9609 131.369 61.9609C78.5583 61.9609 35.7465 83.8167 35.7465 110.777C35.7465 137.737 78.5583 159.593 131.369 159.593Z" fill="url(#paint8_linear_645_1731)"/>
<path d="M98.8858 167.372C122.468 167.372 141.586 157.613 141.586 145.574C141.586 133.535 122.468 123.775 98.8858 123.775C75.3033 123.775 56.1858 133.535 56.1858 145.574C56.1858 157.613 75.3033 167.372 98.8858 167.372Z" fill="url(#paint9_linear_645_1731)"/>
<path d="M260.071 129.561C296.99 129.561 326.918 116.804 326.918 101.067C326.918 85.3304 296.99 72.5732 260.071 72.5732C223.152 72.5732 193.223 85.3304 193.223 101.067C193.223 116.804 223.152 129.561 260.071 129.561Z" fill="url(#paint10_linear_645_1731)"/>
<path d="M239.184 126.262C237.011 133.28 234.279 140.121 230.544 146.334C223.02 158.74 212.226 169.016 199.895 176.274C187.603 183.682 173.395 187.039 159.204 192.222C154.111 194.077 148.971 196.244 144.032 198.982C144.56 196.765 145.057 194.546 145.511 192.325C149.454 172.275 150.602 152.243 151.448 132.293C149.502 142.093 147.523 151.879 145.15 161.528C142.731 171.159 140.103 180.701 136.732 189.879C133.357 199.015 129.376 207.809 124.639 216.023C124.186 216.72 123.749 217.432 123.34 218.163C122.448 219.611 121.534 221.041 120.587 222.442C115.635 218.979 111.122 214.821 107.575 209.838C103.766 204.589 100.943 198.524 99.2193 192.066C97.4441 185.613 96.7527 178.788 96.8592 171.944C96.9964 165.098 97.8494 158.189 99.6823 151.489C97.0785 157.94 95.3957 164.784 94.4362 171.759C93.5089 178.738 93.3742 185.917 94.4593 193.051C95.4932 200.178 97.7878 207.261 101.41 213.731C104.826 219.957 109.552 225.471 114.918 230.196C112.619 233.107 110.212 235.914 107.704 238.61L102.818 243.578L97.5852 248.188C96.6963 248.936 95.8933 249.755 94.9429 250.441L92.1595 252.553L89.3915 254.66C88.4718 255.363 87.5701 256.079 86.5684 256.697C82.6331 259.27 78.9416 261.802 74.5652 264.44C70.3157 267.066 66.0098 269.749 61.6769 272.536C57.3415 275.356 52.9894 278.294 48.654 281.454C44.3301 284.656 40.0294 288.064 35.835 291.823C31.6651 295.631 27.6067 299.765 23.8011 304.332C20.0441 308.96 16.5797 314.006 13.5538 319.445L46.571 334.885C47.8716 331.344 49.5147 327.811 51.5221 324.31C53.6025 320.835 56.0371 317.393 58.7512 314.001C61.5153 310.626 64.5745 307.308 67.8158 304.03C71.0981 300.768 74.5767 297.543 78.172 294.333C81.8007 291.127 85.532 287.921 89.3338 284.681C93.0907 281.557 97.1478 277.819 101.066 274.266C102.069 273.4 102.992 272.419 103.923 271.455L106.713 268.568L109.487 265.686C110.427 264.748 111.239 263.655 112.117 262.65C113.834 260.593 115.564 258.56 117.243 256.493L121.935 249.99C127.939 241.167 133.011 231.795 136.891 222.063C137.856 219.589 138.752 217.101 139.589 214.603C141.003 213.169 142.535 211.801 144.182 210.533C149.552 206.331 155.784 203.034 162.394 200.139C168.998 197.219 175.928 194.653 182.835 191.715C186.288 190.245 189.735 188.682 193.117 186.931C196.499 185.164 199.787 183.215 202.94 181.081C215.532 172.527 226.058 161.073 233.032 147.711C236.495 141.007 238.818 133.85 240.554 126.64C242.302 119.423 243.51 112.13 244.837 104.862C243.049 112.03 241.372 119.237 239.184 126.262Z" fill="#272747"/>
<path d="M134.417 344.191C133.25 359.232 119.679 370.446 104.105 369.238C88.5309 368.03 76.8535 354.857 78.0207 339.817C79.1879 324.777 92.7586 300.751 108.333 301.959C123.906 303.166 135.584 329.15 134.417 344.191Z" fill="url(#paint11_linear_645_1731)"/>
<path d="M303.467 442.065C301.847 462.936 283.017 478.496 261.407 476.82C239.798 475.143 223.593 456.865 225.212 435.995C226.831 415.124 245.663 381.788 267.272 383.464C288.881 385.14 305.086 421.194 303.467 442.065Z" fill="#454A68"/>
<path d="M102.425 364.079C101.258 379.12 87.6869 390.333 72.1128 389.125C56.5399 387.917 44.86 374.745 46.0272 359.705C47.1944 344.663 60.765 320.639 76.3392 321.847C91.9133 323.055 103.592 349.037 102.425 364.079Z" fill="#454A68"/>
<path d="M260.56 435.969C259.771 446.133 250.6 453.711 240.075 452.895C229.551 452.079 221.659 443.177 222.448 433.013C223.237 422.849 232.408 406.613 242.932 407.429C253.456 408.246 261.348 425.805 260.56 435.969Z" fill="url(#paint12_linear_645_1731)"/>
<path d="M186.622 381.143C186.52 380.068 186.42 378.992 186.319 377.917C177.418 378.446 168.55 378.128 159.82 377.021C168.367 375.431 176.758 373.09 184.896 370.022C184.549 368.999 184.202 367.976 183.855 366.954C177.093 368.994 170.229 370.519 163.318 371.535C169.377 368.345 175.217 364.747 180.782 360.743C180.18 359.847 179.578 358.949 178.977 358.052C174.559 360.798 170.011 363.276 165.364 365.509C169.457 359.388 173.093 352.968 176.231 346.3C175.269 345.808 174.308 345.316 173.346 344.824C168.373 353.772 162.486 362.09 155.83 369.677C155.737 369.714 155.644 369.747 155.551 369.783C160.324 361.478 164.293 352.735 167.37 343.663C166.359 343.282 165.348 342.901 164.338 342.52C161.406 349.563 157.922 356.31 153.958 362.725C155.736 355.632 156.988 348.413 157.695 341.128C156.624 340.988 155.553 340.847 154.482 340.707C152.627 351.892 149.467 362.731 145.116 373.016C144.943 373.019 144.769 373.02 144.596 373.022C146.261 364.149 148.76 355.394 152.119 346.883C151.129 346.452 150.137 346.023 149.147 345.592C146.079 352.05 143.491 358.722 141.392 365.551C140.29 358.226 138.643 350.989 136.453 343.907C135.411 344.191 134.368 344.476 133.327 344.759C135.38 353.434 136.595 362.222 137.007 371.012C133.968 362.868 130.216 355.007 125.792 347.52C124.844 348.039 123.897 348.557 122.949 349.075C126.123 355.383 128.808 361.88 131 368.511C126.813 363.093 122.264 357.961 117.36 353.171C116.58 353.917 115.799 354.665 115.019 355.411C121.018 362.121 126.012 369.316 130.783 376.914C133.736 380.668 136.568 386.104 135.972 390.954C135.719 393.001 135.518 395.057 135.351 397.116C135.315 397.556 135.283 397.997 135.251 398.438C135.4 398.318 135.551 398.201 135.698 398.081C136.218 397.657 136.732 397.23 137.245 396.801C140 394.495 142.625 392.035 145.252 389.586C146.107 388.788 151.523 382.37 152.069 382.555C162.11 385.941 171.82 390.445 180.993 396.056C181.588 395.154 182.183 394.253 182.777 393.351C176.943 389.217 170.814 385.519 164.448 382.276C171.853 382.456 179.265 382.08 186.622 381.143Z" fill="url(#paint13_linear_645_1731)"/>
<defs>
<linearGradient id="paint0_linear_645_1731" x1="122.479" y1="397.867" x2="153.498" y2="333.686" gradientUnits="userSpaceOnUse">
<stop stop-color="#44408D"/>
<stop offset="1" stop-color="#1C7EB6"/>
</linearGradient>
<linearGradient id="paint1_linear_645_1731" x1="213.715" y1="242.817" x2="216.844" y2="246.356" gradientUnits="userSpaceOnUse">
<stop stop-color="#FB9898"/>
<stop offset="1" stop-color="#E38776"/>
</linearGradient>
<linearGradient id="paint2_linear_645_1731" x1="149.53" y1="261.416" x2="241.503" y2="353.408" gradientUnits="userSpaceOnUse">
<stop stop-color="#FB9898"/>
<stop offset="1" stop-color="#E38776"/>
</linearGradient>
<linearGradient id="paint3_linear_645_1731" x1="205.52" y1="205.438" x2="244.084" y2="244.009" gradientUnits="userSpaceOnUse">
<stop stop-color="#FB9898"/>
<stop offset="1" stop-color="#E38776"/>
</linearGradient>
<linearGradient id="paint4_linear_645_1731" x1="234.37" y1="252.79" x2="270.459" y2="288.886" gradientUnits="userSpaceOnUse">
<stop stop-color="#FF977C"/>
<stop offset="0.1004" stop-color="#FF8A75"/>
<stop offset="0.2862" stop-color="#FF6761"/>
<stop offset="0.4034" stop-color="#FF4E53"/>
<stop offset="0.5243" stop-color="#F24650"/>
<stop offset="0.7491" stop-color="#CF2F4A"/>
<stop offset="1" stop-color="#A11241"/>
</linearGradient>
<linearGradient id="paint5_linear_645_1731" x1="197.937" y1="60.4046" x2="197.937" y2="-0.000255629" gradientUnits="userSpaceOnUse">
<stop stop-color="#1C7EB6"/>
<stop offset="1" stop-color="#64AADA"/>
</linearGradient>
<linearGradient id="paint6_linear_645_1731" x1="304.384" y1="91.7549" x2="304.384" y2="53.3916" gradientUnits="userSpaceOnUse">
<stop stop-color="#44408D"/>
<stop offset="1" stop-color="#1C7EB6"/>
</linearGradient>
<linearGradient id="paint7_linear_645_1731" x1="82.3342" y1="108.494" x2="82.3342" y2="24.4298" gradientUnits="userSpaceOnUse">
<stop stop-color="#1C7EB6"/>
<stop offset="1" stop-color="#64AADA"/>
</linearGradient>
<linearGradient id="paint8_linear_645_1731" x1="131.369" y1="159.592" x2="131.369" y2="61.9606" gradientUnits="userSpaceOnUse">
<stop stop-color="#44408D"/>
<stop offset="1" stop-color="#1C7EB6"/>
</linearGradient>
<linearGradient id="paint9_linear_645_1731" x1="98.8859" y1="167.372" x2="98.8859" y2="123.775" gradientUnits="userSpaceOnUse">
<stop stop-color="#2D89BF"/>
<stop offset="1" stop-color="#64BAEC"/>
</linearGradient>
<linearGradient id="paint10_linear_645_1731" x1="260.071" y1="129.561" x2="260.071" y2="72.5727" gradientUnits="userSpaceOnUse">
<stop stop-color="#2D89BF"/>
<stop offset="1" stop-color="#64BAEC"/>
</linearGradient>
<linearGradient id="paint11_linear_645_1731" x1="104.107" y1="369.238" x2="109.316" y2="302.035" gradientUnits="userSpaceOnUse">
<stop stop-color="white"/>
<stop offset="1" stop-color="#74B8ED"/>
</linearGradient>
<linearGradient id="paint12_linear_645_1731" x1="240.076" y1="452.896" x2="243.596" y2="407.481" gradientUnits="userSpaceOnUse">
<stop stop-color="white"/>
<stop offset="1" stop-color="#74B8ED"/>
</linearGradient>
<linearGradient id="paint13_linear_645_1731" x1="150.819" y1="398.441" x2="150.819" y2="340.708" gradientUnits="userSpaceOnUse">
<stop offset="0.3352" stop-color="white"/>
<stop offset="1" stop-color="#74B8ED"/>
</linearGradient>
</defs>
</svg>
