<svg width="962" height="642" viewBox="0 0 962 642" fill="none" xmlns="http://www.w3.org/2000/svg">
<mask id="mask0_645_1985" style="mask-type:luminance" maskUnits="userSpaceOnUse" x="0" y="0" width="962" height="642">
<path d="M962 0H0V641.203H962V0Z" fill="white"/>
</mask>
<g mask="url(#mask0_645_1985)">
<path d="M821.237 513.875L828.968 502.614L799.708 505.473C713.254 470.55 786.936 510.758 764.668 478.924H746.901C746.901 478.924 743.657 508.822 756.14 500.974C763.129 516.53 809.357 518.764 821.237 513.875Z" fill="#992B3B"/>
<path d="M756.138 500.974V490.486L763.129 495.031C754.953 491.03 748.495 480.545 747.08 478.924H728.212C705.827 493.949 688.452 500.694 672.747 503.419L648.187 496.816L655.917 509.622C672.416 515.448 738.617 518.773 756.138 500.974Z" fill="#BA3A47"/>
<path d="M806.615 488.509H743.827V566.019H806.615V488.509Z" fill="#DDD3D4"/>
<path d="M743.827 488.509H665.989V566.019H743.827V488.509Z" fill="#FDFDFD"/>
<path d="M710.67 530.309H698.291V563.768H710.67V530.309Z" fill="#272747"/>
<path d="M698.291 530.309H694.488V563.768H698.291V530.309Z" fill="#FFBA78"/>
<path d="M714.472 530.309H710.669V563.768H714.472V530.309Z" fill="#FFBA78"/>
<path d="M729.132 539.114V530.309H718.829V539.114H729.132Z" fill="#FFBA78"/>
<path d="M690.341 539.114V530.309H680.037V539.114H690.341Z" fill="#FFBA78"/>
<path d="M676.902 488.509H665.989V566.019H676.902V488.509Z" fill="#BA3A47"/>
<path d="M743.829 488.509H732.916V566.019H743.829V488.509Z" fill="#BA3A47"/>
<path d="M744.165 511.949H665.989V517.608H744.165V511.949Z" fill="#BA3A47"/>
<path d="M707.907 515.112V499.373H702.247V515.112H707.907Z" fill="#BA3A47"/>
<path d="M806.616 488.509H795.703V566.019H806.616V488.509Z" fill="#992B3B"/>
<path d="M754.74 488.509H743.827V566.019H754.74V488.509Z" fill="#992B3B"/>
<path d="M806.616 511.949H744.165V517.608H806.616V511.949Z" fill="#992B3B"/>
<path d="M835.679 505.535L844.774 492.285L810.346 495.65C708.626 454.558 795.32 501.869 769.118 464.412H748.213C748.213 464.412 744.396 499.59 759.083 490.355C767.308 508.66 821.701 511.289 835.679 505.535Z" fill="#BA3A47"/>
<path d="M759.083 490.355V478.016L767.308 483.364C757.688 478.656 750.089 466.319 748.426 464.412H726.225C699.888 482.09 679.444 490.027 660.966 493.233L632.069 485.464L641.164 500.532C660.576 507.386 738.467 511.299 759.083 490.355Z" fill="#FF4E53"/>
<path d="M850.445 493.175V482.785L813.231 486.422C784.036 474.629 768.666 452.655 768.666 452.655H746.069C746.069 452.655 743.416 487.51 759.291 477.529C765.312 501.258 835.528 502.405 850.445 493.175Z" fill="#0D0D1E"/>
<path d="M759.29 477.529V467.139L766.707 473.14C756.31 468.052 748.096 454.716 746.298 452.655H722.3C693.832 471.764 671.732 480.344 651.76 483.809L620.525 475.412V485.802C642.057 500.492 740.347 505.133 759.29 477.529Z" fill="#1C1C35"/>
<path d="M850.445 482.785C816.408 488.753 764.118 442.265 764.118 442.265H746.068C746.068 442.265 743.414 477.119 759.29 467.138C765.312 490.868 835.528 492.014 850.445 482.785Z" fill="#1C1C35"/>
<path d="M759.29 467.139C744.189 470.337 746.298 442.266 746.298 442.266H722.3C678.422 471.719 649.674 476.156 620.523 475.411C642.057 490.101 740.347 494.743 759.29 467.139Z" fill="#272747"/>
<path d="M655.27 550.809H743.828V548.119H655.27V550.809Z" fill="#FF4E53"/>
<path d="M655.27 558.753H743.828V556.064H655.27V558.753Z" fill="#FF4E53"/>
<path d="M655.27 566.02H743.828V563.33H655.27V566.02Z" fill="#FF4E53"/>
<path d="M712.179 566.02H715.373V549.464H712.179V566.02Z" fill="#FF4E53"/>
<path d="M740.633 566.02H743.827V549.464H740.633V566.02Z" fill="#FF4E53"/>
<path d="M683.725 566.02H686.919V549.464H683.725V566.02Z" fill="#FF4E53"/>
<path d="M655.27 566.02H658.464V549.464H655.27V566.02Z" fill="#FF4E53"/>
<path d="M743.827 550.809H816.013V548.119H743.827V550.809Z" fill="#BA3A47"/>
<path d="M743.827 558.753H816.013V556.064H743.827V558.753Z" fill="#BA3A47"/>
<path d="M743.827 566.02H816.013V563.33H743.827V566.02Z" fill="#BA3A47"/>
<path d="M789.821 566.02H793.016V549.464H789.821V566.02Z" fill="#BA3A47"/>
<path d="M812.82 566.02H816.013V549.464H812.82V566.02Z" fill="#BA3A47"/>
<path d="M766.825 566.02H770.019V549.464H766.825V566.02Z" fill="#BA3A47"/>
<path d="M743.829 566.02H747.022V549.464H743.829V566.02Z" fill="#BA3A47"/>
<path d="M821.237 418.027L828.968 406.766L799.708 409.626C713.254 374.702 786.936 414.911 764.668 383.076H746.901C746.901 383.076 743.657 412.974 756.14 405.126C763.129 420.683 809.357 422.917 821.237 418.027Z" fill="#992B3B"/>
<path d="M756.138 405.125V394.637L763.129 399.182C754.953 395.181 748.495 384.696 747.08 383.075H728.212C705.827 398.1 688.452 404.845 672.747 407.57L648.187 400.967L655.917 413.773C672.416 419.599 738.617 422.925 756.138 405.125Z" fill="#BA3A47"/>
<path d="M806.615 392.66H743.827V470.17H806.615V392.66Z" fill="#DDD3D4"/>
<path d="M743.827 392.66H665.989V470.17H743.827V392.66Z" fill="#FDFDFD"/>
<path d="M710.67 434.46H698.291V467.919H710.67V434.46Z" fill="#272747"/>
<path d="M698.291 434.46H694.488V467.919H698.291V434.46Z" fill="#FFBA78"/>
<path d="M714.472 434.46H710.669V467.919H714.472V434.46Z" fill="#FFBA78"/>
<path d="M729.133 443.266V434.461H718.829V443.266H729.133Z" fill="#FFBA78"/>
<path d="M690.341 443.265V434.46H680.038V443.265H690.341Z" fill="#FFBA78"/>
<path d="M676.902 392.66H665.989V470.17H676.902V392.66Z" fill="#BA3A47"/>
<path d="M743.829 392.66H732.916V470.17H743.829V392.66Z" fill="#BA3A47"/>
<path d="M744.165 416.103H665.989V421.762H744.165V416.103Z" fill="#BA3A47"/>
<path d="M707.906 419.264V403.525H702.246V419.264H707.906Z" fill="#BA3A47"/>
<path d="M806.616 392.66H795.703V470.17H806.616V392.66Z" fill="#992B3B"/>
<path d="M754.74 392.66H743.827V470.17H754.74V392.66Z" fill="#992B3B"/>
<path d="M806.616 416.103H744.165V421.762H806.616V416.103Z" fill="#992B3B"/>
<path d="M835.679 409.687L844.774 396.438L810.346 399.803C708.626 358.71 795.32 406.021 769.118 368.564H748.213C748.213 368.564 744.396 403.742 759.083 394.508C767.308 412.811 821.701 415.44 835.679 409.687Z" fill="#BA3A47"/>
<path d="M759.083 394.508V382.168L767.308 387.516C757.688 382.808 750.089 370.471 748.426 368.564H726.225C699.888 386.242 679.444 394.179 660.966 397.385L632.069 389.616L641.164 404.685C660.576 411.537 738.467 415.451 759.083 394.508Z" fill="#FF4E53"/>
<path d="M850.445 397.327V386.937L813.231 390.574C784.036 378.779 768.666 356.807 768.666 356.807H746.069C746.069 356.807 743.416 391.661 759.291 381.68C765.312 405.41 835.528 406.556 850.445 397.327Z" fill="#0D0D1E"/>
<path d="M759.29 381.681V371.291L766.707 377.293C756.31 372.204 748.096 358.868 746.298 356.808H722.3C693.832 375.917 671.732 384.496 651.76 387.961L620.525 379.564V389.954C642.057 404.643 740.347 409.285 759.29 381.681Z" fill="#1C1C35"/>
<path d="M850.445 386.938C816.408 392.907 764.118 346.419 764.118 346.419H746.068C746.068 346.419 743.414 381.274 759.29 371.293C765.312 395.021 835.528 396.167 850.445 386.938Z" fill="#1C1C35"/>
<path d="M759.29 371.292C744.189 374.49 746.298 346.418 746.298 346.418H722.3C678.422 375.871 649.674 380.308 620.523 379.563C642.057 394.253 740.347 398.895 759.29 371.292Z" fill="#272747"/>
<path d="M655.27 454.96H743.828V452.271H655.27V454.96Z" fill="#FF4E53"/>
<path d="M655.27 462.904H743.828V460.215H655.27V462.904Z" fill="#FF4E53"/>
<path d="M655.27 470.171H743.828V467.482H655.27V470.171Z" fill="#FF4E53"/>
<path d="M712.179 470.17H715.373V453.614H712.179V470.17Z" fill="#FF4E53"/>
<path d="M740.633 470.17H743.827V453.614H740.633V470.17Z" fill="#FF4E53"/>
<path d="M683.725 470.17H686.919V453.614H683.725V470.17Z" fill="#FF4E53"/>
<path d="M655.27 470.17H658.464V453.614H655.27V470.17Z" fill="#FF4E53"/>
<path d="M743.827 454.96H816.013V452.271H743.827V454.96Z" fill="#BA3A47"/>
<path d="M743.827 462.904H816.013V460.215H743.827V462.904Z" fill="#BA3A47"/>
<path d="M743.827 470.171H816.013V467.482H743.827V470.171Z" fill="#BA3A47"/>
<path d="M789.821 470.17H793.016V453.614H789.821V470.17Z" fill="#BA3A47"/>
<path d="M812.82 470.17H816.013V453.614H812.82V470.17Z" fill="#BA3A47"/>
<path d="M766.825 470.17H770.019V453.614H766.825V470.17Z" fill="#BA3A47"/>
<path d="M743.829 470.17H747.022V453.614H743.829V470.17Z" fill="#BA3A47"/>
<path d="M821.237 322.179L828.968 310.918L799.708 313.778C713.254 278.853 786.936 319.063 764.668 287.229H746.901C746.901 287.229 743.657 317.127 756.14 309.278C763.129 324.835 809.357 327.069 821.237 322.179Z" fill="#992B3B"/>
<path d="M756.138 309.278V298.791L763.129 303.336C754.953 299.334 748.495 288.849 747.08 287.229H728.212C705.827 302.254 688.452 308.999 672.747 311.724L648.187 305.121L655.917 317.927C672.416 323.751 738.617 327.078 756.138 309.278Z" fill="#BA3A47"/>
<path d="M806.615 296.812H743.827V374.323H806.615V296.812Z" fill="#DDD3D4"/>
<path d="M743.827 296.812H665.989V374.323H743.827V296.812Z" fill="#FDFDFD"/>
<path d="M710.67 338.611H698.291V372.071H710.67V338.611Z" fill="#272747"/>
<path d="M698.291 338.611H694.488V372.071H698.291V338.611Z" fill="#FFBA78"/>
<path d="M714.472 338.611H710.669V372.071H714.472V338.611Z" fill="#FFBA78"/>
<path d="M729.132 347.418V338.613H718.828V347.418H729.132Z" fill="#FFBA78"/>
<path d="M690.34 347.418V338.613H680.037V347.418H690.34Z" fill="#FFBA78"/>
<path d="M676.902 296.812H665.989V374.323H676.902V296.812Z" fill="#BA3A47"/>
<path d="M743.829 296.812H732.916V374.323H743.829V296.812Z" fill="#BA3A47"/>
<path d="M744.165 320.255H665.989V325.914H744.165V320.255Z" fill="#BA3A47"/>
<path d="M707.907 323.417V307.678H702.246V323.417H707.907Z" fill="#BA3A47"/>
<path d="M806.616 296.812H795.703V374.323H806.616V296.812Z" fill="#992B3B"/>
<path d="M754.74 296.812H743.827V374.323H754.74V296.812Z" fill="#992B3B"/>
<path d="M806.616 320.255H744.165V325.914H806.616V320.255Z" fill="#992B3B"/>
<path d="M835.679 313.84L844.774 300.59L810.346 303.955C708.626 262.863 795.32 310.173 769.118 272.717H748.213C748.213 272.717 744.396 307.894 759.083 298.66C767.308 316.965 821.701 319.593 835.679 313.84Z" fill="#BA3A47"/>
<path d="M759.083 298.66V286.32L767.308 291.667C757.688 286.96 750.089 274.623 748.426 272.716H726.225C699.888 290.395 679.444 298.331 660.966 301.537L632.069 293.768L641.164 308.836C660.576 315.691 738.467 319.603 759.083 298.66Z" fill="#FF4E53"/>
<path d="M850.445 301.48V291.09L813.231 294.727C784.036 282.934 768.666 260.96 768.666 260.96H746.069C746.069 260.96 743.416 295.814 759.291 285.834C765.312 309.563 835.528 310.71 850.445 301.48Z" fill="#0D0D1E"/>
<path d="M759.29 285.834V275.443L766.707 281.445C756.31 276.357 748.096 263.021 746.298 260.96H722.3C693.832 280.069 671.732 288.648 651.76 292.113L620.525 283.716V294.106C642.057 308.795 740.347 313.437 759.29 285.834Z" fill="#1C1C35"/>
<path d="M850.445 291.09C816.408 297.058 764.118 250.569 764.118 250.569H746.068C746.068 250.569 743.414 285.424 759.29 275.443C765.312 299.173 835.528 300.319 850.445 291.09Z" fill="#1C1C35"/>
<path d="M759.29 275.443C744.189 278.641 746.298 250.569 746.298 250.569H722.3C678.422 280.022 649.674 284.459 620.523 283.714C642.057 298.406 740.347 303.047 759.29 275.443Z" fill="#272747"/>
<path d="M655.27 359.111H743.828V356.422H655.27V359.111Z" fill="#FF4E53"/>
<path d="M655.27 367.056H743.828V364.366H655.27V367.056Z" fill="#FF4E53"/>
<path d="M655.27 374.322H743.828V371.633H655.27V374.322Z" fill="#FF4E53"/>
<path d="M712.179 374.323H715.373V357.767H712.179V374.323Z" fill="#FF4E53"/>
<path d="M740.633 374.323H743.827V357.767H740.633V374.323Z" fill="#FF4E53"/>
<path d="M683.725 374.323H686.919V357.767H683.725V374.323Z" fill="#FF4E53"/>
<path d="M655.27 374.323H658.464V357.767H655.27V374.323Z" fill="#FF4E53"/>
<path d="M743.827 359.111H816.013V356.422H743.827V359.111Z" fill="#BA3A47"/>
<path d="M743.827 367.056H816.013V364.366H743.827V367.056Z" fill="#BA3A47"/>
<path d="M743.827 374.322H816.013V371.633H743.827V374.322Z" fill="#BA3A47"/>
<path d="M789.821 374.323H793.016V357.767H789.821V374.323Z" fill="#BA3A47"/>
<path d="M812.82 374.323H816.013V357.767H812.82V374.323Z" fill="#BA3A47"/>
<path d="M766.825 374.323H770.019V357.767H766.825V374.323Z" fill="#BA3A47"/>
<path d="M743.829 374.323H747.022V357.767H743.829V374.323Z" fill="#BA3A47"/>
<path d="M821.237 226.332L828.968 215.071L799.708 217.931C713.254 183.007 786.936 223.215 764.668 191.381H746.901C746.901 191.381 743.657 221.279 756.14 213.431C763.129 228.986 809.357 231.22 821.237 226.332Z" fill="#992B3B"/>
<path d="M756.138 213.43V202.942L763.129 207.487C754.953 203.486 748.495 193.001 747.08 191.38H728.212C705.827 206.405 688.452 213.15 672.747 215.875L648.187 209.272L655.917 222.078C672.416 227.904 738.617 231.229 756.138 213.43Z" fill="#BA3A47"/>
<path d="M806.615 200.965H743.827V278.475H806.615V200.965Z" fill="#DDD3D4"/>
<path d="M743.827 200.965H665.989V278.475H743.827V200.965Z" fill="#FDFDFD"/>
<path d="M710.67 242.765H698.291V276.224H710.67V242.765Z" fill="#272747"/>
<path d="M698.291 242.765H694.488V276.224H698.291V242.765Z" fill="#FFBA78"/>
<path d="M714.472 242.765H710.669V276.224H714.472V242.765Z" fill="#FFBA78"/>
<path d="M729.132 251.57V242.765H718.829V251.57H729.132Z" fill="#FFBA78"/>
<path d="M690.341 251.57V242.765H680.037V251.57H690.341Z" fill="#FFBA78"/>
<path d="M676.902 200.965H665.989V278.475H676.902V200.965Z" fill="#BA3A47"/>
<path d="M743.829 200.965H732.916V278.475H743.829V200.965Z" fill="#BA3A47"/>
<path d="M744.165 224.406H665.989V230.066H744.165V224.406Z" fill="#BA3A47"/>
<path d="M707.906 227.569V211.83H702.245V227.569H707.906Z" fill="#BA3A47"/>
<path d="M806.616 200.965H795.703V278.475H806.616V200.965Z" fill="#992B3B"/>
<path d="M754.74 200.965H743.827V278.475H754.74V200.965Z" fill="#992B3B"/>
<path d="M806.616 224.406H744.165V230.066H806.616V224.406Z" fill="#992B3B"/>
<path d="M835.679 217.991L844.774 204.742L810.346 208.105C708.626 167.013 795.32 214.324 769.118 176.867H748.213C748.213 176.867 744.396 212.045 759.083 202.81C767.308 221.117 821.701 223.746 835.679 217.991Z" fill="#BA3A47"/>
<path d="M759.083 202.811V190.472L767.308 195.82C757.688 191.112 750.089 178.775 748.426 176.868H726.225C699.888 194.546 679.444 202.483 660.966 205.689L632.069 197.92L641.164 212.988C660.576 219.842 738.467 223.756 759.083 202.811Z" fill="#FF4E53"/>
<path d="M850.445 205.632V195.241L813.231 198.878C784.036 187.085 768.666 165.111 768.666 165.111H746.069C746.069 165.111 743.416 199.966 759.291 189.985C765.312 213.715 835.528 214.861 850.445 205.632Z" fill="#0D0D1E"/>
<path d="M759.29 189.986V179.596L766.707 185.597C756.31 180.509 748.096 167.173 746.298 165.112H722.3C693.832 184.221 671.732 192.801 651.76 196.266L620.525 187.869V198.259C642.057 212.947 740.347 217.59 759.29 189.986Z" fill="#1C1C35"/>
<path d="M850.445 195.243C816.408 201.211 764.118 154.723 764.118 154.723H746.068C746.068 154.723 743.414 189.577 759.29 179.596C765.312 203.325 835.528 204.471 850.445 195.243Z" fill="#1C1C35"/>
<path d="M759.29 179.596C744.189 182.795 746.298 154.723 746.298 154.723H722.3C678.422 184.176 649.674 188.613 620.523 187.868C642.057 202.558 740.347 207.2 759.29 179.596Z" fill="#272747"/>
<path d="M655.27 263.264H743.828V260.574H655.27V263.264Z" fill="#FF4E53"/>
<path d="M655.27 271.208H743.828V268.519H655.27V271.208Z" fill="#FF4E53"/>
<path d="M655.27 278.476H743.828V275.786H655.27V278.476Z" fill="#FF4E53"/>
<path d="M712.179 278.475H715.373V261.919H712.179V278.475Z" fill="#FF4E53"/>
<path d="M740.633 278.475H743.827V261.919H740.633V278.475Z" fill="#FF4E53"/>
<path d="M683.725 278.475H686.919V261.919H683.725V278.475Z" fill="#FF4E53"/>
<path d="M655.27 278.475H658.464V261.919H655.27V278.475Z" fill="#FF4E53"/>
<path d="M743.827 263.264H816.013V260.574H743.827V263.264Z" fill="#BA3A47"/>
<path d="M743.827 271.208H816.013V268.519H743.827V271.208Z" fill="#BA3A47"/>
<path d="M743.827 278.476H816.013V275.786H743.827V278.476Z" fill="#BA3A47"/>
<path d="M789.821 278.475H793.016V261.919H789.821V278.475Z" fill="#BA3A47"/>
<path d="M812.82 278.475H816.013V261.919H812.82V278.475Z" fill="#BA3A47"/>
<path d="M766.825 278.475H770.019V261.919H766.825V278.475Z" fill="#BA3A47"/>
<path d="M743.829 278.475H747.022V261.919H743.829V278.475Z" fill="#BA3A47"/>
<path d="M764.118 148.462H722.302V154.723H764.118V148.462Z" fill="#272747"/>
<path d="M759.29 142.201H727.128V148.462H759.29V142.201Z" fill="#272747"/>
<path d="M753.328 135.941H733.09V142.202H753.328V135.941Z" fill="#272747"/>
<path d="M745.901 63.3535H740.517V135.94H745.901V63.3535Z" fill="#272747"/>
<path d="M939.9 566.187H643.206V572.563H939.9V566.187Z" fill="#272747"/>
<path d="M939.901 572.562H635.366V578.939H939.901V572.562Z" fill="#272747"/>
<path d="M939.901 578.938H627.525V585.315H939.901V578.938Z" fill="#272747"/>
<path d="M939.901 585.314H619.684V591.691H939.901V585.314Z" fill="#272747"/>
<path d="M939.901 591.69H611.844V598.067H939.901V591.69Z" fill="#272747"/>
<path d="M939.9 598.067H604.003V604.443H939.9V598.067Z" fill="#272747"/>
<path d="M939.901 604.443H596.163V610.82H939.901V604.443Z" fill="#272747"/>
<path d="M939.901 610.819H588.322V617.195H939.901V610.819Z" fill="#272747"/>
<path d="M939.901 617.195H580.481V623.571H939.901V617.195Z" fill="#272747"/>
<path d="M939.901 623.57H572.64V629.946H939.901V623.57Z" fill="#272747"/>
<path d="M939.901 629.946H564.799V636.322H939.901V629.946Z" fill="#272747"/>
<path d="M939.901 636.322H556.959V642.698H939.901V636.322Z" fill="#272747"/>
<path d="M939.9 566.187H643.206V567.23H939.9V566.187Z" fill="#3F3E56"/>
<path d="M939.901 572.562H635.366V573.606H939.901V572.562Z" fill="#3F3E56"/>
<path d="M939.901 578.938H627.525V579.982H939.901V578.938Z" fill="#3F3E56"/>
<path d="M939.901 585.314H619.684V586.358H939.901V585.314Z" fill="#3F3E56"/>
<path d="M939.901 591.69H611.844V592.734H939.901V591.69Z" fill="#3F3E56"/>
<path d="M939.9 598.067H604.003V599.111H939.9V598.067Z" fill="#3F3E56"/>
<path d="M939.901 604.443H596.163V605.487H939.901V604.443Z" fill="#3F3E56"/>
<path d="M939.901 610.819H588.322V611.863H939.901V610.819Z" fill="#3F3E56"/>
<path d="M939.901 617.195H580.481V618.239H939.901V617.195Z" fill="#3F3E56"/>
<path d="M939.901 623.57H572.64V624.614H939.901V623.57Z" fill="#3F3E56"/>
<path d="M939.901 629.946H564.799V630.99H939.901V629.946Z" fill="#3F3E56"/>
<path d="M939.901 636.322H556.959V637.366H939.901V636.322Z" fill="#3F3E56"/>
</g>
<mask id="mask1_645_1985" style="mask-type:luminance" maskUnits="userSpaceOnUse" x="0" y="0" width="962" height="642">
<path d="M962 0H0V641.203H962V0Z" fill="white"/>
</mask>
<g mask="url(#mask1_645_1985)">
<path d="M974.828 468.352C969.926 450.595 956.763 438.808 945.114 442.023C937.123 444.228 932.043 452.92 931.221 463.893C930.987 463.694 930.768 463.489 930.53 463.293C917.206 452.39 901.365 449.705 895.149 457.299C888.933 464.892 894.695 479.887 908.018 490.79C908.259 490.986 908.505 491.162 908.748 491.353C904.275 491.926 900.377 493.9 897.839 497.316C892.126 505.008 895.291 517.174 904.803 525.421C891.616 522.127 880.018 523.718 878.473 529.221C877.268 533.509 882.512 538.952 891.024 543.063C886.185 544.922 882.145 550.14 880.224 556.961C878.841 555.018 877.117 553.37 875.03 552.147C871.804 550.255 868.129 549.569 864.348 549.929C864.911 549.288 865.463 548.625 865.989 547.924C873.437 537.998 874.03 525.866 867.311 520.828C860.619 515.808 849.201 519.722 841.751 529.562C835.902 514.722 823.999 505.431 813.51 508.327C805.755 510.467 800.762 518.731 799.722 529.245C796.709 525.416 792.682 522.977 788.144 522.724C777.935 522.155 769.037 532.827 768.273 546.56C768.217 547.542 768.217 548.506 768.246 549.461C759.319 544.778 749.761 545.187 745.46 550.977C741.443 556.386 743.246 564.831 749.258 571.78C746.875 571.865 744.551 572.397 742.379 573.464C739.91 574.679 737.871 576.475 736.244 578.667C736.006 575.43 735.309 572.048 734.098 568.669C729.108 554.742 717.42 546.19 707.995 549.566C699.555 552.59 695.811 564.153 698.697 576.535C684.703 574.794 672.488 579.64 669.419 589.098C666.969 596.647 670.981 605.232 678.971 611.855C668.788 609.016 659.315 611.103 656.212 617.52C652.886 624.395 657.994 633.914 667.797 640.165C657.269 641.257 649.182 647.32 649.053 654.794C648.951 660.665 653.791 665.835 660.951 668.492C654.727 672.513 651.332 678.106 653.19 681.911C654.19 683.956 656.536 685.113 659.572 685.378C657.546 689.559 656.701 694.835 657.137 700.574C653.505 697.325 649.115 695.621 644.603 696.16C634.451 697.37 627.54 709.424 629.167 723.081C629.284 724.057 629.451 725.007 629.644 725.943C620.041 722.879 610.698 724.939 607.467 731.387C603.705 738.894 609.652 749.487 620.748 755.045L624.792 779.484H974.827L974.828 468.352Z" fill="url(#paint0_linear_645_1985)"/>
<path d="M980.09 512.189C978.786 511.124 977.484 510.058 976.181 508.991C967.019 519.438 956.953 528.92 946.163 537.385C953.76 526.169 960.356 514.303 965.867 501.92C964.352 501.185 962.839 500.449 961.324 499.714C956.181 509.445 950.353 518.725 943.911 527.498C947.011 517.286 949.417 506.871 951.072 496.318C949.418 496.003 947.765 495.686 946.11 495.371C944.318 503.275 942.085 511.033 939.47 518.631C937.165 507.388 934.029 496.327 930.068 485.545C928.469 486.072 926.87 486.599 925.271 487.126C929.749 502.441 932.526 518.077 933.648 533.767C933.588 533.91 933.522 534.051 933.461 534.193C929.477 519.806 924.128 505.83 917.438 492.483C915.909 493.187 914.379 493.89 912.85 494.594C917.448 505.559 921.115 516.811 923.888 528.23C917.969 518.49 911.335 509.195 904.03 500.431C902.701 501.465 901.374 502.498 900.045 503.532C910.418 517.84 918.976 533.215 925.617 549.305C925.431 549.5 925.243 549.693 925.055 549.888C917.039 538.324 910.066 525.964 904.307 512.918C902.743 513.544 901.182 514.171 899.619 514.798C903.421 525.274 907.986 535.451 913.26 545.256C903.929 538.454 894.101 532.353 883.845 527.024C883.019 528.49 882.193 529.957 881.366 531.424C893.236 538.649 904.313 546.929 914.512 556.098C902.153 550.548 889.325 546.095 876.177 542.801C875.714 544.419 875.249 546.036 874.786 547.656C885.259 551.045 895.407 555.186 905.16 560.019C894.565 558.725 883.89 558.148 873.207 558.337C873.182 560.021 873.155 561.703 873.128 563.386C887.14 564.085 900.589 566.43 914.243 569.463C921.638 570.3 930.771 573.115 935.495 579.09C937.488 581.611 939.547 584.086 941.649 586.528C942.098 587.05 942.552 587.568 943.006 588.086C943.036 587.79 943.072 587.494 943.1 587.199C943.2 586.16 943.289 585.121 943.374 584.082C943.835 578.503 943.981 572.9 944.143 567.305C944.195 565.482 943.009 552.449 943.812 552.045C958.565 544.623 974.196 538.794 990.465 534.769C990.117 533.122 989.769 531.476 989.42 529.829C978.444 531.769 967.631 534.512 957.06 538.017C965.368 530.001 973.072 521.373 980.09 512.189Z" fill="url(#paint1_linear_645_1985)"/>
<path d="M857.427 596.049C857.213 594.831 856.998 593.612 856.784 592.394C846.67 593.818 836.517 594.273 826.446 593.813C836.058 591.209 845.424 587.763 854.432 583.51C853.941 582.375 853.451 581.238 852.959 580.102C845.427 583.054 837.73 585.429 829.934 587.226C836.559 583.026 842.894 578.38 848.878 573.297C848.108 572.328 847.339 571.359 846.57 570.389C841.781 573.933 836.816 577.182 831.714 580.159C835.823 572.793 839.383 565.128 842.349 557.224C841.206 556.751 840.062 556.278 838.919 555.805C834.067 566.481 828.113 576.519 821.212 585.795C821.109 585.845 821.005 585.892 820.903 585.942C825.586 576.02 829.311 565.671 831.988 555.031C830.799 554.69 829.61 554.348 828.421 554.007C825.722 562.318 822.366 570.342 818.432 578.031C819.807 569.769 820.572 561.411 820.708 553.028C819.471 552.967 818.236 552.905 817.001 552.845C815.915 565.787 813.306 578.452 809.286 590.597C809.088 590.617 808.891 590.635 808.693 590.653C809.776 580.368 811.822 570.142 814.872 560.116C813.701 559.716 812.53 559.316 811.36 558.916C808.452 566.573 806.112 574.429 804.346 582.418C802.412 574.156 799.866 566.046 796.71 558.16C795.547 558.581 794.384 559.002 793.22 559.422C796.365 569.138 798.561 579.06 799.843 589.056C795.623 580.039 790.614 571.409 784.873 563.269C783.839 563.948 782.804 564.627 781.77 565.306C785.976 572.215 789.64 579.387 792.753 586.755C787.474 580.955 781.806 575.514 775.766 570.497C774.944 571.422 774.121 572.346 773.299 573.271C780.767 580.378 787.131 588.134 793.281 596.37C796.998 600.382 800.733 606.329 800.498 611.921C800.399 614.281 800.358 616.646 800.357 619.014C800.357 619.52 800.361 620.026 800.365 620.533C800.524 620.383 800.685 620.234 800.843 620.084C801.397 619.553 801.945 619.017 802.491 618.48C805.424 615.593 808.194 612.543 810.967 609.504C811.87 608.514 817.461 600.687 818.103 600.848C829.879 603.788 841.381 608.037 852.372 613.596C852.968 612.513 853.563 611.428 854.16 610.344C847.117 606.161 839.779 602.505 832.211 599.388C840.685 598.91 849.115 597.799 857.427 596.049Z" fill="url(#paint2_linear_645_1985)"/>
<path d="M975.928 583.152C974.376 603.158 956.325 618.073 935.612 616.468C914.898 614.861 899.364 597.341 900.916 577.335C902.468 557.33 920.519 525.373 941.232 526.98C961.947 528.587 977.481 563.147 975.928 583.152Z" fill="url(#paint3_linear_645_1985)"/>
<path d="M819.144 629.1C817.864 645.607 802.97 657.915 785.878 656.589C768.787 655.263 755.969 640.806 757.251 624.299C758.532 607.792 773.425 581.424 790.516 582.75C807.608 584.076 820.424 612.593 819.144 629.1Z" fill="url(#paint4_linear_645_1985)"/>
</g>
<defs>
<linearGradient id="paint0_linear_645_1985" x1="835.168" y1="809.607" x2="764.285" y2="481.005" gradientUnits="userSpaceOnUse">
<stop offset="0.3583" stop-color="#1C7EB6"/>
<stop offset="1" stop-color="#44408D"/>
</linearGradient>
<linearGradient id="paint1_linear_645_1985" x1="931.793" y1="588.089" x2="931.797" y2="485.547" gradientUnits="userSpaceOnUse">
<stop offset="0.3352" stop-color="white"/>
<stop offset="1" stop-color="#74B8ED"/>
</linearGradient>
<linearGradient id="paint2_linear_645_1985" x1="794.124" y1="615.162" x2="843.3" y2="558.045" gradientUnits="userSpaceOnUse">
<stop stop-color="#84BCEA"/>
<stop offset="1" stop-color="#1C92DA"/>
</linearGradient>
<linearGradient id="paint3_linear_645_1985" x1="935.613" y1="616.468" x2="942.542" y2="527.081" gradientUnits="userSpaceOnUse">
<stop stop-color="#84BCEA"/>
<stop offset="1" stop-color="#1C92DA"/>
</linearGradient>
<linearGradient id="paint4_linear_645_1985" x1="785.878" y1="656.589" x2="791.595" y2="582.835" gradientUnits="userSpaceOnUse">
<stop stop-color="white"/>
<stop offset="1" stop-color="#74B8ED"/>
</linearGradient>
</defs>
</svg>
