<svg width="425" height="37" viewBox="0 0 425 37" fill="none" xmlns="http://www.w3.org/2000/svg">
<path d="M38.4705 23.6223C42.0974 23.2068 45.8011 23.2467 49.3339 23.9221C53.94 24.8032 57.9604 26.693 62.3918 27.9112C72.1377 30.5895 81.3979 26.7907 87.5399 21.6824C102.779 9.01259 113.362 -4.66449 141.576 1.7431C153.519 4.45485 164.52 9.27759 177.025 10.3659C206.34 12.9207 235.704 -5.5148 263.132 1.87175C283.941 7.47663 292.836 25.7963 314.207 30.3554C327.797 33.2549 342.332 29.6697 355.85 26.6261C370.915 23.2351 382.383 22.7913 397.388 25.8748C406.41 27.7285 415.681 33.5122 424.963 36.6626H0.888428C2.93131 36.7462 23.7691 27.3928 29.4331 25.5828C32.2862 24.6707 35.3505 23.9787 38.4705 23.6223Z" fill="url(#paint0_linear_643_1397)"/>
<defs>
<linearGradient id="paint0_linear_643_1397" x1="212.925" y1="36.6626" x2="212.925" y2="0.110136" gradientUnits="userSpaceOnUse">
<stop stop-color="#FDFDFD" stop-opacity="0.2368"/>
<stop offset="0.7703" stop-color="#FDFDFD"/>
</linearGradient>
</defs>
</svg>
