<svg width="542" height="48" viewBox="0 0 542 48" fill="none" xmlns="http://www.w3.org/2000/svg">
<path d="M48.833 30.9021C53.4525 30.3734 58.1681 30.4235 62.6666 31.2842C68.5322 32.4059 73.6509 34.8128 79.2938 36.3642C91.7047 39.7757 103.495 34.9363 111.319 28.4322C130.725 12.2981 144.201 -5.11989 180.132 3.03979C195.341 6.49251 209.351 12.6338 225.275 14.0206C262.606 17.2739 300 -6.20304 334.926 3.20317C361.426 10.3402 372.754 33.6704 399.968 39.476C417.275 43.168 435.782 38.6038 452.999 34.7279C472.181 30.4094 486.789 29.8434 505.895 33.7708C517.384 36.1326 529.19 43.496 541.011 47.5096H0.973145C3.57666 47.6164 30.1092 35.7043 37.3245 33.4003C40.9572 32.2387 44.8605 31.3575 48.833 30.9021Z" fill="url(#paint0_linear_643_1395)"/>
<defs>
<linearGradient id="paint0_linear_643_1395" x1="270.994" y1="47.5097" x2="270.994" y2="0.961603" gradientUnits="userSpaceOnUse">
<stop stop-color="#FDFDFD" stop-opacity="0.2368"/>
<stop offset="0.7703" stop-color="#FDFDFD"/>
</linearGradient>
</defs>
</svg>
