<svg width="125" height="125" viewBox="0 0 125 125" fill="none" xmlns="http://www.w3.org/2000/svg">
<g clip-path="url(#clip0_1_11797)">
<path d="M121.583 55.9242L115.538 61.9754C111.692 65.8254 104.728 68.4013 99.2781 67.9121L83.4595 66.5473L66.8882 83.1348L70.2024 95.0005C71.7433 100.499 69.8596 107.698 65.8202 111.738L55.9129 121.655C53.7257 123.848 50.8056 125.059 47.6883 125.059C44.5751 125.059 41.6549 123.852 39.4638 121.659L3.33795 85.4937C-1.19403 80.9534 -1.19403 73.5689 3.33795 69.0285L69.0084 3.29778C73.5482 -1.23864 80.9295 -1.23469 85.4614 3.29778L121.583 39.455C123.774 41.6483 124.98 44.5713 124.98 47.6916C124.98 50.8079 123.774 53.7309 121.583 55.9242ZM116.058 44.9855L79.9364 8.82826C78.4467 7.33716 76.0192 7.34505 74.5295 8.83221L8.86303 74.555C7.37733 76.0461 7.37733 78.4761 8.86697 79.9672L44.9889 116.128C46.4194 117.556 48.9612 117.56 50.3878 116.124L60.2951 106.207C62.3089 104.192 63.4439 99.8525 62.6754 97.107L58.904 83.6003C58.8291 83.4306 58.8055 83.2531 58.7582 83.0756L58.6991 82.8705C58.6873 82.8192 58.6991 82.7758 58.6912 82.7245C58.6282 82.3892 58.5887 82.0618 58.6163 81.7226C58.6479 80.4248 59.306 79.2611 60.4055 78.5629L78.3915 60.5592C79.0497 59.3797 80.291 58.6381 81.7019 58.6263C81.8319 58.6145 81.958 58.5829 82.092 58.5868C82.0999 58.5868 82.1078 58.5829 82.1196 58.5829L99.952 60.1174C102.986 60.3541 107.826 58.6342 110.009 56.4449L116.058 50.3937C117.548 48.9026 117.548 46.4766 116.058 44.9855ZM82.0211 42.8987H89.9028V50.7882H82.0211V42.8987ZM82.0211 27.2422H89.9028V35.1355H82.0211V27.2422ZM66.3798 42.8987H74.2615V50.7882H66.3798V42.8987ZM66.3798 27.2422H74.2615V35.1355H66.3798V27.2422ZM49.3474 88.4641C48.5869 89.2294 47.5859 89.612 46.5849 89.612C45.5879 89.612 44.5869 89.2294 43.8224 88.4641L38.7702 83.407L33.718 88.4641C32.9574 89.2294 31.9564 89.612 30.9555 89.612C29.9584 89.612 28.9575 89.2294 28.1929 88.4641C26.6678 86.9375 26.6678 84.4602 28.1929 82.9336L33.2451 77.8765L28.1929 72.8194C26.6678 71.2928 26.6678 68.8155 28.1929 67.2889C29.722 65.7623 32.1929 65.7623 33.718 67.2889L38.7702 72.346L43.8224 67.2889C45.3514 65.7623 47.8223 65.7623 49.3474 67.2889C50.8765 68.8155 50.8765 71.2928 49.3474 72.8194L44.2953 77.8765L49.3474 82.9336C50.8765 84.4602 50.8765 86.9375 49.3474 88.4641Z" fill="white"/>
</g>
<defs>
<clipPath id="clip0_1_11797">
<rect width="125" height="125" fill="white"/>
</clipPath>
</defs>
</svg>
