<svg width="125" height="125" viewBox="0 0 125 125" fill="none" xmlns="http://www.w3.org/2000/svg">
<path d="M102.801 54.1306C102.66 56.9917 100.489 60.5242 96.9912 63.9192V108.658C96.9873 109.81 96.5335 110.787 95.7666 111.55C94.9961 112.297 93.9966 112.74 92.8215 112.747H19.9116C18.7444 112.74 17.741 112.297 16.9705 111.55C16.2036 110.787 15.7537 109.81 15.7498 108.658V37.1628C15.7537 36.0147 16.2036 35.0342 16.9705 34.2712C17.741 33.5234 18.7444 33.0811 19.9116 33.0735H58.6345C61.7664 28.9612 65.417 24.7498 69.5523 20.8894C69.5713 20.8665 69.5867 20.8435 69.6057 20.8208H19.9116C15.334 20.8169 11.1265 22.6594 8.13184 25.6045C5.12208 28.5496 3.24512 32.6694 3.24903 37.1631V108.658C3.24512 113.152 5.12208 117.28 8.13184 120.217C11.1262 123.161 15.334 125 19.9116 125H92.822C97.4072 125 101.615 123.161 104.609 120.216C107.612 117.279 109.492 113.151 109.488 108.658V49.6751C109.488 49.6751 109.458 49.637 109.408 49.5986C107.512 51.2239 105.303 52.7725 102.801 54.1306Z" fill="white"/>
<path d="M121.596 0C121.596 0 117.766 5.72217 92.7496 14.1868C67.2406 22.8196 51.5391 57.9377 51.5391 57.9377C47.7589 65.1323 32.8165 95.0242 32.8165 95.0242C28.7005 102.745 36.242 107.308 40.6671 99.3347C49.1471 84.03 54.6212 70.0454 67.515 69.6487C86.3253 69.0689 99.1883 52.6428 95.1409 53.4058C89.8155 55.7251 78.074 53.5813 84.9901 52.5132C101.592 51.1819 111.823 38.7039 108.489 37.8572C102.603 40.1231 97.1131 37.9717 96.0374 37.323C125.338 33.76 121.596 0 121.596 0Z" fill="white"/>
</svg>
